<svg xmlns="http://www.w3.org/2000/svg" xmlns:xlink="http://www.w3.org/1999/xlink" width="500" zoomAndPan="magnify" viewBox="0 0 375 374.999991" height="500" preserveAspectRatio="xMidYMid meet" version="1.2"><defs><clipPath id="dbe6f2b72c"><path d="M 85.238281 76.496094 L 289.988281 76.496094 L 289.988281 298.496094 L 85.238281 298.496094 Z M 85.238281 76.496094 "/></clipPath></defs><g id="7190075a07"><g clip-rule="nonzero" clip-path="url(#dbe6f2b72c)"><path style=" stroke:none;fill-rule:nonzero;fill:#131828;fill-opacity:1;" d="M 180.128906 85.773438 C 180.089844 85.371094 180.382812 85.007812 180.785156 84.96875 C 181.277344 84.921875 181.765625 84.875 182.261719 84.835938 C 182.671875 84.796875 183.019531 85.097656 183.054688 85.5 C 183.085938 85.902344 182.792969 86.257812 182.390625 86.296875 C 181.898438 86.335938 181.417969 86.375 180.933594 86.429688 C 180.90625 86.429688 180.878906 86.429688 180.859375 86.429688 C 180.484375 86.429688 180.167969 86.148438 180.128906 85.773438 Z M 186.730469 86 C 186.746094 86 186.75 86 186.765625 86 C 187.246094 85.980469 187.738281 85.960938 188.226562 85.941406 C 188.628906 85.929688 188.945312 85.59375 188.933594 85.183594 C 188.917969 84.78125 188.582031 84.453125 188.171875 84.480469 C 187.683594 84.5 187.1875 84.519531 186.699219 84.539062 C 186.292969 84.558594 185.980469 84.902344 186 85.304688 C 186.019531 85.699219 186.34375 86 186.730469 86 Z M 192.574219 86.074219 C 193.058594 86.101562 193.546875 86.128906 194.03125 86.167969 C 194.042969 86.167969 194.066406 86.167969 194.085938 86.167969 C 194.46875 86.167969 194.78125 85.875 194.816406 85.492188 C 194.84375 85.082031 194.542969 84.734375 194.136719 84.707031 C 193.640625 84.667969 193.152344 84.640625 192.65625 84.613281 C 192.234375 84.566406 191.902344 84.894531 191.882812 85.296875 C 191.855469 85.707031 192.171875 86.046875 192.574219 86.074219 Z M 198.386719 86.597656 C 198.867188 86.65625 199.351562 86.71875 199.835938 86.792969 C 199.867188 86.792969 199.902344 86.800781 199.933594 86.800781 C 200.296875 86.800781 200.605469 86.53125 200.660156 86.167969 C 200.71875 85.765625 200.4375 85.398438 200.035156 85.335938 C 199.546875 85.269531 199.054688 85.203125 198.566406 85.144531 C 198.15625 85.097656 197.800781 85.378906 197.746094 85.78125 C 197.703125 86.183594 197.984375 86.542969 198.386719 86.597656 Z M 128.625 107.476562 C 128.261719 107.816406 127.898438 108.152344 127.550781 108.5 C 127.257812 108.78125 127.25 109.242188 127.53125 109.53125 C 127.679688 109.679688 127.867188 109.753906 128.0625 109.753906 C 128.242188 109.753906 128.429688 109.6875 128.570312 109.546875 C 128.921875 109.210938 129.269531 108.875 129.625 108.539062 C 129.921875 108.265625 129.933594 107.804688 129.65625 107.507812 C 129.382812 107.214844 128.914062 107.199219 128.625 107.476562 Z M 145.910156 114.878906 C 156.503906 114.878906 165.117188 106.273438 165.117188 95.691406 C 165.117188 93.535156 164.757812 91.464844 164.097656 89.527344 C 164.441406 89.433594 164.785156 89.332031 165.125 89.246094 C 165.523438 89.136719 165.757812 88.734375 165.648438 88.347656 C 165.546875 87.957031 165.144531 87.722656 164.757812 87.824219 C 164.359375 87.929688 163.964844 88.039062 163.574219 88.144531 C 160.628906 81.304688 153.820312 76.496094 145.910156 76.496094 C 135.3125 76.496094 126.691406 85.109375 126.691406 95.691406 C 126.691406 106.273438 135.3125 114.878906 145.910156 114.878906 Z M 204.148438 87.515625 C 204.625 87.609375 205.101562 87.710938 205.578125 87.8125 C 205.632812 87.824219 205.679688 87.824219 205.734375 87.824219 C 206.070312 87.824219 206.378906 87.589844 206.449219 87.246094 C 206.53125 86.851562 206.285156 86.464844 205.886719 86.375 C 205.402344 86.277344 204.914062 86.175781 204.433594 86.082031 C 204.027344 86 203.648438 86.261719 203.574219 86.65625 C 203.492188 87.054688 203.753906 87.441406 204.148438 87.515625 Z M 175.023438 87.167969 C 175.054688 87.167969 175.097656 87.167969 175.128906 87.160156 C 175.613281 87.085938 176.097656 87.011719 176.578125 86.945312 C 176.980469 86.894531 177.257812 86.515625 177.203125 86.121094 C 177.144531 85.71875 176.789062 85.4375 176.371094 85.5 C 175.882812 85.566406 175.390625 85.640625 174.910156 85.714844 C 174.507812 85.773438 174.230469 86.148438 174.296875 86.550781 C 174.351562 86.914062 174.667969 87.167969 175.023438 87.167969 Z M 169.230469 88.238281 C 169.285156 88.238281 169.332031 88.234375 169.386719 88.21875 C 169.863281 88.121094 170.339844 88.019531 170.816406 87.925781 C 171.210938 87.84375 171.472656 87.460938 171.390625 87.066406 C 171.3125 86.664062 170.929688 86.410156 170.527344 86.492188 C 170.042969 86.585938 169.558594 86.683594 169.078125 86.792969 C 168.679688 86.878906 168.433594 87.269531 168.511719 87.664062 C 168.585938 88.003906 168.898438 88.238281 169.230469 88.238281 Z M 267.980469 143.539062 C 268.085938 143.847656 268.367188 144.042969 268.675781 144.042969 C 268.75 144.042969 268.832031 144.027344 268.910156 144 C 269.292969 143.875 269.503906 143.457031 269.367188 143.078125 C 269.214844 142.605469 269.054688 142.136719 268.886719 141.667969 C 268.75 141.285156 268.328125 141.09375 267.953125 141.226562 C 267.570312 141.359375 267.371094 141.777344 267.503906 142.15625 C 267.671875 142.621094 267.824219 143.078125 267.980469 143.539062 Z M 263.523438 132.796875 C 263.652344 133.050781 263.914062 133.203125 264.179688 133.203125 C 264.289062 133.203125 264.402344 133.175781 264.511719 133.125 C 264.871094 132.941406 265.019531 132.507812 264.839844 132.144531 C 264.617188 131.703125 264.398438 131.261719 264.167969 130.824219 C 263.980469 130.46875 263.539062 130.328125 263.175781 130.511719 C 262.820312 130.699219 262.679688 131.140625 262.867188 131.5 C 263.089844 131.929688 263.308594 132.359375 263.523438 132.796875 Z M 257.625 122.761719 C 257.765625 122.96875 257.996094 123.082031 258.230469 123.082031 C 258.371094 123.082031 258.519531 123.042969 258.648438 122.957031 C 258.976562 122.730469 259.0625 122.273438 258.835938 121.9375 C 258.554688 121.527344 258.269531 121.128906 257.988281 120.726562 C 257.753906 120.394531 257.296875 120.316406 256.960938 120.550781 C 256.632812 120.785156 256.558594 121.242188 256.792969 121.570312 C 257.070312 121.964844 257.351562 122.367188 257.625 122.761719 Z M 260.746094 127.679688 C 260.886719 127.910156 261.128906 128.042969 261.382812 128.042969 C 261.503906 128.042969 261.632812 128.011719 261.753906 127.9375 C 262.101562 127.734375 262.214844 127.285156 262.015625 126.9375 C 261.757812 126.515625 261.511719 126.085938 261.25 125.671875 C 261.042969 125.320312 260.59375 125.214844 260.242188 125.421875 C 259.902344 125.636719 259.789062 126.085938 260 126.425781 C 260.25 126.84375 260.503906 127.257812 260.746094 127.679688 Z M 265.941406 138.089844 C 266.054688 138.371094 266.328125 138.539062 266.617188 138.539062 C 266.710938 138.539062 266.804688 138.523438 266.898438 138.484375 C 267.269531 138.332031 267.449219 137.902344 267.296875 137.527344 C 267.109375 137.070312 266.914062 136.621094 266.71875 136.167969 C 266.558594 135.796875 266.121094 135.625 265.753906 135.792969 C 265.382812 135.953125 265.207031 136.378906 265.371094 136.75 C 265.5625 137.199219 265.753906 137.640625 265.941406 138.089844 Z M 245.226562 107.414062 C 244.953125 107.710938 244.964844 108.171875 245.265625 108.445312 C 245.621094 108.78125 245.976562 109.109375 246.328125 109.445312 C 246.46875 109.585938 246.648438 109.652344 246.832031 109.652344 C 247.023438 109.652344 247.21875 109.578125 247.359375 109.425781 C 247.640625 109.136719 247.636719 108.675781 247.339844 108.390625 C 246.984375 108.050781 246.621094 107.707031 246.261719 107.375 C 245.964844 107.097656 245.503906 107.121094 245.226562 107.414062 Z M 227.988281 116.410156 C 238.585938 116.410156 247.199219 107.804688 247.199219 97.222656 C 247.199219 86.636719 238.585938 78.027344 227.988281 78.027344 C 220.851562 78.027344 214.609375 81.941406 211.300781 87.722656 C 210.941406 87.625 210.578125 87.523438 210.214844 87.421875 C 209.824219 87.320312 209.417969 87.550781 209.316406 87.9375 C 209.207031 88.332031 209.441406 88.734375 209.832031 88.835938 C 210.085938 88.910156 210.347656 88.984375 210.605469 89.050781 C 209.429688 91.53125 208.773438 94.296875 208.773438 97.222656 C 208.773438 107.804688 217.394531 116.410156 227.988281 116.410156 Z M 254.171875 118.070312 C 254.3125 118.257812 254.527344 118.351562 254.742188 118.351562 C 254.902344 118.351562 255.0625 118.296875 255.195312 118.191406 C 255.511719 117.945312 255.566406 117.480469 255.316406 117.164062 C 255.007812 116.777344 254.699219 116.394531 254.386719 116.007812 C 254.128906 115.699219 253.675781 115.652344 253.359375 115.90625 C 253.042969 116.160156 252.996094 116.625 253.25 116.9375 C 253.558594 117.3125 253.867188 117.695312 254.171875 118.070312 Z M 250.394531 113.628906 C 250.539062 113.789062 250.742188 113.867188 250.9375 113.867188 C 251.109375 113.867188 251.292969 113.800781 251.433594 113.671875 C 251.730469 113.40625 251.753906 112.945312 251.480469 112.640625 C 251.144531 112.273438 250.808594 111.910156 250.472656 111.554688 C 250.199219 111.261719 249.730469 111.246094 249.441406 111.523438 C 249.144531 111.796875 249.125 112.257812 249.40625 112.554688 C 249.734375 112.910156 250.070312 113.265625 250.394531 113.628906 Z M 123.996094 114.007812 C 124.195312 114.007812 124.398438 113.929688 124.546875 113.761719 C 124.867188 113.398438 125.195312 113.039062 125.523438 112.683594 C 125.792969 112.382812 125.78125 111.917969 125.476562 111.644531 C 125.183594 111.375 124.71875 111.390625 124.445312 111.691406 C 124.109375 112.054688 123.773438 112.421875 123.445312 112.789062 C 123.175781 113.097656 123.210938 113.5625 123.511719 113.828125 C 123.652344 113.949219 123.820312 114.007812 123.996094 114.007812 Z M 105.863281 190.179688 C 105.757812 189.703125 105.65625 189.226562 105.554688 188.75 C 105.476562 188.355469 105.085938 188.101562 104.691406 188.179688 C 104.296875 188.269531 104.039062 188.652344 104.121094 189.046875 C 104.222656 189.535156 104.328125 190.019531 104.4375 190.5 C 104.515625 190.84375 104.816406 191.070312 105.148438 191.070312 C 105.207031 191.070312 105.261719 191.0625 105.316406 191.050781 C 105.710938 190.960938 105.953125 190.574219 105.863281 190.179688 Z M 256.679688 200.394531 C 251.621094 192.53125 229.199219 189.261719 225.835938 188.8125 C 224.628906 187.449219 223.453125 186.4375 222.660156 185.824219 C 226.371094 181.894531 229.0625 177.996094 230.054688 174.789062 C 230.40625 173.683594 230.546875 172.667969 230.457031 171.753906 C 229.78125 164.625 216.503906 136.582031 207.542969 123.359375 C 199.117188 110.925781 189.664062 111.664062 188.167969 111.871094 C 186.671875 111.652344 177.230469 110.804688 168.667969 123.144531 C 159.554688 136.269531 145.976562 164.167969 145.222656 171.292969 C 144.847656 174.863281 147.996094 180.214844 153.015625 185.601562 C 152.242188 186.183594 150.914062 187.269531 149.550781 188.8125 C 146.191406 189.261719 123.757812 192.53125 118.699219 200.394531 C 117.210938 202.707031 115.527344 206.894531 113.863281 211.71875 C 113.679688 211.378906 113.492188 211.035156 113.320312 210.6875 C 113.132812 210.324219 112.6875 210.191406 112.332031 210.371094 C 111.96875 210.558594 111.828125 211.003906 112.015625 211.355469 C 112.246094 211.800781 112.472656 212.234375 112.707031 212.671875 C 112.84375 212.917969 113.097656 213.058594 113.351562 213.058594 C 113.371094 213.058594 113.394531 213.054688 113.414062 213.046875 C 109.628906 224.367188 106.105469 238.453125 105.617188 240.425781 C 104.269531 242.308594 93.261719 258.179688 94.378906 272.386719 C 94.855469 278.472656 98.1875 283.808594 103.765625 287.398438 C 107.074219 289.535156 110.929688 290.910156 114.875 291.453125 C 116.175781 291.640625 117.5 291.734375 118.808594 291.734375 C 120.753906 291.734375 122.679688 291.527344 124.539062 291.113281 C 124.035156 291.816406 123.734375 292.6875 123.734375 293.617188 L 123.734375 294.160156 C 123.734375 296.554688 125.679688 298.496094 128.074219 298.496094 L 248.824219 298.496094 C 251.21875 298.496094 253.164062 296.554688 253.164062 294.160156 L 253.164062 293.617188 C 253.164062 293.074219 253.058594 292.558594 252.875 292.078125 C 252.996094 292.089844 253.117188 292.101562 253.238281 292.101562 C 253.6875 292.148438 254.152344 292.171875 254.632812 292.171875 C 257.625 292.171875 261.277344 291.441406 264.914062 289.691406 C 271.617188 286.472656 276.105469 280.777344 277.546875 273.652344 C 280.714844 258.015625 270.9375 242.253906 269.777344 240.449219 C 269.085938 237.683594 261.738281 208.246094 256.679688 200.394531 Z M 107.8125 201.867188 C 107.917969 202.160156 108.199219 202.34375 108.496094 202.34375 C 108.582031 202.34375 108.667969 202.328125 108.757812 202.296875 C 109.132812 202.15625 109.328125 201.734375 109.1875 201.359375 C 109.019531 200.902344 108.851562 200.4375 108.691406 199.984375 C 108.554688 199.601562 108.132812 199.40625 107.757812 199.535156 C 107.375 199.667969 107.175781 200.089844 107.308594 200.472656 C 107.46875 200.933594 107.636719 201.40625 107.8125 201.867188 Z M 265.046875 207.28125 C 265.324219 207.28125 265.585938 207.121094 265.710938 206.859375 C 265.921875 206.410156 266.128906 205.960938 266.335938 205.507812 C 266.496094 205.136719 266.328125 204.703125 265.960938 204.542969 C 265.589844 204.375 265.164062 204.542969 264.996094 204.910156 C 264.792969 205.351562 264.589844 205.792969 264.382812 206.238281 C 264.214844 206.597656 264.371094 207.039062 264.738281 207.207031 C 264.839844 207.253906 264.941406 207.28125 265.046875 207.28125 Z M 262.355469 212.523438 C 262.617188 212.523438 262.867188 212.382812 263 212.148438 C 263.242188 211.710938 263.476562 211.277344 263.710938 210.839844 C 263.90625 210.484375 263.765625 210.042969 263.410156 209.847656 C 263.054688 209.660156 262.613281 209.796875 262.417969 210.152344 C 262.1875 210.578125 261.953125 211.007812 261.71875 211.429688 C 261.523438 211.785156 261.652344 212.234375 262 212.429688 C 262.117188 212.488281 262.234375 212.523438 262.355469 212.523438 Z M 270.738281 145.9375 C 260.140625 145.9375 251.527344 154.542969 251.527344 165.125 C 251.527344 175.707031 260.144531 184.320312 270.738281 184.320312 C 271 184.320312 271.253906 184.308594 271.507812 184.300781 C 271.476562 184.433594 271.449219 184.570312 271.414062 184.703125 C 271.328125 185.097656 271.570312 185.492188 271.964844 185.585938 C 272.019531 185.59375 272.078125 185.601562 272.132812 185.601562 C 272.460938 185.601562 272.765625 185.375 272.84375 185.039062 C 272.910156 184.75 272.972656 184.460938 273.039062 184.179688 C 282.554688 183.039062 289.953125 174.929688 289.953125 165.125 C 289.953125 154.542969 281.332031 145.9375 270.738281 145.9375 Z M 269.019531 193.945312 C 268.886719 194.414062 268.746094 194.875 268.605469 195.347656 C 268.484375 195.726562 268.699219 196.136719 269.085938 196.257812 C 269.152344 196.285156 269.226562 196.289062 269.300781 196.289062 C 269.617188 196.289062 269.90625 196.089844 270 195.773438 C 270.148438 195.304688 270.289062 194.828125 270.429688 194.355469 C 270.542969 193.964844 270.316406 193.5625 269.925781 193.449219 C 269.535156 193.335938 269.132812 193.554688 269.019531 193.945312 Z M 268.140625 199.058594 C 267.757812 198.925781 267.34375 199.121094 267.203125 199.496094 C 267.035156 199.957031 266.859375 200.414062 266.683594 200.867188 C 266.539062 201.242188 266.726562 201.667969 267.101562 201.8125 C 267.1875 201.847656 267.28125 201.859375 267.371094 201.859375 C 267.664062 201.859375 267.941406 201.6875 268.054688 201.390625 C 268.226562 200.929688 268.402344 200.464844 268.578125 200.003906 C 268.71875 199.621094 268.523438 199.199219 268.140625 199.058594 Z M 270.675781 190.601562 C 270.730469 190.613281 270.785156 190.621094 270.84375 190.621094 C 271.171875 190.621094 271.476562 190.386719 271.554688 190.050781 C 271.671875 189.570312 271.777344 189.085938 271.878906 188.601562 C 271.964844 188.207031 271.71875 187.820312 271.320312 187.730469 C 270.925781 187.652344 270.535156 187.898438 270.449219 188.296875 C 270.34375 188.769531 270.242188 189.246094 270.125 189.714844 C 270.03125 190.113281 270.28125 190.507812 270.675781 190.601562 Z M 110.855469 133.539062 C 110.957031 133.585938 111.066406 133.605469 111.164062 133.605469 C 111.449219 133.605469 111.710938 133.453125 111.828125 133.183594 C 112.039062 132.742188 112.246094 132.304688 112.460938 131.871094 C 112.636719 131.507812 112.488281 131.066406 112.125 130.890625 C 111.757812 130.710938 111.320312 130.863281 111.144531 131.226562 C 110.925781 131.675781 110.714844 132.117188 110.5 132.566406 C 110.332031 132.929688 110.496094 133.363281 110.855469 133.539062 Z M 120.257812 118.554688 C 120.480469 118.554688 120.699219 118.453125 120.839844 118.265625 C 121.136719 117.875 121.429688 117.496094 121.734375 117.113281 C 121.988281 116.796875 121.933594 116.335938 121.621094 116.082031 C 121.296875 115.832031 120.839844 115.886719 120.585938 116.199219 C 120.277344 116.589844 119.976562 116.984375 119.671875 117.375 C 119.433594 117.695312 119.492188 118.15625 119.8125 118.398438 C 119.949219 118.5 120.101562 118.554688 120.257812 118.554688 Z M 108.601562 138.96875 C 108.691406 139 108.777344 139.015625 108.871094 139.015625 C 109.160156 139.015625 109.441406 138.839844 109.554688 138.546875 C 109.730469 138.097656 109.90625 137.640625 110.085938 137.191406 C 110.242188 136.816406 110.058594 136.386719 109.683594 136.242188 C 109.308594 136.09375 108.878906 136.265625 108.730469 136.640625 C 108.542969 137.105469 108.359375 137.5625 108.1875 138.023438 C 108.039062 138.398438 108.226562 138.820312 108.601562 138.96875 Z M 113.488281 128.285156 C 113.59375 128.34375 113.722656 128.371094 113.835938 128.371094 C 114.097656 128.371094 114.347656 128.238281 114.480469 127.996094 C 114.714844 127.574219 114.957031 127.152344 115.199219 126.730469 C 115.398438 126.382812 115.277344 125.933594 114.929688 125.730469 C 114.574219 125.53125 114.132812 125.652344 113.929688 126 C 113.683594 126.429688 113.441406 126.859375 113.199219 127.285156 C 113.003906 127.640625 113.132812 128.082031 113.488281 128.285156 Z M 116.472656 123.226562 C 116.59375 123.304688 116.734375 123.34375 116.875 123.34375 C 117.109375 123.34375 117.347656 123.230469 117.484375 123.011719 C 117.753906 122.609375 118.023438 122.207031 118.292969 121.804688 C 118.519531 121.46875 118.433594 121.011719 118.097656 120.785156 C 117.765625 120.558594 117.3125 120.644531 117.082031 120.980469 C 116.800781 121.390625 116.527344 121.804688 116.257812 122.210938 C 116.035156 122.554688 116.136719 123.003906 116.472656 123.226562 Z M 103.105469 183.207031 C 103.175781 183.699219 103.25 184.1875 103.320312 184.675781 C 103.375 185.039062 103.691406 185.292969 104.046875 185.292969 C 104.082031 185.292969 104.121094 185.292969 104.160156 185.285156 C 104.558594 185.21875 104.832031 184.84375 104.769531 184.449219 C 104.699219 183.964844 104.625 183.488281 104.558594 183.007812 C 104.550781 182.96875 104.53125 182.941406 104.523438 182.90625 C 115.097656 182.886719 123.699219 174.289062 123.699219 163.71875 C 123.699219 153.136719 115.078125 144.523438 104.484375 144.523438 C 93.886719 144.523438 85.265625 153.136719 85.265625 163.71875 C 85.265625 173.851562 93.175781 182.167969 103.15625 182.859375 C 103.113281 182.96875 103.085938 183.082031 103.105469 183.207031 Z M 109.851562 205.03125 C 109.480469 205.191406 109.3125 205.621094 109.46875 205.996094 C 109.667969 206.453125 109.871094 206.902344 110.070312 207.347656 C 110.191406 207.625 110.460938 207.785156 110.742188 207.785156 C 110.84375 207.785156 110.945312 207.765625 111.042969 207.71875 C 111.414062 207.550781 111.574219 207.113281 111.40625 206.746094 C 111.207031 206.304688 111.011719 205.859375 110.816406 205.414062 C 110.65625 205.042969 110.226562 204.871094 109.851562 205.03125 Z M 106.722656 144.539062 C 106.796875 144.5625 106.871094 144.570312 106.9375 144.570312 C 107.253906 144.570312 107.542969 144.371094 107.644531 144.054688 C 107.785156 143.59375 107.929688 143.128906 108.085938 142.667969 C 108.207031 142.285156 108 141.871094 107.617188 141.742188 C 107.234375 141.613281 106.816406 141.824219 106.691406 142.210938 C 106.535156 142.679688 106.386719 143.148438 106.242188 143.625 C 106.121094 144.007812 106.335938 144.417969 106.722656 144.539062 Z M 105.933594 196.238281 C 106.027344 196.558594 106.320312 196.761719 106.636719 196.761719 C 106.703125 196.761719 106.769531 196.753906 106.84375 196.734375 C 107.234375 196.621094 107.457031 196.210938 107.339844 195.820312 C 107.199219 195.359375 107.066406 194.890625 106.933594 194.421875 C 106.824219 194.03125 106.421875 193.804688 106.03125 193.910156 C 105.644531 194.019531 105.414062 194.421875 105.523438 194.816406 C 105.65625 195.292969 105.792969 195.769531 105.933594 196.238281 Z M 105.933594 196.238281 "/></g><path style=" stroke:none;fill-rule:nonzero;fill:#98869c;fill-opacity:1;" d="M 253.773438 213.703125 C 254.0625 214.011719 254.203125 214.414062 254.171875 214.835938 L 248.972656 287.875 C 248.910156 288.640625 248.058594 289.28125 247.097656 289.28125 L 129.226562 289.28125 C 128.636719 289.28125 128.09375 289.042969 127.746094 288.679688 C 127.730469 288.664062 127.726562 288.660156 127.710938 288.652344 C 127.503906 288.425781 127.375 288.15625 127.355469 287.875 L 122.148438 214.835938 C 122.121094 214.414062 122.265625 214.011719 122.550781 213.703125 C 122.882812 213.347656 123.363281 213.148438 123.902344 213.148438 L 252.421875 213.148438 C 252.964844 213.148438 253.441406 213.347656 253.773438 213.703125 Z M 208.410156 264.167969 C 208.851562 263.835938 208.941406 263.203125 208.605469 262.761719 L 204.996094 257.992188 C 204.808594 257.742188 204.511719 257.59375 204.195312 257.589844 L 200.835938 257.570312 C 200.9375 256.777344 200.988281 256 200.988281 255.269531 C 200.988281 254.652344 200.949219 254.050781 200.882812 253.453125 L 204.125 253.3125 C 204.429688 253.300781 204.71875 253.144531 204.902344 252.890625 L 208.34375 247.992188 C 208.667969 247.542969 208.558594 246.910156 208.101562 246.589844 C 207.644531 246.273438 207.023438 246.382812 206.699219 246.839844 L 203.539062 251.328125 L 200.535156 251.457031 C 200.265625 250.332031 199.890625 249.265625 199.414062 248.265625 L 202.25 246.824219 C 202.507812 246.699219 202.6875 246.476562 202.769531 246.203125 L 204.539062 239.957031 C 204.695312 239.417969 204.378906 238.863281 203.847656 238.714844 C 203.3125 238.5625 202.753906 238.871094 202.601562 239.40625 L 200.949219 245.238281 L 198.40625 246.523438 C 198.398438 246.515625 198.398438 246.515625 198.398438 246.511719 C 198.351562 246.410156 198.292969 246.316406 198.21875 246.230469 C 196.890625 244.339844 195.160156 242.851562 193.171875 241.933594 C 194.023438 239.414062 197.113281 231.933594 203.578125 231.871094 C 204.136719 231.867188 204.578125 231.417969 204.578125 230.859375 C 204.574219 230.304688 204.125 229.863281 203.574219 229.863281 C 203.566406 229.863281 203.566406 229.863281 203.558594 229.863281 C 195.761719 229.9375 192.261719 238.308594 191.273438 241.25 C 190.402344 241.027344 189.507812 240.902344 188.582031 240.902344 C 187.65625 240.902344 186.757812 241.027344 185.890625 241.25 C 184.90625 238.308594 181.398438 229.9375 173.601562 229.863281 C 173.601562 229.863281 173.601562 229.863281 173.59375 229.863281 C 173.042969 229.863281 172.59375 230.304688 172.585938 230.859375 C 172.582031 231.417969 173.03125 231.867188 173.585938 231.871094 C 180.035156 231.933594 183.128906 239.414062 183.992188 241.933594 C 182.007812 242.851562 180.269531 244.339844 178.949219 246.234375 C 178.875 246.316406 178.8125 246.410156 178.765625 246.511719 C 178.765625 246.515625 178.761719 246.515625 178.761719 246.523438 L 176.21875 245.238281 L 174.558594 239.40625 C 174.414062 238.871094 173.855469 238.5625 173.316406 238.714844 C 172.789062 238.863281 172.472656 239.417969 172.628906 239.957031 L 174.398438 246.203125 C 174.472656 246.476562 174.660156 246.699219 174.910156 246.824219 L 177.753906 248.273438 C 177.269531 249.265625 176.902344 250.332031 176.632812 251.457031 L 173.621094 251.328125 L 170.464844 246.839844 C 170.144531 246.382812 169.519531 246.273438 169.0625 246.589844 C 168.605469 246.910156 168.5 247.542969 168.816406 247.992188 L 172.257812 252.890625 C 172.4375 253.144531 172.726562 253.300781 173.042969 253.3125 L 176.28125 253.453125 C 176.214844 254.050781 176.175781 254.652344 176.175781 255.269531 C 176.175781 255.867188 176.207031 256.488281 176.277344 257.125 L 173.640625 256.683594 C 173.332031 256.636719 173.015625 256.730469 172.785156 256.945312 L 168.40625 261.019531 C 167.996094 261.394531 167.976562 262.03125 168.359375 262.441406 C 168.554688 262.65625 168.820312 262.761719 169.089844 262.761719 C 169.339844 262.761719 169.585938 262.667969 169.78125 262.488281 L 173.800781 258.75 L 176.605469 259.222656 C 176.832031 260.308594 177.140625 261.414062 177.523438 262.507812 L 174.128906 263.417969 C 173.855469 263.492188 173.625 263.675781 173.5 263.921875 L 170.464844 269.671875 C 170.210938 270.160156 170.398438 270.773438 170.886719 271.03125 C 171.035156 271.105469 171.195312 271.148438 171.359375 271.148438 C 171.71875 271.148438 172.070312 270.953125 172.25 270.609375 L 175.070312 265.25 L 178.269531 264.390625 C 180.4375 269.304688 184.125 273.464844 188.582031 273.464844 C 192.96875 273.464844 196.613281 269.425781 198.792969 264.613281 L 201.3125 265.777344 L 203.167969 271.542969 C 203.304688 271.972656 203.699219 272.238281 204.128906 272.238281 C 204.230469 272.238281 204.332031 272.226562 204.4375 272.191406 C 204.96875 272.023438 205.257812 271.453125 205.082031 270.925781 L 203.09375 264.746094 C 203.007812 264.476562 202.8125 264.257812 202.558594 264.144531 L 199.558594 262.75 C 199.933594 261.695312 200.25 260.628906 200.480469 259.578125 L 203.6875 259.597656 L 207 263.976562 C 207.203125 264.238281 207.496094 264.371094 207.804688 264.371094 C 208.015625 264.371094 208.230469 264.304688 208.410156 264.167969 Z M 248.824219 291.292969 L 128.074219 291.292969 C 126.792969 291.292969 125.746094 292.339844 125.746094 293.617188 L 125.746094 294.160156 C 125.746094 295.441406 126.792969 296.488281 128.074219 296.488281 L 248.824219 296.488281 C 250.105469 296.488281 251.152344 295.441406 251.152344 294.160156 L 251.152344 293.617188 C 251.152344 292.339844 250.105469 291.292969 248.824219 291.292969 Z M 248.824219 291.292969 "/><path style=" stroke:none;fill-rule:nonzero;fill:#ffffff;fill-opacity:1;" d="M 208.753906 163.71875 C 209.402344 164.980469 209.78125 166.40625 209.78125 167.921875 C 209.78125 172.980469 205.671875 177.089844 200.601562 177.089844 C 197.992188 177.089844 195.640625 175.996094 193.972656 174.246094 Z M 166.105469 167.921875 C 166.105469 172.980469 170.21875 177.089844 175.285156 177.089844 C 177.894531 177.089844 180.25 175.996094 181.921875 174.246094 L 167.132812 163.71875 C 166.480469 164.980469 166.105469 166.40625 166.105469 167.921875 Z M 113.039062 159.9375 C 111.453125 159.652344 110.078125 159.980469 108.957031 160.910156 C 107.460938 162.15625 106.835938 164.132812 106.835938 164.917969 C 106.835938 165.285156 106.542969 165.589844 106.167969 165.589844 C 105.796875 165.589844 105.496094 165.285156 105.496094 164.917969 C 105.496094 163.726562 106.308594 161.375 108.097656 159.886719 C 108.636719 159.4375 109.234375 159.09375 109.871094 158.859375 C 109.871094 158.851562 109.863281 158.847656 109.863281 158.832031 C 109.863281 155.851562 107.433594 153.425781 104.449219 153.425781 C 101.457031 153.425781 99.027344 155.851562 99.027344 158.832031 C 99.027344 160.226562 99.558594 161.546875 100.511719 162.554688 C 100.765625 162.820312 100.753906 163.25 100.484375 163.503906 C 100.355469 163.625 100.1875 163.683594 100.027344 163.683594 C 99.847656 163.683594 99.671875 163.617188 99.539062 163.476562 C 98.492188 162.371094 97.859375 160.972656 97.71875 159.476562 C 92.632812 160.808594 92.605469 165.898438 92.753906 167.613281 L 117.554688 167.613281 C 117.398438 165.742188 116.648438 160.601562 113.039062 159.9375 Z M 279.808594 158.023438 L 272.785156 158.023438 L 272.785156 159.15625 L 279.808594 159.15625 Z M 279.808594 158.023438 "/><path style=" stroke:none;fill-rule:nonzero;fill:#ffb450;fill-opacity:1;" d="M 156.289062 87.636719 L 135.207031 87.636719 L 135.207031 96.585938 L 156.289062 96.585938 Z M 142.136719 90.425781 L 146.011719 90.425781 C 146.40625 90.425781 146.726562 90.746094 146.726562 91.140625 C 146.726562 91.539062 146.40625 91.859375 146.011719 91.859375 L 142.136719 91.859375 C 141.742188 91.859375 141.421875 91.535156 141.421875 91.140625 C 141.417969 90.746094 141.742188 90.425781 142.136719 90.425781 Z M 138.5625 92.449219 C 137.730469 92.449219 137.058594 91.777344 137.058594 90.949219 C 137.058594 90.117188 137.730469 89.445312 138.5625 89.445312 C 139.394531 89.445312 140.066406 90.117188 140.066406 90.949219 C 140.066406 91.777344 139.394531 92.449219 138.5625 92.449219 Z M 151.53125 94.371094 L 142.136719 94.371094 C 141.742188 94.371094 141.417969 94.050781 141.417969 93.65625 C 141.417969 93.257812 141.742188 92.9375 142.136719 92.9375 L 151.53125 92.9375 C 151.925781 92.9375 152.242188 93.261719 152.242188 93.65625 C 152.242188 94.050781 151.925781 94.371094 151.53125 94.371094 Z M 156.289062 102.910156 L 135.207031 102.910156 L 135.207031 99.835938 L 156.289062 99.835938 Z M 272.113281 160.496094 L 281.164062 160.496094 L 281.164062 173.335938 L 260.308594 173.335938 L 260.308594 156.921875 L 271.441406 156.921875 L 271.441406 159.824219 C 271.441406 160.195312 271.738281 160.496094 272.113281 160.496094 Z M 272.113281 160.496094 "/><path style=" stroke:none;fill-rule:nonzero;fill:#9fdd00;fill-opacity:1;" d="M 178.191406 255.269531 C 178.191406 252.507812 178.960938 249.960938 180.257812 247.902344 L 187.578125 247.902344 L 187.578125 271.355469 C 182.496094 270.347656 178.191406 261.964844 178.191406 255.269531 Z M 128.707031 95.691406 C 128.707031 86.214844 136.421875 78.507812 145.910156 78.507812 C 155.390625 78.507812 163.105469 86.214844 163.105469 95.691406 C 163.105469 105.164062 155.390625 112.871094 145.910156 112.871094 C 136.421875 112.871094 128.707031 105.164062 128.707031 95.691406 Z M 133.863281 103.582031 C 133.863281 103.949219 134.167969 104.25 134.535156 104.25 L 156.960938 104.25 C 157.328125 104.25 157.628906 103.949219 157.628906 103.582031 L 157.628906 86.964844 C 157.628906 86.597656 157.328125 86.296875 156.960938 86.296875 L 134.535156 86.296875 C 134.167969 86.296875 133.863281 86.597656 133.863281 86.964844 Z M 287.941406 165.125 C 287.941406 174.601562 280.226562 182.308594 270.738281 182.308594 C 261.257812 182.308594 253.539062 174.601562 253.539062 165.125 C 253.539062 155.65625 261.257812 147.949219 270.738281 147.949219 C 280.226562 147.949219 287.941406 155.65625 287.941406 165.125 Z M 282.507812 159.824219 C 282.507812 159.457031 282.203125 159.15625 281.835938 159.15625 L 281.152344 159.15625 L 281.152344 157.351562 C 281.152344 156.984375 280.847656 156.683594 280.480469 156.683594 L 272.785156 156.683594 L 272.785156 156.253906 C 272.785156 155.878906 272.480469 155.582031 272.113281 155.582031 L 259.640625 155.582031 C 259.269531 155.582031 258.96875 155.878906 258.96875 156.253906 L 258.96875 174.007812 C 258.96875 174.375 259.269531 174.675781 259.640625 174.675781 L 281.835938 174.675781 C 282.207031 174.675781 282.507812 174.375 282.507812 174.007812 Z M 188.582031 242.910156 C 186.007812 242.910156 183.644531 244.035156 181.828125 245.894531 L 195.332031 245.894531 C 193.515625 244.035156 191.160156 242.910156 188.582031 242.910156 Z M 210.785156 97.21875 C 210.785156 87.742188 218.5 80.035156 227.988281 80.035156 C 237.46875 80.035156 245.1875 87.742188 245.1875 97.21875 C 245.1875 106.691406 237.46875 114.398438 227.988281 114.398438 C 218.5 114.398438 210.785156 106.691406 210.785156 97.21875 Z M 222.460938 90.171875 C 222.460938 93.21875 224.9375 95.691406 227.988281 95.691406 C 231.042969 95.691406 233.511719 93.21875 233.511719 90.171875 C 233.511719 87.128906 231.042969 84.65625 227.988281 84.65625 C 224.9375 84.652344 222.460938 87.128906 222.460938 90.171875 Z M 217.976562 107.011719 L 237.992188 107.011719 L 237.992188 106.917969 C 237.992188 101.394531 233.519531 96.925781 227.988281 96.925781 C 222.460938 96.925781 217.976562 101.394531 217.976562 106.917969 Z M 269.667969 244.28125 C 269.789062 244.503906 269.914062 244.742188 270.039062 244.988281 C 270.679688 246.214844 271.410156 247.722656 272.136719 249.441406 C 274.75 255.632812 277.335938 264.570312 275.574219 273.257812 C 275.476562 273.75 275.355469 274.222656 275.230469 274.6875 C 275.203125 274.789062 275.171875 274.894531 275.144531 274.996094 C 274.878906 275.914062 274.5625 276.777344 274.207031 277.585938 C 274.171875 277.667969 274.136719 277.746094 274.101562 277.824219 C 273.730469 278.628906 273.324219 279.382812 272.886719 280.082031 C 272.847656 280.144531 272.808594 280.210938 272.769531 280.269531 C 272.546875 280.617188 272.316406 280.957031 272.082031 281.277344 C 272.078125 281.285156 272.074219 281.289062 272.070312 281.292969 C 271.839844 281.609375 271.601562 281.910156 271.363281 282.199219 C 271.316406 282.253906 271.273438 282.308594 271.226562 282.363281 C 270.980469 282.652344 270.734375 282.933594 270.480469 283.203125 C 270.46875 283.21875 270.453125 283.230469 270.441406 283.246094 C 270.199219 283.5 269.953125 283.742188 269.707031 283.976562 C 269.660156 284.019531 269.617188 284.066406 269.570312 284.109375 C 269.308594 284.351562 269.050781 284.585938 268.789062 284.804688 C 268.777344 284.816406 268.765625 284.828125 268.75 284.835938 C 268.539062 285.015625 268.328125 285.183594 268.117188 285.347656 C 267.863281 285.546875 267.609375 285.734375 267.359375 285.914062 C 267.269531 285.976562 267.179688 286.046875 267.089844 286.109375 C 266.777344 286.324219 266.472656 286.519531 266.175781 286.707031 C 266.035156 286.792969 265.898438 286.875 265.761719 286.953125 C 265.578125 287.0625 265.394531 287.167969 265.21875 287.265625 C 265.09375 287.335938 264.96875 287.40625 264.851562 287.46875 C 264.570312 287.617188 264.296875 287.757812 264.042969 287.878906 C 264.042969 287.878906 264.042969 287.878906 264.039062 287.882812 C 261.605469 289.050781 259.160156 289.726562 256.976562 290.011719 C 256.539062 290.066406 256.113281 290.109375 255.703125 290.136719 C 255.289062 290.160156 254.886719 290.171875 254.503906 290.167969 C 254.117188 290.167969 253.746094 290.148438 253.390625 290.121094 C 252.515625 290.042969 251.746094 289.890625 251.109375 289.671875 C 250.898438 289.597656 250.699219 289.515625 250.519531 289.429688 C 250.644531 289.214844 250.746094 288.988281 250.824219 288.753906 C 250.871094 288.617188 250.902344 288.480469 250.929688 288.335938 C 250.949219 288.230469 250.96875 288.125 250.976562 288.015625 L 253.65625 250.355469 L 253.859375 247.472656 C 254.246094 247.460938 254.617188 247.460938 254.984375 247.46875 C 255.109375 247.472656 255.226562 247.480469 255.347656 247.488281 C 255.589844 247.5 255.832031 247.511719 256.066406 247.535156 C 256.199219 247.546875 256.332031 247.5625 256.460938 247.578125 C 256.683594 247.601562 256.902344 247.632812 257.117188 247.667969 C 257.238281 247.6875 257.363281 247.707031 257.484375 247.726562 C 257.722656 247.769531 257.953125 247.820312 258.183594 247.875 C 258.269531 247.894531 258.359375 247.914062 258.445312 247.933594 C 258.757812 248.011719 259.0625 248.097656 259.359375 248.195312 C 259.421875 248.214844 259.480469 248.238281 259.542969 248.257812 C 259.777344 248.335938 260.007812 248.417969 260.234375 248.507812 C 260.324219 248.542969 260.414062 248.582031 260.507812 248.621094 C 260.699219 248.699219 260.886719 248.785156 261.074219 248.871094 C 261.160156 248.910156 261.25 248.953125 261.339844 248.996094 C 261.527344 249.089844 261.710938 249.1875 261.894531 249.285156 C 261.964844 249.324219 262.039062 249.363281 262.109375 249.402344 C 262.34375 249.535156 262.574219 249.671875 262.796875 249.816406 C 262.808594 249.820312 262.820312 249.828125 262.828125 249.835938 C 263.066406 249.988281 263.296875 250.144531 263.519531 250.304688 C 263.574219 250.347656 263.628906 250.390625 263.6875 250.429688 C 263.84375 250.546875 264 250.664062 264.148438 250.785156 C 264.222656 250.847656 264.296875 250.90625 264.367188 250.964844 C 264.492188 251.070312 264.617188 251.175781 264.738281 251.28125 C 264.8125 251.347656 264.890625 251.417969 264.96875 251.488281 C 265.070312 251.582031 265.171875 251.679688 265.273438 251.773438 C 265.355469 251.851562 265.4375 251.929688 265.515625 252.007812 C 265.574219 252.066406 265.625 252.125 265.683594 252.179688 C 266.183594 252.695312 266.625 253.210938 267.007812 253.707031 C 267.132812 253.867188 267.25 254.027344 267.363281 254.179688 C 267.433594 254.28125 267.503906 254.378906 267.570312 254.472656 C 267.636719 254.574219 267.703125 254.671875 267.769531 254.765625 C 267.835938 254.867188 267.902344 254.96875 267.964844 255.066406 C 267.980469 255.089844 267.992188 255.109375 268.007812 255.132812 C 268.71875 256.257812 269.074219 257.085938 269.125 257.210938 C 269.125 257.210938 269.125 257.214844 269.125 257.214844 C 269.167969 257.3125 269.21875 257.402344 269.285156 257.480469 C 269.476562 257.710938 269.761719 257.84375 270.058594 257.84375 C 270.121094 257.84375 270.1875 257.835938 270.25 257.824219 C 270.3125 257.8125 270.375 257.792969 270.433594 257.769531 C 270.5625 257.71875 270.675781 257.640625 270.769531 257.550781 C 270.816406 257.503906 270.855469 257.453125 270.894531 257.398438 C 271 257.238281 271.0625 257.046875 271.066406 256.851562 C 271.066406 256.722656 271.042969 256.589844 270.992188 256.460938 C 270.992188 256.460938 270.988281 256.460938 270.988281 256.457031 C 270.984375 256.441406 270.929688 256.316406 270.832031 256.109375 C 270.828125 256.109375 270.828125 256.105469 270.828125 256.101562 C 270.792969 256.03125 270.757812 255.957031 270.714844 255.875 C 270.710938 255.863281 270.703125 255.851562 270.699219 255.84375 C 270.660156 255.761719 270.613281 255.679688 270.566406 255.585938 C 270.554688 255.566406 270.546875 255.546875 270.535156 255.53125 C 270.488281 255.441406 270.4375 255.351562 270.386719 255.253906 C 270.371094 255.226562 270.355469 255.199219 270.339844 255.171875 C 270.285156 255.078125 270.230469 254.980469 270.171875 254.875 C 270.152344 254.84375 270.128906 254.808594 270.109375 254.773438 C 270.050781 254.671875 269.988281 254.570312 269.921875 254.464844 C 269.898438 254.421875 269.871094 254.382812 269.84375 254.339844 C 269.78125 254.238281 269.710938 254.128906 269.640625 254.023438 C 269.609375 253.972656 269.578125 253.925781 269.542969 253.875 C 269.476562 253.769531 269.402344 253.664062 269.328125 253.558594 C 269.289062 253.5 269.25 253.441406 269.207031 253.382812 C 269.140625 253.285156 269.066406 253.183594 268.992188 253.082031 C 268.941406 253.011719 268.890625 252.941406 268.835938 252.867188 C 268.777344 252.792969 268.714844 252.710938 268.65625 252.632812 C 268.03125 251.824219 267.277344 250.960938 266.375 250.121094 C 265.328125 249.152344 264.082031 248.21875 262.632812 247.445312 C 262.589844 247.421875 262.546875 247.398438 262.503906 247.378906 C 262.296875 247.269531 262.089844 247.164062 261.875 247.0625 C 261.808594 247.03125 261.742188 247.003906 261.675781 246.972656 C 261.480469 246.882812 261.28125 246.796875 261.078125 246.714844 C 260.996094 246.679688 260.914062 246.648438 260.832031 246.617188 C 260.640625 246.542969 260.441406 246.46875 260.238281 246.398438 C 260.148438 246.367188 260.058594 246.335938 259.96875 246.308594 C 259.769531 246.242188 259.566406 246.179688 259.363281 246.121094 C 259.265625 246.09375 259.164062 246.066406 259.066406 246.039062 C 258.863281 245.984375 258.65625 245.933594 258.445312 245.886719 C 258.339844 245.863281 258.238281 245.839844 258.128906 245.816406 C 257.917969 245.773438 257.699219 245.734375 257.480469 245.699219 C 257.375 245.679688 257.265625 245.660156 257.160156 245.644531 C 256.929688 245.613281 256.699219 245.585938 256.464844 245.5625 C 256.359375 245.550781 256.253906 245.535156 256.148438 245.527344 C 255.894531 245.503906 255.636719 245.488281 255.375 245.476562 C 255.28125 245.472656 255.191406 245.464844 255.097656 245.460938 C 254.746094 245.453125 254.390625 245.449219 254.023438 245.457031 C 254.019531 245.457031 254.015625 245.457031 254.007812 245.457031 L 256.175781 214.984375 C 256.195312 214.714844 256.183594 214.453125 256.144531 214.195312 C 256.042969 213.503906 255.734375 212.859375 255.242188 212.328125 C 255.15625 212.234375 255.0625 212.144531 254.964844 212.0625 C 254.769531 211.890625 254.554688 211.746094 254.328125 211.621094 C 254.097656 211.496094 253.855469 211.390625 253.605469 211.316406 C 253.226562 211.199219 252.828125 211.136719 252.417969 211.136719 L 123.902344 211.136719 C 123.519531 211.136719 123.148438 211.195312 122.792969 211.296875 C 122.640625 211.339844 122.488281 211.386719 122.34375 211.449219 C 122.105469 211.550781 121.875 211.675781 121.660156 211.824219 C 121.449219 211.972656 121.253906 212.140625 121.074219 212.332031 C 120.488281 212.964844 120.160156 213.761719 120.132812 214.613281 C 120.132812 214.738281 120.132812 214.859375 120.144531 214.984375 L 121.121094 228.757812 L 122.316406 245.484375 C 121.871094 245.480469 121.4375 245.5 121.011719 245.523438 C 120.894531 245.53125 120.78125 245.542969 120.664062 245.550781 C 120.34375 245.578125 120.03125 245.609375 119.722656 245.652344 C 119.609375 245.664062 119.496094 245.679688 119.386719 245.695312 C 119.019531 245.75 118.660156 245.816406 118.3125 245.890625 C 118.277344 245.898438 118.242188 245.902344 118.210938 245.910156 C 117.8125 245.996094 117.425781 246.097656 117.046875 246.207031 C 116.980469 246.226562 116.917969 246.25 116.851562 246.269531 C 116.546875 246.363281 116.246094 246.460938 115.953125 246.570312 C 115.867188 246.601562 115.78125 246.632812 115.699219 246.664062 C 115.402344 246.777344 115.109375 246.898438 114.824219 247.023438 C 114.777344 247.046875 114.726562 247.066406 114.679688 247.085938 C 114.335938 247.242188 114.007812 247.402344 113.683594 247.574219 C 113.664062 247.585938 113.644531 247.597656 113.621094 247.609375 C 113.332031 247.761719 113.050781 247.921875 112.777344 248.089844 C 112.707031 248.128906 112.640625 248.171875 112.570312 248.214844 C 112.335938 248.359375 112.105469 248.511719 111.882812 248.664062 C 111.824219 248.703125 111.765625 248.742188 111.707031 248.78125 C 111.164062 249.160156 110.652344 249.554688 110.171875 249.960938 C 110.109375 250.011719 110.046875 250.066406 109.984375 250.121094 C 109.8125 250.269531 109.644531 250.417969 109.484375 250.566406 C 109.417969 250.632812 109.347656 250.695312 109.28125 250.757812 C 109.113281 250.914062 108.953125 251.074219 108.792969 251.230469 C 108.75 251.277344 108.703125 251.320312 108.660156 251.367188 C 108.472656 251.554688 108.292969 251.746094 108.121094 251.933594 C 108.046875 252.015625 107.972656 252.101562 107.898438 252.183594 C 107.804688 252.289062 107.710938 252.398438 107.621094 252.503906 C 107.535156 252.601562 107.453125 252.695312 107.375 252.792969 C 107.308594 252.875 107.242188 252.953125 107.179688 253.035156 C 107.117188 253.109375 107.050781 253.191406 106.992188 253.265625 C 106.746094 253.574219 106.535156 253.867188 106.335938 254.144531 C 106.300781 254.199219 106.261719 254.246094 106.226562 254.296875 C 106.148438 254.410156 106.070312 254.523438 106 254.628906 C 105.988281 254.644531 105.980469 254.65625 105.972656 254.671875 C 105.722656 255.046875 105.519531 255.371094 105.359375 255.640625 C 105.359375 255.644531 105.355469 255.644531 105.355469 255.648438 C 105.191406 255.925781 105.078125 256.132812 105.011719 256.257812 C 105.011719 256.261719 105.011719 256.261719 105.007812 256.265625 C 104.972656 256.332031 104.949219 256.378906 104.941406 256.390625 C 104.941406 256.394531 104.9375 256.402344 104.9375 256.402344 C 104.90625 256.464844 104.886719 256.53125 104.871094 256.59375 C 104.757812 257.050781 104.972656 257.53125 105.414062 257.742188 C 105.554688 257.808594 105.703125 257.84375 105.851562 257.84375 C 106.226562 257.84375 106.582031 257.636719 106.753906 257.273438 C 106.773438 257.238281 106.828125 257.125 106.917969 256.957031 C 106.925781 256.945312 106.929688 256.9375 106.9375 256.925781 C 106.957031 256.890625 106.980469 256.847656 107.003906 256.804688 C 107.023438 256.769531 107.042969 256.734375 107.066406 256.695312 C 107.082031 256.664062 107.105469 256.628906 107.125 256.59375 C 107.15625 256.539062 107.1875 256.484375 107.226562 256.421875 C 107.242188 256.390625 107.261719 256.359375 107.28125 256.328125 C 107.320312 256.261719 107.363281 256.195312 107.40625 256.125 C 107.433594 256.085938 107.457031 256.042969 107.484375 256 C 107.523438 255.9375 107.566406 255.875 107.609375 255.808594 C 107.648438 255.746094 107.691406 255.683594 107.734375 255.621094 C 107.761719 255.574219 107.792969 255.53125 107.824219 255.488281 C 107.875 255.40625 107.933594 255.328125 107.992188 255.242188 C 108.0625 255.144531 108.136719 255.039062 108.214844 254.933594 C 108.292969 254.824219 108.375 254.714844 108.460938 254.601562 C 108.535156 254.503906 108.613281 254.402344 108.695312 254.300781 C 108.761719 254.214844 108.832031 254.128906 108.90625 254.039062 C 108.992188 253.933594 109.082031 253.828125 109.171875 253.722656 C 109.273438 253.605469 109.375 253.484375 109.484375 253.363281 C 109.59375 253.242188 109.703125 253.121094 109.820312 253 C 109.898438 252.914062 109.984375 252.824219 110.070312 252.738281 C 110.179688 252.625 110.296875 252.507812 110.414062 252.390625 C 110.5 252.308594 110.582031 252.226562 110.671875 252.144531 C 110.84375 251.980469 111.027344 251.816406 111.214844 251.652344 C 111.304688 251.574219 111.394531 251.5 111.484375 251.421875 C 111.632812 251.300781 111.785156 251.175781 111.941406 251.054688 C 112.023438 250.988281 112.105469 250.921875 112.191406 250.855469 C 112.417969 250.6875 112.648438 250.519531 112.890625 250.355469 C 112.980469 250.296875 113.070312 250.238281 113.160156 250.175781 C 113.351562 250.054688 113.542969 249.933594 113.742188 249.8125 C 113.832031 249.761719 113.917969 249.707031 114.007812 249.652344 C 114.277344 249.5 114.558594 249.347656 114.847656 249.203125 C 114.929688 249.160156 115.015625 249.125 115.097656 249.082031 C 115.335938 248.96875 115.574219 248.863281 115.824219 248.757812 C 115.917969 248.71875 116.007812 248.679688 116.105469 248.640625 C 116.421875 248.515625 116.75 248.394531 117.089844 248.285156 C 117.160156 248.261719 117.230469 248.242188 117.300781 248.222656 C 117.589844 248.132812 117.886719 248.050781 118.1875 247.976562 C 118.289062 247.953125 118.386719 247.929688 118.488281 247.90625 C 118.859375 247.820312 119.234375 247.746094 119.625 247.6875 C 119.667969 247.679688 119.714844 247.679688 119.757812 247.671875 C 120.109375 247.621094 120.476562 247.582031 120.847656 247.554688 C 120.953125 247.546875 121.0625 247.539062 121.171875 247.53125 C 121.589844 247.507812 122.015625 247.492188 122.457031 247.5 L 125.34375 288.015625 C 125.351562 288.148438 125.371094 288.28125 125.398438 288.40625 C 125.425781 288.535156 125.460938 288.660156 125.503906 288.785156 C 125.09375 288.90625 124.679688 289.015625 124.261719 289.113281 C 123.425781 289.308594 122.574219 289.457031 121.710938 289.558594 C 121.28125 289.609375 120.847656 289.648438 120.410156 289.675781 C 118.664062 289.789062 116.886719 289.722656 115.128906 289.476562 C 114.398438 289.371094 113.675781 289.230469 112.957031 289.070312 C 112.796875 289.03125 112.632812 289 112.472656 288.960938 C 112.292969 288.917969 112.117188 288.863281 111.9375 288.816406 C 111.664062 288.742188 111.394531 288.671875 111.125 288.589844 C 111.03125 288.5625 110.941406 288.53125 110.851562 288.5 C 110.496094 288.390625 110.144531 288.277344 109.796875 288.148438 C 109.6875 288.109375 109.582031 288.0625 109.472656 288.023438 C 109.160156 287.90625 108.847656 287.785156 108.542969 287.65625 C 108.261719 287.535156 107.988281 287.40625 107.714844 287.277344 C 107.574219 287.214844 107.429688 287.152344 107.289062 287.085938 C 106.914062 286.898438 106.539062 286.703125 106.171875 286.5 C 106.132812 286.476562 106.09375 286.457031 106.054688 286.4375 C 105.648438 286.207031 105.253906 285.96875 104.863281 285.71875 C 104.859375 285.714844 104.855469 285.710938 104.851562 285.710938 C 102.332031 284.089844 100.324219 282.082031 98.890625 279.796875 C 97.8125 278.085938 97.0625 276.21875 96.664062 274.242188 C 96.53125 273.585938 96.4375 272.914062 96.382812 272.230469 C 96.347656 271.792969 96.328125 271.351562 96.316406 270.90625 C 96.25 267.800781 96.769531 264.601562 97.617188 261.511719 C 97.859375 260.628906 98.125 259.753906 98.417969 258.890625 C 98.707031 258.03125 99.015625 257.183594 99.339844 256.351562 C 99.664062 255.523438 100.003906 254.710938 100.351562 253.921875 C 100.871094 252.738281 101.414062 251.605469 101.953125 250.539062 C 102.667969 249.113281 103.386719 247.808594 104.050781 246.660156 C 104.546875 245.796875 105.019531 245.023438 105.4375 244.347656 C 105.859375 243.675781 106.230469 243.105469 106.53125 242.652344 C 107.03125 241.902344 107.339844 241.476562 107.359375 241.449219 C 107.398438 241.394531 107.429688 241.339844 107.457031 241.28125 C 107.484375 241.21875 107.507812 241.15625 107.519531 241.09375 C 107.53125 241.050781 107.695312 240.390625 107.984375 239.265625 C 108.046875 239.015625 108.117188 238.742188 108.191406 238.445312 C 108.265625 238.152344 108.347656 237.835938 108.433594 237.5 C 108.566406 237 108.707031 236.453125 108.859375 235.867188 C 108.964844 235.476562 109.070312 235.070312 109.183594 234.648438 C 109.460938 233.59375 109.769531 232.441406 110.105469 231.21875 C 110.238281 230.730469 110.375 230.230469 110.515625 229.71875 C 110.65625 229.210938 110.800781 228.691406 110.945312 228.164062 C 111.167969 227.375 111.394531 226.566406 111.628906 225.746094 C 112.019531 224.378906 112.429688 222.980469 112.847656 221.574219 C 113.269531 220.164062 113.699219 218.75 114.136719 217.355469 C 114.3125 216.796875 114.492188 216.242188 114.667969 215.691406 C 114.847656 215.140625 115.023438 214.597656 115.203125 214.058594 C 115.292969 213.789062 115.382812 213.519531 115.472656 213.253906 C 115.742188 212.457031 116.011719 211.671875 116.28125 210.914062 C 116.636719 209.898438 116.996094 208.925781 117.351562 208.003906 C 117.707031 207.082031 118.058594 206.210938 118.40625 205.40625 C 118.492188 205.207031 118.578125 205.007812 118.664062 204.816406 C 118.894531 204.300781 119.121094 203.820312 119.34375 203.371094 C 119.398438 203.261719 119.453125 203.148438 119.511719 203.042969 C 119.8125 202.449219 120.109375 201.925781 120.394531 201.480469 C 120.535156 201.261719 120.695312 201.050781 120.863281 200.84375 C 121.148438 200.496094 121.46875 200.160156 121.828125 199.832031 C 122.34375 199.367188 122.941406 198.925781 123.59375 198.5 C 123.921875 198.285156 124.257812 198.074219 124.613281 197.871094 C 125.945312 197.105469 127.472656 196.410156 129.101562 195.777344 C 130.078125 195.398438 131.09375 195.042969 132.125 194.707031 C 132.46875 194.597656 132.816406 194.488281 133.164062 194.382812 C 133.855469 194.167969 134.554688 193.964844 135.253906 193.773438 C 135.601562 193.675781 135.949219 193.582031 136.296875 193.492188 C 136.992188 193.308594 137.683594 193.136719 138.367188 192.972656 C 138.707031 192.890625 139.046875 192.8125 139.378906 192.734375 C 142.734375 191.964844 145.769531 191.429688 147.765625 191.109375 C 147.496094 191.507812 147.242188 191.929688 146.992188 192.363281 C 146.847656 192.617188 146.710938 192.875 146.574219 193.140625 C 146.4375 193.414062 146.304688 193.695312 146.175781 193.980469 C 145.867188 194.683594 145.59375 195.421875 145.375 196.199219 C 145.257812 196.609375 145.152344 197.027344 145.070312 197.457031 C 145.003906 197.804688 144.949219 198.160156 144.90625 198.523438 C 144.890625 198.660156 144.902344 198.792969 144.9375 198.921875 C 145.011719 199.171875 145.179688 199.386719 145.40625 199.515625 C 145.464844 199.546875 145.523438 199.578125 145.585938 199.597656 C 145.648438 199.617188 145.71875 199.632812 145.785156 199.640625 C 145.824219 199.640625 145.867188 199.648438 145.90625 199.648438 C 146.15625 199.648438 146.394531 199.554688 146.570312 199.394531 C 146.75 199.234375 146.875 199.011719 146.90625 198.757812 C 146.953125 198.363281 147.015625 197.980469 147.097656 197.601562 C 147.257812 196.847656 147.480469 196.128906 147.75 195.4375 C 148.15625 194.40625 148.664062 193.453125 149.222656 192.582031 C 149.597656 192.003906 149.992188 191.464844 150.390625 190.960938 C 150.992188 190.210938 151.605469 189.550781 152.175781 188.992188 C 153.125 188.0625 153.957031 187.40625 154.414062 187.070312 C 155.386719 188.050781 156.417969 189.027344 157.496094 189.992188 C 157.855469 190.3125 158.222656 190.632812 158.589844 190.949219 C 159.539062 191.761719 160.519531 192.558594 161.523438 193.339844 C 162.089844 193.777344 162.65625 194.210938 163.238281 194.636719 C 163.878906 195.109375 164.527344 195.566406 165.183594 196.015625 C 165.765625 196.414062 166.351562 196.808594 166.941406 197.191406 C 169.039062 198.546875 171.195312 199.78125 173.363281 200.855469 C 173.4375 200.890625 173.511719 200.914062 173.585938 200.929688 C 173.660156 200.949219 173.734375 200.957031 173.8125 200.957031 C 173.902344 200.957031 173.996094 200.941406 174.082031 200.917969 C 174.347656 200.84375 174.578125 200.660156 174.710938 200.398438 C 174.773438 200.273438 174.804688 200.140625 174.8125 200.011719 C 174.816406 199.945312 174.816406 199.878906 174.804688 199.816406 C 174.785156 199.667969 174.730469 199.53125 174.648438 199.40625 C 174.554688 199.257812 174.421875 199.132812 174.253906 199.054688 C 171.507812 197.695312 168.816406 196.082031 166.265625 194.324219 C 164.988281 193.445312 163.746094 192.527344 162.546875 191.585938 C 161.75 190.960938 160.96875 190.320312 160.214844 189.675781 C 159.835938 189.355469 159.464844 189.03125 159.097656 188.703125 C 158.363281 188.054688 157.652344 187.398438 156.972656 186.742188 C 155.605469 185.425781 154.351562 184.105469 153.222656 182.8125 C 152.660156 182.167969 152.128906 181.527344 151.636719 180.898438 C 151.390625 180.582031 151.152344 180.269531 150.921875 179.960938 C 148.402344 176.558594 147.007812 173.527344 147.21875 171.5 C 147.304688 170.707031 147.574219 169.609375 147.984375 168.289062 C 148.046875 168.09375 148.113281 167.886719 148.183594 167.679688 C 148.386719 167.066406 148.609375 166.417969 148.867188 165.722656 C 149.171875 164.886719 149.519531 163.992188 149.898438 163.054688 C 150.464844 161.648438 151.105469 160.132812 151.808594 158.546875 C 152.507812 156.957031 153.269531 155.292969 154.074219 153.582031 C 154.613281 152.441406 155.167969 151.28125 155.742188 150.109375 C 156.601562 148.351562 157.5 146.570312 158.414062 144.789062 C 159.027344 143.601562 159.644531 142.417969 160.269531 141.242188 C 161.207031 139.480469 162.15625 137.742188 163.101562 136.058594 C 163.730469 134.9375 164.359375 133.835938 164.984375 132.769531 C 166.851562 129.570312 168.667969 126.664062 170.316406 124.292969 C 170.835938 123.539062 171.359375 122.84375 171.882812 122.195312 C 173.457031 120.246094 175.027344 118.742188 176.539062 117.585938 C 176.792969 117.390625 177.042969 117.207031 177.289062 117.035156 C 177.785156 116.683594 178.277344 116.371094 178.753906 116.09375 C 179.234375 115.8125 179.703125 115.566406 180.160156 115.347656 C 180.390625 115.242188 180.617188 115.136719 180.835938 115.042969 C 181.28125 114.855469 181.710938 114.691406 182.128906 114.554688 C 183.167969 114.207031 184.109375 114.007812 184.917969 113.898438 C 185.242188 113.855469 185.542969 113.824219 185.824219 113.804688 C 186.101562 113.789062 186.359375 113.78125 186.589844 113.78125 C 187.394531 113.777344 187.886719 113.863281 187.96875 113.875 C 188 113.882812 188.03125 113.882812 188.066406 113.890625 C 188.070312 113.890625 188.070312 113.890625 188.074219 113.890625 C 188.085938 113.890625 188.101562 113.890625 188.113281 113.894531 C 188.125 113.894531 188.136719 113.898438 188.148438 113.898438 C 188.152344 113.898438 188.15625 113.894531 188.160156 113.894531 C 188.199219 113.894531 188.234375 113.890625 188.269531 113.882812 C 188.289062 113.882812 188.316406 113.882812 188.335938 113.882812 C 188.382812 113.875 188.558594 113.84375 188.84375 113.824219 C 188.855469 113.824219 188.867188 113.820312 188.875 113.820312 C 189.398438 113.78125 190.265625 113.769531 191.386719 113.933594 C 193.003906 114.167969 195.140625 114.769531 197.523438 116.195312 C 198 116.480469 198.484375 116.800781 198.976562 117.152344 C 199.71875 117.683594 200.472656 118.296875 201.238281 119.007812 C 201.746094 119.480469 202.261719 119.992188 202.777344 120.550781 C 203.808594 121.671875 204.84375 122.972656 205.871094 124.484375 C 207.761719 127.277344 209.875 130.792969 212.03125 134.65625 C 213.570312 137.414062 215.132812 140.351562 216.648438 143.324219 C 216.949219 143.917969 217.25 144.515625 217.550781 145.109375 C 218.148438 146.304688 218.738281 147.5 219.3125 148.6875 C 220.175781 150.46875 221.007812 152.234375 221.792969 153.953125 C 222.582031 155.671875 223.324219 157.34375 224.007812 158.9375 C 224.464844 160.003906 224.894531 161.035156 225.292969 162.019531 C 225.691406 163.007812 226.0625 163.953125 226.394531 164.847656 C 226.730469 165.738281 227.027344 166.582031 227.289062 167.363281 C 227.550781 168.140625 227.769531 168.863281 227.949219 169.511719 C 228.128906 170.164062 228.265625 170.746094 228.351562 171.25 C 228.394531 171.5 228.429688 171.734375 228.449219 171.945312 C 228.464844 172.109375 228.46875 172.28125 228.460938 172.460938 C 228.453125 172.816406 228.398438 173.199219 228.308594 173.605469 C 228.261719 173.804688 228.207031 174.015625 228.140625 174.230469 C 227.746094 175.492188 227.007812 176.9375 225.984375 178.492188 C 225.714844 178.902344 225.421875 179.324219 225.113281 179.75 C 224.054688 181.203125 222.78125 182.734375 221.324219 184.289062 C 220.515625 185.148438 219.652344 186.015625 218.742188 186.882812 C 217.832031 187.746094 216.871094 188.609375 215.871094 189.460938 C 211.539062 193.15625 206.429688 196.648438 201.113281 199.199219 C 200.925781 199.289062 200.78125 199.429688 200.683594 199.597656 C 200.617188 199.707031 200.574219 199.832031 200.554688 199.957031 C 200.535156 200.085938 200.542969 200.21875 200.574219 200.347656 C 200.589844 200.414062 200.613281 200.480469 200.644531 200.542969 C 200.730469 200.71875 200.863281 200.863281 201.023438 200.960938 C 201.105469 201.007812 201.191406 201.046875 201.28125 201.074219 C 201.367188 201.097656 201.460938 201.113281 201.554688 201.113281 C 201.625 201.113281 201.699219 201.101562 201.773438 201.085938 C 201.847656 201.070312 201.921875 201.042969 201.992188 201.011719 C 207.710938 198.261719 213.367188 194.363281 218.113281 190.195312 C 219.207031 189.234375 220.253906 188.257812 221.242188 187.277344 C 222.5625 188.292969 225.574219 190.898438 227.296875 194.648438 C 227.582031 195.273438 227.832031 195.929688 228.035156 196.613281 C 228.238281 197.300781 228.386719 198.015625 228.476562 198.757812 C 228.507812 199.015625 228.628906 199.238281 228.808594 199.398438 C 228.988281 199.558594 229.222656 199.652344 229.476562 199.652344 C 229.507812 199.652344 229.550781 199.644531 229.589844 199.644531 C 229.644531 199.636719 229.695312 199.625 229.746094 199.609375 C 229.824219 199.585938 229.902344 199.558594 229.972656 199.519531 C 230.199219 199.386719 230.367188 199.171875 230.441406 198.921875 C 230.476562 198.796875 230.492188 198.660156 230.476562 198.523438 C 230.433594 198.164062 230.378906 197.808594 230.308594 197.457031 C 230.175781 196.757812 229.996094 196.085938 229.78125 195.441406 C 229.507812 194.628906 229.171875 193.867188 228.804688 193.144531 C 228.667969 192.878906 228.53125 192.621094 228.386719 192.367188 C 228.136719 191.933594 227.878906 191.511719 227.609375 191.113281 C 230.609375 191.589844 235.945312 192.554688 241.175781 194.074219 C 241.871094 194.273438 242.566406 194.488281 243.257812 194.710938 C 244.289062 195.042969 245.300781 195.398438 246.28125 195.78125 C 247.910156 196.410156 249.433594 197.109375 250.769531 197.871094 C 251.300781 198.179688 251.804688 198.496094 252.269531 198.820312 C 252.738281 199.148438 253.167969 199.488281 253.550781 199.835938 C 253.914062 200.164062 254.234375 200.5 254.519531 200.847656 C 254.6875 201.054688 254.847656 201.265625 254.984375 201.480469 C 255.273438 201.925781 255.570312 202.453125 255.871094 203.042969 C 255.941406 203.175781 256.011719 203.316406 256.078125 203.457031 C 256.261719 203.828125 256.449219 204.222656 256.636719 204.640625 C 256.6875 204.757812 256.742188 204.875 256.796875 204.996094 C 256.941406 205.328125 257.089844 205.667969 257.234375 206.019531 C 257.410156 206.4375 257.585938 206.871094 257.761719 207.320312 C 257.886719 207.628906 258.007812 207.945312 258.128906 208.269531 C 258.453125 209.113281 258.777344 209.996094 259.101562 210.914062 C 259.191406 211.164062 259.28125 211.421875 259.371094 211.679688 C 259.730469 212.710938 260.089844 213.78125 260.445312 214.871094 C 260.535156 215.144531 260.621094 215.417969 260.710938 215.691406 C 260.890625 216.242188 261.066406 216.796875 261.242188 217.355469 C 261.503906 218.191406 261.765625 219.035156 262.023438 219.882812 C 262.449219 221.289062 262.867188 222.703125 263.273438 224.089844 C 263.351562 224.371094 263.433594 224.644531 263.511719 224.921875 C 263.75 225.75 263.984375 226.566406 264.210938 227.367188 C 264.433594 228.171875 264.652344 228.957031 264.863281 229.722656 C 264.933594 229.976562 265.003906 230.226562 265.074219 230.476562 C 265.210938 230.976562 265.34375 231.46875 265.472656 231.945312 C 265.664062 232.660156 265.851562 233.347656 266.023438 234.003906 C 266.257812 234.878906 266.472656 235.695312 266.667969 236.441406 C 266.765625 236.816406 266.855469 237.167969 266.941406 237.503906 C 267.03125 237.839844 267.113281 238.15625 267.1875 238.449219 C 267.222656 238.597656 267.261719 238.738281 267.296875 238.875 C 267.363281 239.148438 267.429688 239.398438 267.484375 239.625 C 267.542969 239.851562 267.59375 240.054688 267.640625 240.230469 C 267.683594 240.410156 267.722656 240.5625 267.753906 240.6875 C 267.816406 240.9375 267.851562 241.078125 267.855469 241.097656 C 267.882812 241.210938 267.929688 241.320312 267.996094 241.414062 C 268.027344 241.449219 268.707031 242.496094 269.667969 244.28125 Z M 187.691406 198.644531 C 187.691406 198.644531 224.878906 182.59375 225.046875 173.699219 C 225.050781 173.410156 225.015625 173.132812 224.941406 172.859375 C 224.570312 171.503906 223.410156 169.898438 221.722656 168.144531 C 221.550781 167.972656 221.378906 167.796875 221.199219 167.617188 C 220.480469 166.90625 219.679688 166.175781 218.816406 165.429688 C 218.601562 165.242188 218.378906 165.054688 218.15625 164.867188 C 217.039062 163.929688 215.824219 162.96875 214.546875 162.007812 C 214.292969 161.8125 214.035156 161.621094 213.777344 161.429688 C 212.996094 160.851562 212.195312 160.273438 211.382812 159.695312 C 210.023438 158.734375 208.628906 157.78125 207.230469 156.847656 C 206.671875 156.472656 206.109375 156.105469 205.550781 155.738281 C 204.992188 155.371094 204.433594 155.011719 203.878906 154.65625 C 203.324219 154.300781 202.773438 153.949219 202.226562 153.601562 C 201.953125 153.429688 201.679688 153.257812 201.410156 153.089844 C 194.105469 148.515625 187.945312 145.121094 187.945312 145.121094 C 187.945312 145.121094 185.496094 146.4375 181.847656 148.539062 C 181.632812 148.660156 181.414062 148.789062 181.191406 148.917969 C 179.632812 149.816406 177.886719 150.847656 176.035156 151.964844 C 175.773438 152.125 175.503906 152.285156 175.238281 152.449219 C 174.164062 153.101562 173.0625 153.78125 171.945312 154.480469 C 168.597656 156.582031 165.136719 158.867188 161.996094 161.148438 C 161.472656 161.527344 160.960938 161.90625 160.457031 162.285156 C 158.445312 163.800781 156.609375 165.300781 155.082031 166.726562 C 154.699219 167.082031 154.335938 167.433594 153.996094 167.777344 C 152.800781 168.992188 151.867188 170.136719 151.28125 171.179688 C 151.113281 171.476562 150.972656 171.765625 150.867188 172.046875 C 150.8125 172.183594 150.765625 172.324219 150.726562 172.457031 C 150.648438 172.726562 150.613281 173.007812 150.613281 173.292969 C 150.617188 173.578125 150.65625 173.875 150.734375 174.175781 C 151.078125 175.535156 152.148438 177.035156 153.722656 178.605469 C 154.074219 178.953125 154.449219 179.308594 154.847656 179.664062 C 155.242188 180.019531 155.660156 180.375 156.101562 180.734375 C 162.90625 186.308594 174.476562 192.320312 181.566406 195.769531 C 181.796875 195.878906 182.019531 195.988281 182.238281 196.09375 C 185.523438 197.679688 187.691406 198.644531 187.691406 198.644531 Z M 189.589844 271.355469 C 194.667969 270.347656 198.976562 261.964844 198.976562 255.269531 C 198.976562 252.507812 198.203125 249.960938 196.910156 247.902344 L 189.589844 247.902344 Z M 104.484375 180.894531 C 94.996094 180.894531 87.277344 173.1875 87.277344 163.71875 C 87.277344 154.242188 94.996094 146.535156 104.484375 146.535156 C 113.96875 146.535156 121.6875 154.242188 121.6875 163.71875 C 121.6875 173.1875 113.96875 180.894531 104.484375 180.894531 Z M 118.265625 168.953125 C 118.445312 168.953125 118.613281 168.878906 118.742188 168.757812 C 118.867188 168.625 118.9375 168.457031 118.9375 168.277344 C 118.929688 167.921875 118.769531 159.625 113.28125 158.625 C 112.554688 158.492188 111.855469 158.464844 111.191406 158.542969 C 111.039062 154.957031 108.078125 152.082031 104.449219 152.082031 C 100.972656 152.082031 98.101562 154.71875 97.734375 158.089844 C 90.125 159.769531 91.480469 168.308594 91.5 168.398438 C 91.554688 168.71875 91.828125 168.953125 92.15625 168.953125 Z M 118.265625 168.953125 "/><path style=" stroke:none;fill-rule:nonzero;fill:#131828;fill-opacity:0.3;" d="M 106.992188 253.265625 C 106.898438 251.085938 107.730469 246.832031 114.015625 241.925781 C 118.3125 238.574219 120.265625 233.355469 121.121094 228.757812 L 122.316406 245.484375 C 114.527344 245.429688 109.542969 250.019531 106.992188 253.265625 Z M 122.457031 247.5 C 114.582031 247.375 109.929688 252.441406 107.925781 255.335938 C 109.859375 257.019531 115.339844 263.039062 114.515625 276.609375 C 114.210938 281.570312 112.367188 285.347656 109.9375 288.203125 C 111.621094 288.800781 113.359375 289.222656 115.132812 289.476562 C 118.648438 289.964844 122.238281 289.75 125.503906 288.785156 C 125.421875 288.539062 125.363281 288.285156 125.34375 288.015625 Z M 261.625 240.09375 C 258.714844 236.007812 256.734375 229.117188 255.546875 223.84375 L 254.011719 245.457031 C 259.625 245.316406 263.652344 247.601562 266.375 250.121094 C 265.746094 247.621094 264.421875 244.015625 261.625 240.09375 Z M 261.625 276.28125 C 255.425781 259.679688 266.933594 253.605469 266.933594 253.605469 C 266.933594 253.605469 266.933594 253.605469 266.933594 253.601562 C 264.664062 250.726562 260.523438 247.21875 253.863281 247.476562 L 250.976562 288.015625 C 250.9375 288.523438 250.769531 289 250.519531 289.429688 C 251.246094 289.777344 252.226562 290.019531 253.394531 290.121094 C 256.222656 290.363281 260.144531 289.75 264.042969 287.882812 C 265.25 287.304688 266.75 286.449219 268.289062 285.222656 C 265.867188 283.925781 263.492188 281.265625 261.625 276.28125 Z M 261.625 276.28125 "/></g></svg>