<svg xmlns="http://www.w3.org/2000/svg" xmlns:xlink="http://www.w3.org/1999/xlink" width="500" zoomAndPan="magnify" viewBox="0 0 375 374.999991" height="500" preserveAspectRatio="xMidYMid meet" version="1.0"><defs><clipPath id="ece0b6e8e8"><path d="M 146 249 L 159 249 L 159 261.5 L 146 261.5 Z M 146 249 " clip-rule="nonzero"/></clipPath><clipPath id="235d80fd30"><path d="M 263 173 L 275.511719 173 L 275.511719 185 L 263 185 Z M 263 173 " clip-rule="nonzero"/></clipPath><clipPath id="63b8f7ff33"><path d="M 243 249 L 256 249 L 256 261.5 L 243 261.5 Z M 243 249 " clip-rule="nonzero"/></clipPath></defs><path fill="#0097ab" d="M 197.078125 161.035156 L 197.078125 138.855469 C 197.078125 134.980469 194.871094 131.40625 191.355469 129.78125 C 191.230469 129.71875 191.101562 129.664062 190.976562 129.617188 C 184.007812 126.890625 175.277344 129.953125 171.523438 136.433594 C 167.769531 142.910156 169.460938 152.027344 175.285156 156.730469 L 175.40625 156.824219 C 174.871094 156.808594 174.578125 156.800781 174.578125 156.800781 C 173.625 156.777344 172.675781 156.824219 171.730469 156.945312 C 169.695312 157.210938 163.15625 158.109375 159.269531 163.84375 C 156.511719 167.917969 155.921875 173.429688 157.929688 177.921875 C 159.640625 181.730469 163 184.570312 166.773438 186.394531 L 164.820312 186.386719 C 159.742188 186.371094 155.015625 191.695312 154.871094 196.78125 C 154.722656 201.867188 159.117188 206.648438 164.183594 206.925781 C 165.691406 207.007812 167.203125 206.746094 168.703125 206.894531 C 170.207031 207.039062 171.792969 207.726562 172.414062 209.109375 C 172.941406 210.273438 172.65625 211.621094 172.527344 212.890625 C 172.074219 217.308594 173.71875 221.894531 176.878906 225.011719 C 177.476562 225.601562 182.394531 230.617188 189.039062 229.1875 C 190.261719 228.925781 191.390625 228.445312 192.433594 227.753906 C 195.355469 225.828125 197.066406 222.511719 197.066406 219.003906 Z M 197.078125 161.035156 " fill-opacity="1" fill-rule="nonzero"/><path fill="#000000" d="M 186.644531 230.785156 C 184.476562 230.785156 182.3125 230.222656 180.1875 229.097656 C 178.628906 228.273438 177.226562 227.238281 175.980469 225.996094 L 175.945312 225.964844 C 175.089844 225.105469 174.335938 224.164062 173.6875 223.140625 C 173.035156 222.117188 172.507812 221.03125 172.097656 219.890625 C 171.6875 218.746094 171.40625 217.574219 171.253906 216.371094 C 171.105469 215.164062 171.085938 213.957031 171.203125 212.75 C 171.226562 212.542969 171.25 212.335938 171.269531 212.132812 C 171.382812 211.195312 171.492188 210.300781 171.203125 209.65625 C 170.796875 208.753906 169.582031 208.328125 168.582031 208.230469 C 167.867188 208.164062 167.121094 208.195312 166.328125 208.234375 C 165.617188 208.273438 164.878906 208.308594 164.117188 208.269531 C 158.3125 207.949219 153.367188 202.5625 153.535156 196.742188 C 153.613281 193.953125 154.886719 191.042969 157.019531 188.753906 C 158.59375 187.066406 160.496094 185.894531 162.453125 185.363281 C 161.832031 184.90625 161.234375 184.414062 160.667969 183.886719 C 158.929688 182.277344 157.597656 180.457031 156.707031 178.472656 C 154.539062 173.632812 155.105469 167.597656 158.160156 163.089844 C 159.964844 160.421875 162.496094 158.40625 165.679688 157.101562 C 168.265625 156.039062 170.570312 155.742188 171.550781 155.617188 C 171.761719 155.589844 171.972656 155.566406 172.1875 155.542969 C 170.335938 153.304688 169.054688 150.535156 168.492188 147.492188 C 167.71875 143.339844 168.382812 139.171875 170.359375 135.757812 C 172.335938 132.347656 175.613281 129.699219 179.597656 128.304688 C 183.578125 126.90625 187.792969 126.929688 191.457031 128.371094 C 191.601562 128.425781 191.75 128.492188 191.910156 128.566406 C 195.859375 130.390625 198.410156 134.433594 198.410156 138.859375 L 198.410156 219.003906 C 198.410156 223.019531 196.449219 226.710938 193.171875 228.871094 C 191.992188 229.65625 190.707031 230.199219 189.324219 230.496094 C 188.441406 230.6875 187.546875 230.785156 186.644531 230.785156 Z M 167.691406 205.503906 C 168.070312 205.503906 168.453125 205.519531 168.84375 205.558594 C 171.105469 205.78125 172.898438 206.898438 173.644531 208.550781 C 174.242188 209.878906 174.078125 211.246094 173.933594 212.453125 C 173.910156 212.65625 173.886719 212.839844 173.867188 213.023438 C 173.457031 217.011719 174.976562 221.238281 177.824219 224.050781 L 177.863281 224.085938 C 179.390625 225.601562 183.511719 229 188.765625 227.871094 C 189.824219 227.640625 190.800781 227.230469 191.703125 226.628906 C 194.226562 224.964844 195.734375 222.113281 195.734375 219.003906 L 195.734375 138.855469 C 195.734375 135.472656 193.792969 132.386719 190.792969 131 C 190.683594 130.949219 190.582031 130.902344 190.488281 130.863281 C 184.105469 128.367188 176.117188 131.164062 172.679688 137.101562 C 169.246094 143.039062 170.789062 151.375 176.125 155.679688 C 176.160156 155.710938 176.195312 155.738281 176.234375 155.769531 L 179.40625 158.277344 L 175.367188 158.164062 L 174.539062 158.140625 C 173.65625 158.117188 172.777344 158.164062 171.898438 158.277344 C 166.632812 158.957031 162.757812 161.082031 160.378906 164.59375 C 157.835938 168.347656 157.355469 173.363281 159.15625 177.371094 C 160.980469 181.433594 164.625 183.859375 167.363281 185.183594 L 172.691406 187.757812 L 166.773438 187.734375 L 164.820312 187.726562 L 164.800781 187.726562 C 162.796875 187.726562 160.675781 188.769531 158.980469 190.585938 C 157.308594 192.375 156.277344 194.707031 156.214844 196.816406 C 156.089844 201.167969 159.925781 205.347656 164.265625 205.585938 C 164.882812 205.617188 165.519531 205.585938 166.191406 205.550781 C 166.683594 205.53125 167.183594 205.503906 167.691406 205.503906 Z M 167.691406 205.503906 " fill-opacity="1" fill-rule="nonzero"/><path fill="#000000" d="M 184.816406 179.078125 C 184.640625 179.078125 184.46875 179.042969 184.304688 178.976562 C 184.140625 178.90625 183.996094 178.8125 183.871094 178.683594 C 183.742188 178.558594 183.648438 178.414062 183.578125 178.25 C 183.511719 178.085938 183.476562 177.914062 183.476562 177.734375 L 183.476562 161.734375 L 174.882812 158.058594 L 149.660156 147.21875 C 149.414062 147.113281 149.21875 146.949219 149.070312 146.722656 C 148.921875 146.5 148.847656 146.253906 148.847656 145.984375 L 148.847656 124.777344 C 148.847656 124.597656 148.882812 124.425781 148.953125 124.261719 C 149.019531 124.097656 149.117188 123.953125 149.242188 123.828125 C 149.367188 123.699219 149.511719 123.605469 149.675781 123.535156 C 149.839844 123.46875 150.011719 123.433594 150.1875 123.433594 C 150.367188 123.433594 150.539062 123.46875 150.703125 123.535156 C 150.867188 123.605469 151.011719 123.699219 151.136719 123.828125 C 151.261719 123.953125 151.359375 124.097656 151.425781 124.261719 C 151.496094 124.425781 151.53125 124.597656 151.53125 124.777344 L 151.53125 145.101562 L 175.933594 155.589844 L 185.34375 159.613281 C 185.589844 159.71875 185.785156 159.886719 185.933594 160.109375 C 186.082031 160.332031 186.15625 160.582031 186.15625 160.847656 L 186.15625 177.734375 C 186.15625 177.914062 186.121094 178.085938 186.054688 178.25 C 185.988281 178.414062 185.890625 178.558594 185.765625 178.683594 C 185.640625 178.8125 185.492188 178.90625 185.328125 178.976562 C 185.164062 179.042969 184.996094 179.078125 184.816406 179.078125 Z M 184.816406 179.078125 " fill-opacity="1" fill-rule="nonzero"/><path fill="#0097ab" d="M 181.613281 188.621094 L 166.78125 186.394531 L 131.9375 179.027344 " fill-opacity="1" fill-rule="nonzero"/><path fill="#000000" d="M 181.613281 189.964844 C 181.546875 189.964844 181.480469 189.957031 181.414062 189.949219 L 166.582031 187.722656 L 166.507812 187.707031 L 131.664062 180.34375 C 131.492188 180.304688 131.332031 180.238281 131.183594 180.136719 C 131.039062 180.035156 130.914062 179.910156 130.816406 179.761719 C 130.722656 179.613281 130.65625 179.449219 130.621094 179.277344 C 130.589844 179.101562 130.59375 178.925781 130.628906 178.75 C 130.664062 178.578125 130.734375 178.417969 130.835938 178.269531 C 130.9375 178.121094 131.058594 178 131.210938 177.902344 C 131.359375 177.804688 131.519531 177.742188 131.695312 177.707031 C 131.871094 177.675781 132.046875 177.679688 132.21875 177.714844 L 167.023438 185.074219 L 181.816406 187.292969 C 181.980469 187.316406 182.140625 187.371094 182.285156 187.457031 C 182.433594 187.539062 182.558594 187.648438 182.667969 187.78125 C 182.773438 187.914062 182.851562 188.0625 182.902344 188.222656 C 182.949219 188.386719 182.96875 188.550781 182.957031 188.71875 C 182.945312 188.890625 182.902344 189.050781 182.828125 189.203125 C 182.753906 189.355469 182.65625 189.492188 182.53125 189.605469 C 182.40625 189.722656 182.265625 189.808594 182.109375 189.871094 C 181.949219 189.933594 181.785156 189.964844 181.617188 189.964844 Z M 181.613281 189.964844 " fill-opacity="1" fill-rule="nonzero"/><path fill="#000000" d="M 152.289062 252.292969 C 152.113281 252.292969 151.941406 252.257812 151.777344 252.191406 C 151.613281 252.121094 151.46875 252.023438 151.339844 251.898438 C 151.214844 251.773438 151.121094 251.628906 151.050781 251.464844 C 150.984375 251.300781 150.949219 251.128906 150.949219 250.949219 L 150.949219 229.742188 C 150.949219 229.472656 151.023438 229.226562 151.171875 229 C 151.316406 228.777344 151.515625 228.613281 151.761719 228.507812 L 176.976562 217.667969 L 185.578125 213.988281 L 185.578125 199.914062 L 172.792969 209.492188 C 172.652344 209.597656 172.496094 209.675781 172.324219 209.71875 C 172.152344 209.761719 171.976562 209.773438 171.800781 209.746094 C 171.625 209.722656 171.460938 209.664062 171.308594 209.574219 C 171.15625 209.480469 171.023438 209.367188 170.917969 209.222656 C 170.8125 209.082031 170.738281 208.921875 170.691406 208.75 C 170.648438 208.578125 170.640625 208.402344 170.664062 208.226562 C 170.6875 208.050781 170.746094 207.886719 170.835938 207.734375 C 170.929688 207.582031 171.042969 207.449219 171.1875 207.34375 L 186.109375 196.160156 C 186.3125 196.007812 186.542969 195.921875 186.796875 195.898438 C 187.046875 195.875 187.289062 195.921875 187.515625 196.035156 C 187.742188 196.148438 187.921875 196.3125 188.054688 196.53125 C 188.1875 196.746094 188.253906 196.980469 188.253906 197.234375 L 188.253906 214.875 C 188.253906 215.144531 188.179688 215.390625 188.035156 215.617188 C 187.886719 215.839844 187.6875 216.003906 187.441406 216.109375 L 178.03125 220.132812 L 153.628906 230.621094 L 153.628906 250.949219 C 153.628906 251.128906 153.59375 251.300781 153.527344 251.464844 C 153.460938 251.628906 153.363281 251.773438 153.238281 251.898438 C 153.109375 252.023438 152.964844 252.121094 152.800781 252.191406 C 152.636719 252.257812 152.46875 252.292969 152.289062 252.292969 Z M 152.289062 252.292969 " fill-opacity="1" fill-rule="nonzero"/><path fill="#e8e205" d="M 154.785156 120.167969 C 154.785156 120.46875 154.757812 120.769531 154.699219 121.066406 C 154.640625 121.363281 154.550781 121.652344 154.4375 121.929688 C 154.320312 122.210938 154.179688 122.476562 154.011719 122.726562 C 153.84375 122.976562 153.652344 123.210938 153.441406 123.425781 C 153.226562 123.636719 152.996094 123.828125 152.742188 123.996094 C 152.492188 124.164062 152.226562 124.308594 151.949219 124.421875 C 151.667969 124.539062 151.382812 124.625 151.085938 124.683594 C 150.789062 124.742188 150.492188 124.773438 150.1875 124.773438 C 149.886719 124.773438 149.589844 124.742188 149.292969 124.683594 C 148.996094 124.625 148.710938 124.539062 148.429688 124.421875 C 148.152344 124.308594 147.886719 124.164062 147.636719 123.996094 C 147.382812 123.828125 147.152344 123.636719 146.9375 123.425781 C 146.726562 123.210938 146.535156 122.976562 146.367188 122.726562 C 146.199219 122.476562 146.058594 122.210938 145.941406 121.929688 C 145.828125 121.652344 145.738281 121.363281 145.679688 121.066406 C 145.621094 120.769531 145.59375 120.46875 145.59375 120.167969 C 145.59375 119.867188 145.621094 119.566406 145.679688 119.269531 C 145.738281 118.972656 145.828125 118.683594 145.941406 118.40625 C 146.058594 118.125 146.199219 117.859375 146.367188 117.609375 C 146.535156 117.359375 146.726562 117.125 146.9375 116.910156 C 147.152344 116.699219 147.382812 116.507812 147.636719 116.339844 C 147.886719 116.171875 148.152344 116.027344 148.429688 115.914062 C 148.710938 115.796875 148.996094 115.710938 149.292969 115.652344 C 149.589844 115.59375 149.886719 115.5625 150.1875 115.5625 C 150.492188 115.5625 150.789062 115.59375 151.085938 115.652344 C 151.382812 115.710938 151.667969 115.796875 151.949219 115.914062 C 152.226562 116.027344 152.492188 116.171875 152.742188 116.339844 C 152.996094 116.507812 153.226562 116.699219 153.441406 116.910156 C 153.652344 117.125 153.84375 117.359375 154.011719 117.609375 C 154.179688 117.859375 154.320312 118.125 154.4375 118.40625 C 154.550781 118.683594 154.640625 118.972656 154.699219 119.269531 C 154.757812 119.566406 154.785156 119.867188 154.785156 120.167969 Z M 154.785156 120.167969 " fill-opacity="1" fill-rule="nonzero"/><path fill="#000000" d="M 150.1875 126.117188 C 149.800781 126.117188 149.414062 126.078125 149.03125 126 C 148.648438 125.925781 148.277344 125.8125 147.917969 125.664062 C 147.558594 125.511719 147.214844 125.328125 146.890625 125.113281 C 146.566406 124.894531 146.265625 124.648438 145.992188 124.375 C 145.714844 124.097656 145.46875 123.796875 145.253906 123.472656 C 145.035156 123.148438 144.851562 122.804688 144.703125 122.445312 C 144.554688 122.082031 144.441406 121.710938 144.367188 121.328125 C 144.289062 120.945312 144.253906 120.558594 144.253906 120.167969 C 144.253906 119.777344 144.289062 119.390625 144.367188 119.007812 C 144.441406 118.625 144.554688 118.253906 144.703125 117.890625 C 144.851562 117.53125 145.035156 117.1875 145.253906 116.863281 C 145.46875 116.539062 145.714844 116.238281 145.992188 115.960938 C 146.265625 115.6875 146.566406 115.441406 146.890625 115.222656 C 147.214844 115.007812 147.558594 114.824219 147.917969 114.671875 C 148.277344 114.523438 148.648438 114.410156 149.03125 114.335938 C 149.414062 114.257812 149.800781 114.21875 150.1875 114.21875 C 150.578125 114.21875 150.964844 114.257812 151.347656 114.335938 C 151.730469 114.410156 152.101562 114.523438 152.460938 114.671875 C 152.820312 114.824219 153.164062 115.007812 153.488281 115.222656 C 153.8125 115.441406 154.113281 115.6875 154.386719 115.960938 C 154.664062 116.238281 154.910156 116.539062 155.125 116.863281 C 155.34375 117.1875 155.523438 117.53125 155.675781 117.890625 C 155.824219 118.253906 155.9375 118.625 156.011719 119.007812 C 156.089844 119.390625 156.125 119.777344 156.125 120.167969 C 156.125 120.558594 156.085938 120.945312 156.011719 121.328125 C 155.933594 121.710938 155.820312 122.082031 155.671875 122.441406 C 155.523438 122.804688 155.339844 123.144531 155.125 123.46875 C 154.90625 123.796875 154.660156 124.09375 154.386719 124.371094 C 154.109375 124.648438 153.808594 124.894531 153.484375 125.109375 C 153.164062 125.328125 152.820312 125.511719 152.460938 125.660156 C 152.101562 125.808594 151.730469 125.921875 151.347656 126 C 150.964844 126.078125 150.578125 126.113281 150.1875 126.117188 Z M 150.1875 116.90625 C 149.757812 116.90625 149.34375 116.988281 148.941406 117.152344 C 148.542969 117.320312 148.191406 117.554688 147.886719 117.859375 C 147.582031 118.167969 147.34375 118.519531 147.179688 118.917969 C 147.015625 119.320312 146.933594 119.734375 146.933594 120.167969 C 146.933594 120.601562 147.015625 121.015625 147.179688 121.417969 C 147.34375 121.816406 147.582031 122.167969 147.886719 122.476562 C 148.191406 122.78125 148.542969 123.015625 148.941406 123.183594 C 149.34375 123.347656 149.757812 123.429688 150.1875 123.429688 C 150.621094 123.429688 151.035156 123.347656 151.4375 123.183594 C 151.835938 123.015625 152.1875 122.78125 152.492188 122.476562 C 152.796875 122.167969 153.03125 121.816406 153.199219 121.417969 C 153.363281 121.015625 153.445312 120.601562 153.445312 120.167969 C 153.445312 119.734375 153.363281 119.320312 153.199219 118.921875 C 153.03125 118.519531 152.796875 118.167969 152.492188 117.863281 C 152.1875 117.554688 151.832031 117.320312 151.433594 117.15625 C 151.035156 116.988281 150.621094 116.90625 150.1875 116.90625 Z M 150.1875 116.90625 " fill-opacity="1" fill-rule="nonzero"/><path fill="#e8e205" d="M 136.535156 179.027344 C 136.535156 179.332031 136.507812 179.628906 136.449219 179.925781 C 136.390625 180.222656 136.300781 180.511719 136.1875 180.792969 C 136.070312 181.070312 135.929688 181.335938 135.761719 181.585938 C 135.59375 181.839844 135.402344 182.070312 135.191406 182.285156 C 134.976562 182.5 134.746094 182.691406 134.492188 182.859375 C 134.242188 183.027344 133.976562 183.167969 133.699219 183.285156 C 133.417969 183.398438 133.132812 183.488281 132.835938 183.546875 C 132.539062 183.605469 132.242188 183.632812 131.9375 183.632812 C 131.636719 183.632812 131.339844 183.605469 131.042969 183.546875 C 130.746094 183.488281 130.457031 183.398438 130.179688 183.285156 C 129.902344 183.167969 129.636719 183.027344 129.386719 182.859375 C 129.132812 182.691406 128.902344 182.5 128.6875 182.285156 C 128.476562 182.070312 128.285156 181.839844 128.117188 181.585938 C 127.949219 181.335938 127.808594 181.070312 127.691406 180.792969 C 127.578125 180.511719 127.488281 180.222656 127.429688 179.925781 C 127.371094 179.628906 127.34375 179.332031 127.34375 179.027344 C 127.34375 178.726562 127.371094 178.425781 127.429688 178.128906 C 127.488281 177.835938 127.578125 177.546875 127.691406 177.265625 C 127.808594 176.988281 127.949219 176.722656 128.117188 176.46875 C 128.285156 176.21875 128.476562 175.988281 128.6875 175.773438 C 128.902344 175.558594 129.132812 175.367188 129.386719 175.199219 C 129.636719 175.03125 129.902344 174.890625 130.179688 174.773438 C 130.457031 174.660156 130.746094 174.570312 131.042969 174.511719 C 131.339844 174.453125 131.636719 174.425781 131.9375 174.425781 C 132.242188 174.425781 132.539062 174.453125 132.835938 174.511719 C 133.132812 174.570312 133.417969 174.660156 133.699219 174.773438 C 133.976562 174.890625 134.242188 175.03125 134.492188 175.199219 C 134.746094 175.367188 134.976562 175.558594 135.191406 175.773438 C 135.402344 175.988281 135.59375 176.21875 135.761719 176.46875 C 135.929688 176.722656 136.070312 176.988281 136.1875 177.265625 C 136.300781 177.546875 136.390625 177.835938 136.449219 178.128906 C 136.507812 178.425781 136.535156 178.726562 136.535156 179.027344 Z M 136.535156 179.027344 " fill-opacity="1" fill-rule="nonzero"/><path fill="#000000" d="M 131.9375 184.976562 C 131.550781 184.976562 131.164062 184.9375 130.78125 184.863281 C 130.398438 184.785156 130.027344 184.671875 129.667969 184.523438 C 129.308594 184.375 128.964844 184.191406 128.640625 183.976562 C 128.316406 183.757812 128.015625 183.511719 127.742188 183.234375 C 127.464844 182.957031 127.21875 182.660156 127.003906 182.332031 C 126.785156 182.007812 126.601562 181.667969 126.453125 181.304688 C 126.304688 180.945312 126.191406 180.574219 126.117188 180.1875 C 126.039062 179.804688 126 179.417969 126 179.027344 C 126 178.636719 126.039062 178.25 126.117188 177.867188 C 126.191406 177.484375 126.304688 177.113281 126.453125 176.753906 C 126.601562 176.390625 126.785156 176.050781 127.003906 175.722656 C 127.21875 175.398438 127.464844 175.097656 127.742188 174.824219 C 128.015625 174.546875 128.316406 174.300781 128.640625 174.082031 C 128.964844 173.867188 129.308594 173.683594 129.667969 173.535156 C 130.027344 173.382812 130.398438 173.269531 130.78125 173.195312 C 131.164062 173.117188 131.550781 173.082031 131.9375 173.082031 C 132.328125 173.082031 132.714844 173.117188 133.097656 173.195312 C 133.480469 173.269531 133.851562 173.382812 134.210938 173.535156 C 134.570312 173.683594 134.914062 173.867188 135.238281 174.082031 C 135.5625 174.300781 135.863281 174.546875 136.136719 174.824219 C 136.414062 175.097656 136.660156 175.398438 136.875 175.722656 C 137.09375 176.050781 137.277344 176.390625 137.425781 176.753906 C 137.574219 177.113281 137.6875 177.484375 137.761719 177.867188 C 137.839844 178.25 137.878906 178.636719 137.878906 179.027344 C 137.875 179.417969 137.839844 179.804688 137.761719 180.1875 C 137.683594 180.570312 137.574219 180.945312 137.421875 181.304688 C 137.273438 181.664062 137.089844 182.007812 136.875 182.332031 C 136.65625 182.65625 136.410156 182.957031 136.136719 183.234375 C 135.859375 183.507812 135.558594 183.753906 135.238281 183.972656 C 134.914062 184.191406 134.570312 184.371094 134.210938 184.523438 C 133.851562 184.671875 133.480469 184.785156 133.097656 184.863281 C 132.714844 184.9375 132.328125 184.976562 131.9375 184.976562 Z M 131.9375 175.765625 C 131.507812 175.765625 131.089844 175.847656 130.691406 176.015625 C 130.292969 176.179688 129.941406 176.417969 129.636719 176.722656 C 129.332031 177.027344 129.09375 177.382812 128.929688 177.78125 C 128.765625 178.179688 128.679688 178.597656 128.683594 179.03125 C 128.683594 179.460938 128.765625 179.878906 128.929688 180.277344 C 129.09375 180.679688 129.332031 181.03125 129.636719 181.335938 C 129.941406 181.644531 130.292969 181.878906 130.691406 182.042969 C 131.09375 182.210938 131.507812 182.292969 131.941406 182.292969 C 132.371094 182.292969 132.789062 182.210938 133.1875 182.042969 C 133.585938 181.878906 133.9375 181.644531 134.242188 181.335938 C 134.546875 181.03125 134.785156 180.679688 134.949219 180.277344 C 135.113281 179.878906 135.195312 179.460938 135.195312 179.027344 C 135.195312 178.597656 135.113281 178.179688 134.949219 177.78125 C 134.78125 177.382812 134.546875 177.027344 134.242188 176.722656 C 133.9375 176.417969 133.585938 176.179688 133.183594 176.015625 C 132.785156 175.851562 132.371094 175.765625 131.9375 175.765625 Z M 131.9375 175.765625 " fill-opacity="1" fill-rule="nonzero"/><path fill="#e8e205" d="M 156.886719 255.554688 C 156.886719 255.859375 156.855469 256.15625 156.796875 256.453125 C 156.738281 256.75 156.652344 257.039062 156.535156 257.316406 C 156.421875 257.597656 156.277344 257.863281 156.113281 258.113281 C 155.945312 258.367188 155.753906 258.597656 155.539062 258.8125 C 155.328125 259.027344 155.09375 259.21875 154.84375 259.386719 C 154.59375 259.554688 154.328125 259.695312 154.046875 259.808594 C 153.769531 259.925781 153.480469 260.011719 153.1875 260.074219 C 152.890625 260.132812 152.589844 260.160156 152.289062 260.160156 C 151.988281 260.160156 151.6875 260.132812 151.390625 260.074219 C 151.097656 260.011719 150.808594 259.925781 150.53125 259.808594 C 150.25 259.695312 149.984375 259.554688 149.734375 259.386719 C 149.484375 259.21875 149.253906 259.027344 149.039062 258.8125 C 148.824219 258.597656 148.632812 258.367188 148.46875 258.113281 C 148.300781 257.863281 148.15625 257.597656 148.042969 257.316406 C 147.925781 257.039062 147.839844 256.75 147.78125 256.453125 C 147.722656 256.15625 147.691406 255.859375 147.691406 255.554688 C 147.691406 255.253906 147.722656 254.953125 147.78125 254.65625 C 147.839844 254.359375 147.925781 254.074219 148.042969 253.792969 C 148.15625 253.515625 148.300781 253.25 148.46875 252.996094 C 148.632812 252.746094 148.824219 252.511719 149.039062 252.300781 C 149.253906 252.085938 149.484375 251.894531 149.734375 251.726562 C 149.984375 251.558594 150.25 251.417969 150.53125 251.300781 C 150.808594 251.1875 151.097656 251.097656 151.390625 251.039062 C 151.6875 250.980469 151.988281 250.949219 152.289062 250.949219 C 152.589844 250.949219 152.890625 250.980469 153.1875 251.039062 C 153.480469 251.097656 153.769531 251.1875 154.046875 251.300781 C 154.328125 251.417969 154.59375 251.558594 154.84375 251.726562 C 155.09375 251.894531 155.328125 252.085938 155.539062 252.300781 C 155.753906 252.511719 155.945312 252.746094 156.113281 252.996094 C 156.277344 253.25 156.421875 253.515625 156.535156 253.792969 C 156.652344 254.074219 156.738281 254.359375 156.796875 254.65625 C 156.855469 254.953125 156.886719 255.253906 156.886719 255.554688 Z M 156.886719 255.554688 " fill-opacity="1" fill-rule="nonzero"/><g clip-path="url(#ece0b6e8e8)"><path fill="#000000" d="M 152.289062 261.503906 C 151.898438 261.503906 151.511719 261.464844 151.128906 261.390625 C 150.75 261.3125 150.378906 261.199219 150.015625 261.050781 C 149.65625 260.902344 149.3125 260.71875 148.988281 260.5 C 148.664062 260.285156 148.367188 260.039062 148.089844 259.761719 C 147.816406 259.484375 147.570312 259.183594 147.351562 258.859375 C 147.136719 258.535156 146.953125 258.191406 146.804688 257.832031 C 146.652344 257.472656 146.542969 257.097656 146.464844 256.714844 C 146.390625 256.332031 146.351562 255.945312 146.351562 255.554688 C 146.351562 255.164062 146.390625 254.777344 146.464844 254.394531 C 146.539062 254.011719 146.652344 253.640625 146.804688 253.277344 C 146.953125 252.917969 147.136719 252.574219 147.351562 252.25 C 147.566406 251.925781 147.8125 251.625 148.089844 251.347656 C 148.367188 251.074219 148.664062 250.828125 148.988281 250.609375 C 149.3125 250.390625 149.65625 250.210938 150.015625 250.058594 C 150.375 249.910156 150.746094 249.796875 151.128906 249.722656 C 151.511719 249.644531 151.898438 249.605469 152.289062 249.605469 C 152.679688 249.605469 153.066406 249.644531 153.445312 249.722656 C 153.828125 249.796875 154.199219 249.910156 154.5625 250.058594 C 154.921875 250.210938 155.261719 250.394531 155.585938 250.609375 C 155.910156 250.828125 156.210938 251.074219 156.488281 251.347656 C 156.761719 251.625 157.007812 251.925781 157.226562 252.25 C 157.441406 252.574219 157.625 252.917969 157.773438 253.28125 C 157.921875 253.640625 158.035156 254.011719 158.113281 254.394531 C 158.1875 254.777344 158.226562 255.164062 158.226562 255.554688 C 158.226562 255.945312 158.1875 256.332031 158.109375 256.714844 C 158.035156 257.097656 157.921875 257.46875 157.773438 257.832031 C 157.625 258.191406 157.441406 258.535156 157.222656 258.859375 C 157.007812 259.183594 156.761719 259.484375 156.484375 259.757812 C 156.210938 260.035156 155.910156 260.28125 155.585938 260.5 C 155.261719 260.714844 154.921875 260.898438 154.558594 261.046875 C 154.199219 261.199219 153.828125 261.3125 153.445312 261.386719 C 153.066406 261.464844 152.679688 261.503906 152.289062 261.503906 Z M 152.289062 252.292969 C 151.855469 252.292969 151.441406 252.375 151.042969 252.539062 C 150.644531 252.707031 150.289062 252.941406 149.984375 253.246094 C 149.679688 253.554688 149.445312 253.90625 149.277344 254.304688 C 149.113281 254.707031 149.03125 255.121094 149.03125 255.554688 C 149.03125 255.988281 149.113281 256.40625 149.277344 256.804688 C 149.445312 257.203125 149.679688 257.558594 149.984375 257.863281 C 150.289062 258.167969 150.640625 258.40625 151.042969 258.570312 C 151.441406 258.738281 151.855469 258.820312 152.289062 258.820312 C 152.71875 258.820312 153.136719 258.738281 153.535156 258.570312 C 153.933594 258.40625 154.285156 258.167969 154.59375 257.863281 C 154.898438 257.558594 155.132812 257.203125 155.296875 256.804688 C 155.464844 256.40625 155.546875 255.988281 155.546875 255.554688 C 155.546875 255.125 155.460938 254.707031 155.296875 254.308594 C 155.132812 253.90625 154.898438 253.554688 154.589844 253.25 C 154.285156 252.945312 153.933594 252.707031 153.535156 252.542969 C 153.136719 252.375 152.722656 252.292969 152.289062 252.292969 Z M 152.289062 252.292969 " fill-opacity="1" fill-rule="nonzero"/></g><path fill="#0097ab" d="M 204.410156 161.035156 L 204.410156 138.855469 C 204.410156 134.980469 206.617188 131.40625 210.128906 129.78125 C 210.257812 129.71875 210.382812 129.664062 210.507812 129.617188 C 217.476562 126.890625 226.210938 129.953125 229.960938 136.433594 C 233.714844 142.910156 232.023438 152.027344 226.199219 156.730469 L 226.082031 156.824219 C 226.613281 156.808594 226.910156 156.800781 226.910156 156.800781 C 227.863281 156.777344 228.8125 156.824219 229.757812 156.945312 C 231.792969 157.210938 238.332031 158.105469 242.214844 163.84375 C 244.972656 167.917969 245.5625 173.429688 243.554688 177.921875 C 241.84375 181.730469 238.484375 184.570312 234.707031 186.394531 L 236.664062 186.386719 C 241.742188 186.371094 246.46875 191.695312 246.613281 196.78125 C 246.761719 201.867188 242.367188 206.648438 237.300781 206.925781 C 235.792969 207.007812 234.28125 206.746094 232.777344 206.894531 C 231.277344 207.039062 229.691406 207.726562 229.070312 209.109375 C 228.542969 210.273438 228.828125 211.621094 228.957031 212.890625 C 229.410156 217.308594 227.765625 221.894531 224.605469 225.011719 C 224.007812 225.601562 219.089844 230.617188 212.445312 229.1875 C 211.222656 228.925781 210.09375 228.445312 209.050781 227.753906 C 206.128906 225.828125 204.417969 222.511719 204.417969 219.003906 Z M 204.410156 161.035156 " fill-opacity="1" fill-rule="nonzero"/><path fill="#000000" d="M 214.839844 230.785156 C 213.9375 230.785156 213.039062 230.6875 212.15625 230.496094 C 210.773438 230.199219 209.488281 229.65625 208.308594 228.871094 C 205.027344 226.710938 203.070312 223.019531 203.070312 219.003906 L 203.070312 138.855469 C 203.070312 134.429688 205.621094 130.390625 209.570312 128.5625 C 209.730469 128.488281 209.878906 128.425781 210.023438 128.367188 C 213.691406 126.929688 217.90625 126.90625 221.882812 128.300781 C 225.863281 129.691406 229.144531 132.34375 231.121094 135.753906 C 233.09375 139.167969 233.761719 143.335938 232.988281 147.492188 C 232.425781 150.53125 231.144531 153.304688 229.292969 155.539062 C 229.503906 155.5625 229.71875 155.585938 229.925781 155.613281 C 230.910156 155.738281 233.214844 156.039062 235.800781 157.097656 C 238.984375 158.402344 241.515625 160.417969 243.320312 163.085938 C 246.375 167.59375 246.945312 173.632812 244.773438 178.46875 C 243.882812 180.453125 242.550781 182.273438 240.8125 183.886719 C 240.242188 184.410156 239.648438 184.902344 239.023438 185.363281 C 240.984375 185.890625 242.886719 187.0625 244.460938 188.753906 C 246.597656 191.039062 247.867188 193.953125 247.945312 196.738281 C 248.113281 202.5625 243.167969 207.949219 237.363281 208.265625 C 236.605469 208.304688 235.867188 208.269531 235.152344 208.234375 C 234.359375 208.195312 233.609375 208.15625 232.898438 208.226562 C 231.898438 208.324219 230.6875 208.75 230.277344 209.65625 C 229.988281 210.296875 230.09375 211.1875 230.210938 212.132812 C 230.234375 212.332031 230.257812 212.539062 230.277344 212.746094 C 230.394531 213.957031 230.375 215.164062 230.226562 216.367188 C 230.078125 217.574219 229.796875 218.746094 229.386719 219.890625 C 228.976562 221.03125 228.449219 222.117188 227.800781 223.140625 C 227.148438 224.167969 226.398438 225.109375 225.539062 225.96875 L 225.507812 226 C 224.257812 227.242188 222.855469 228.277344 221.300781 229.101562 C 219.171875 230.222656 217.007812 230.785156 214.839844 230.785156 Z M 215.953125 129.953125 C 214.246094 129.945312 212.59375 130.25 210.996094 130.867188 C 210.902344 130.902344 210.800781 130.949219 210.691406 131 C 207.6875 132.390625 205.75 135.476562 205.75 138.859375 L 205.75 219.003906 C 205.75 222.113281 207.257812 224.964844 209.78125 226.628906 C 210.683594 227.230469 211.660156 227.640625 212.71875 227.871094 C 213.414062 228.023438 214.117188 228.097656 214.828125 228.097656 C 219.0625 228.097656 222.304688 225.390625 223.621094 224.085938 L 223.660156 224.050781 C 226.507812 221.238281 228.027344 217.011719 227.617188 213.023438 C 227.597656 212.839844 227.574219 212.652344 227.550781 212.453125 C 227.402344 211.246094 227.238281 209.878906 227.839844 208.550781 C 228.585938 206.898438 230.378906 205.78125 232.640625 205.558594 C 233.554688 205.46875 234.4375 205.511719 235.289062 205.558594 C 235.964844 205.589844 236.601562 205.625 237.21875 205.589844 C 241.554688 205.351562 245.390625 201.171875 245.269531 196.824219 C 245.207031 194.710938 244.171875 192.378906 242.503906 190.589844 C 240.808594 188.773438 238.683594 187.730469 236.683594 187.730469 L 236.664062 187.730469 L 234.707031 187.738281 L 228.789062 187.761719 L 234.121094 185.1875 C 236.859375 183.867188 240.503906 181.4375 242.324219 177.375 C 244.125 173.367188 243.644531 168.351562 241.101562 164.597656 C 238.722656 161.085938 234.847656 158.960938 229.582031 158.28125 C 228.707031 158.167969 227.824219 158.121094 226.941406 158.144531 L 226.117188 158.167969 L 222.078125 158.28125 L 225.246094 155.773438 C 225.285156 155.746094 225.320312 155.714844 225.359375 155.6875 C 230.691406 151.378906 232.238281 143.046875 228.800781 137.105469 C 226.21875 132.640625 221.066406 129.953125 215.953125 129.953125 Z M 215.953125 129.953125 " fill-opacity="1" fill-rule="nonzero"/><path fill="#000000" d="M 216.667969 179.078125 C 216.492188 179.078125 216.320312 179.042969 216.15625 178.976562 C 215.992188 178.90625 215.847656 178.8125 215.722656 178.683594 C 215.597656 178.558594 215.5 178.414062 215.429688 178.25 C 215.363281 178.085938 215.328125 177.914062 215.328125 177.734375 L 215.328125 160.847656 C 215.328125 160.582031 215.402344 160.332031 215.550781 160.109375 C 215.699219 159.886719 215.894531 159.71875 216.144531 159.613281 L 225.554688 155.585938 L 249.957031 145.097656 L 249.957031 124.773438 C 249.957031 124.59375 249.992188 124.421875 250.058594 124.257812 C 250.125 124.09375 250.222656 123.949219 250.347656 123.824219 C 250.476562 123.699219 250.621094 123.601562 250.785156 123.53125 C 250.949219 123.464844 251.117188 123.429688 251.296875 123.429688 C 251.472656 123.429688 251.644531 123.464844 251.808594 123.53125 C 251.972656 123.601562 252.117188 123.699219 252.242188 123.824219 C 252.371094 123.949219 252.464844 124.09375 252.535156 124.257812 C 252.601562 124.421875 252.636719 124.59375 252.636719 124.773438 L 252.636719 145.984375 C 252.636719 146.25 252.5625 146.496094 252.414062 146.722656 C 252.269531 146.945312 252.070312 147.109375 251.824219 147.214844 L 226.609375 158.058594 L 218.007812 161.734375 L 218.007812 177.734375 C 218.007812 177.910156 217.976562 178.082031 217.90625 178.246094 C 217.839844 178.414062 217.742188 178.558594 217.617188 178.683594 C 217.492188 178.808594 217.347656 178.90625 217.183594 178.976562 C 217.019531 179.042969 216.847656 179.078125 216.667969 179.078125 Z M 216.667969 179.078125 " fill-opacity="1" fill-rule="nonzero"/><path fill="#0097ab" d="M 219.875 188.621094 L 234.703125 186.394531 L 269.546875 179.027344 " fill-opacity="1" fill-rule="nonzero"/><path fill="#000000" d="M 219.871094 189.964844 C 219.703125 189.964844 219.539062 189.933594 219.382812 189.871094 C 219.222656 189.808594 219.082031 189.722656 218.957031 189.605469 C 218.832031 189.492188 218.734375 189.355469 218.660156 189.203125 C 218.585938 189.050781 218.542969 188.890625 218.53125 188.71875 C 218.519531 188.550781 218.539062 188.386719 218.589844 188.222656 C 218.640625 188.0625 218.71875 187.914062 218.824219 187.78125 C 218.929688 187.648438 219.054688 187.539062 219.203125 187.457031 C 219.351562 187.371094 219.507812 187.316406 219.675781 187.292969 L 234.464844 185.074219 L 269.269531 177.714844 C 269.445312 177.679688 269.617188 177.675781 269.792969 177.710938 C 269.964844 177.742188 270.128906 177.808594 270.277344 177.90625 C 270.425781 178.003906 270.550781 178.125 270.648438 178.269531 C 270.75 178.417969 270.820312 178.578125 270.855469 178.753906 C 270.890625 178.925781 270.894531 179.101562 270.863281 179.277344 C 270.828125 179.449219 270.765625 179.613281 270.667969 179.761719 C 270.570312 179.910156 270.449219 180.035156 270.304688 180.136719 C 270.15625 180.238281 269.996094 180.304688 269.824219 180.34375 L 234.984375 187.707031 L 234.90625 187.722656 L 220.074219 189.949219 C 220.007812 189.957031 219.941406 189.964844 219.871094 189.964844 Z M 219.871094 189.964844 " fill-opacity="1" fill-rule="nonzero"/><path fill="#000000" d="M 249.195312 252.292969 C 249.019531 252.292969 248.847656 252.257812 248.683594 252.191406 C 248.519531 252.121094 248.375 252.023438 248.25 251.898438 C 248.125 251.773438 248.027344 251.628906 247.957031 251.464844 C 247.890625 251.300781 247.855469 251.128906 247.855469 250.949219 L 247.855469 230.621094 L 223.453125 220.132812 L 214.042969 216.109375 C 213.796875 216.003906 213.597656 215.839844 213.449219 215.613281 C 213.304688 215.390625 213.230469 215.144531 213.230469 214.875 L 213.230469 197.234375 C 213.230469 196.980469 213.296875 196.746094 213.429688 196.527344 C 213.5625 196.3125 213.742188 196.148438 213.96875 196.035156 C 214.195312 195.921875 214.4375 195.875 214.691406 195.898438 C 214.941406 195.921875 215.171875 196.007812 215.375 196.160156 L 230.296875 207.34375 C 230.441406 207.449219 230.554688 207.578125 230.648438 207.734375 C 230.738281 207.886719 230.796875 208.050781 230.820312 208.226562 C 230.84375 208.402344 230.835938 208.578125 230.792969 208.75 C 230.746094 208.921875 230.671875 209.078125 230.566406 209.222656 C 230.460938 209.363281 230.328125 209.480469 230.175781 209.570312 C 230.023438 209.664062 229.859375 209.71875 229.683594 209.746094 C 229.507812 209.769531 229.332031 209.761719 229.160156 209.71875 C 228.988281 209.671875 228.832031 209.597656 228.691406 209.492188 L 215.90625 199.914062 L 215.90625 213.984375 L 224.503906 217.664062 L 249.722656 228.503906 C 249.96875 228.609375 250.167969 228.777344 250.3125 229 C 250.460938 229.222656 250.535156 229.46875 250.535156 229.738281 L 250.535156 250.949219 C 250.535156 251.125 250.5 251.296875 250.433594 251.460938 C 250.367188 251.625 250.269531 251.773438 250.144531 251.898438 C 250.019531 252.023438 249.875 252.121094 249.710938 252.191406 C 249.546875 252.257812 249.375 252.292969 249.195312 252.292969 Z M 249.195312 252.292969 " fill-opacity="1" fill-rule="nonzero"/><path fill="#e8e205" d="M 255.894531 120.167969 C 255.894531 120.46875 255.863281 120.769531 255.804688 121.066406 C 255.746094 121.363281 255.660156 121.652344 255.542969 121.929688 C 255.429688 122.210938 255.285156 122.476562 255.117188 122.726562 C 254.949219 122.976562 254.761719 123.210938 254.546875 123.425781 C 254.332031 123.636719 254.101562 123.828125 253.851562 123.996094 C 253.597656 124.164062 253.335938 124.308594 253.054688 124.421875 C 252.777344 124.539062 252.488281 124.625 252.191406 124.683594 C 251.898438 124.742188 251.597656 124.773438 251.296875 124.773438 C 250.996094 124.773438 250.695312 124.742188 250.398438 124.683594 C 250.105469 124.625 249.816406 124.539062 249.539062 124.421875 C 249.257812 124.308594 248.992188 124.164062 248.742188 123.996094 C 248.492188 123.828125 248.257812 123.636719 248.046875 123.425781 C 247.832031 123.210938 247.640625 122.976562 247.472656 122.726562 C 247.304688 122.476562 247.164062 122.210938 247.050781 121.929688 C 246.933594 121.652344 246.847656 121.363281 246.789062 121.066406 C 246.730469 120.769531 246.699219 120.46875 246.699219 120.167969 C 246.699219 119.867188 246.730469 119.566406 246.789062 119.269531 C 246.847656 118.972656 246.933594 118.683594 247.050781 118.40625 C 247.164062 118.125 247.304688 117.859375 247.472656 117.609375 C 247.640625 117.359375 247.832031 117.125 248.046875 116.910156 C 248.257812 116.699219 248.492188 116.507812 248.742188 116.339844 C 248.992188 116.171875 249.257812 116.027344 249.539062 115.914062 C 249.816406 115.796875 250.105469 115.710938 250.398438 115.652344 C 250.695312 115.59375 250.996094 115.5625 251.296875 115.5625 C 251.597656 115.5625 251.898438 115.59375 252.191406 115.652344 C 252.488281 115.710938 252.777344 115.796875 253.054688 115.914062 C 253.335938 116.027344 253.597656 116.171875 253.851562 116.339844 C 254.101562 116.507812 254.332031 116.699219 254.546875 116.910156 C 254.761719 117.125 254.949219 117.359375 255.117188 117.609375 C 255.285156 117.859375 255.429688 118.125 255.542969 118.40625 C 255.660156 118.683594 255.746094 118.972656 255.804688 119.269531 C 255.863281 119.566406 255.894531 119.867188 255.894531 120.167969 Z M 255.894531 120.167969 " fill-opacity="1" fill-rule="nonzero"/><path fill="#000000" d="M 251.296875 126.117188 C 250.90625 126.117188 250.519531 126.078125 250.136719 126 C 249.757812 125.925781 249.382812 125.8125 249.023438 125.664062 C 248.664062 125.511719 248.324219 125.328125 248 125.113281 C 247.675781 124.894531 247.375 124.648438 247.097656 124.371094 C 246.824219 124.097656 246.578125 123.796875 246.359375 123.472656 C 246.144531 123.148438 245.960938 122.804688 245.8125 122.445312 C 245.664062 122.082031 245.550781 121.710938 245.472656 121.328125 C 245.398438 120.945312 245.359375 120.558594 245.359375 120.167969 C 245.359375 119.777344 245.398438 119.390625 245.472656 119.007812 C 245.550781 118.625 245.664062 118.253906 245.8125 117.890625 C 245.960938 117.53125 246.144531 117.1875 246.359375 116.863281 C 246.578125 116.539062 246.824219 116.238281 247.097656 115.960938 C 247.375 115.6875 247.675781 115.441406 248 115.222656 C 248.324219 115.003906 248.664062 114.824219 249.027344 114.671875 C 249.386719 114.523438 249.757812 114.410156 250.140625 114.335938 C 250.523438 114.257812 250.90625 114.21875 251.296875 114.21875 C 251.6875 114.21875 252.074219 114.257812 252.457031 114.335938 C 252.839844 114.410156 253.210938 114.523438 253.570312 114.671875 C 253.929688 114.824219 254.273438 115.007812 254.597656 115.222656 C 254.917969 115.441406 255.21875 115.6875 255.496094 115.960938 C 255.769531 116.238281 256.015625 116.539062 256.234375 116.863281 C 256.449219 117.1875 256.632812 117.53125 256.78125 117.890625 C 256.929688 118.253906 257.042969 118.625 257.121094 119.007812 C 257.195312 119.390625 257.234375 119.777344 257.234375 120.167969 C 257.234375 120.558594 257.195312 120.945312 257.117188 121.328125 C 257.042969 121.710938 256.929688 122.082031 256.78125 122.441406 C 256.632812 122.804688 256.449219 123.144531 256.230469 123.472656 C 256.015625 123.796875 255.769531 124.09375 255.492188 124.371094 C 255.21875 124.648438 254.917969 124.894531 254.59375 125.109375 C 254.269531 125.328125 253.929688 125.511719 253.566406 125.660156 C 253.207031 125.8125 252.835938 125.921875 252.453125 126 C 252.070312 126.078125 251.6875 126.113281 251.296875 126.117188 Z M 251.296875 116.90625 C 250.863281 116.90625 250.449219 116.988281 250.050781 117.152344 C 249.652344 117.320312 249.300781 117.554688 248.992188 117.859375 C 248.6875 118.167969 248.453125 118.519531 248.289062 118.917969 C 248.121094 119.320312 248.039062 119.734375 248.039062 120.167969 C 248.039062 120.601562 248.121094 121.015625 248.289062 121.417969 C 248.453125 121.816406 248.6875 122.167969 248.996094 122.476562 C 249.300781 122.78125 249.652344 123.015625 250.050781 123.183594 C 250.449219 123.347656 250.867188 123.429688 251.296875 123.429688 C 251.730469 123.429688 252.144531 123.347656 252.542969 123.183594 C 252.941406 123.015625 253.296875 122.78125 253.601562 122.476562 C 253.90625 122.167969 254.140625 121.816406 254.304688 121.417969 C 254.472656 121.015625 254.554688 120.601562 254.554688 120.167969 C 254.554688 119.734375 254.472656 119.320312 254.304688 118.917969 C 254.140625 118.519531 253.90625 118.167969 253.597656 117.863281 C 253.292969 117.554688 252.941406 117.320312 252.542969 117.15625 C 252.144531 116.988281 251.726562 116.90625 251.296875 116.90625 Z M 251.296875 116.90625 " fill-opacity="1" fill-rule="nonzero"/><path fill="#e8e205" d="M 274.144531 179.027344 C 274.144531 179.332031 274.113281 179.628906 274.054688 179.925781 C 273.996094 180.222656 273.910156 180.511719 273.792969 180.792969 C 273.679688 181.070312 273.535156 181.335938 273.367188 181.585938 C 273.203125 181.839844 273.011719 182.070312 272.796875 182.285156 C 272.582031 182.5 272.351562 182.691406 272.101562 182.859375 C 271.847656 183.027344 271.585938 183.167969 271.304688 183.285156 C 271.027344 183.398438 270.738281 183.488281 270.445312 183.546875 C 270.148438 183.605469 269.847656 183.632812 269.546875 183.632812 C 269.246094 183.632812 268.945312 183.605469 268.648438 183.546875 C 268.355469 183.488281 268.066406 183.398438 267.789062 183.285156 C 267.507812 183.167969 267.242188 183.027344 266.992188 182.859375 C 266.742188 182.691406 266.507812 182.5 266.296875 182.285156 C 266.082031 182.070312 265.890625 181.839844 265.722656 181.585938 C 265.554688 181.335938 265.414062 181.070312 265.300781 180.792969 C 265.183594 180.511719 265.097656 180.222656 265.039062 179.925781 C 264.980469 179.628906 264.949219 179.332031 264.949219 179.027344 C 264.949219 178.726562 264.980469 178.425781 265.039062 178.128906 C 265.097656 177.835938 265.183594 177.546875 265.300781 177.265625 C 265.414062 176.988281 265.554688 176.722656 265.722656 176.46875 C 265.890625 176.21875 266.082031 175.988281 266.296875 175.773438 C 266.507812 175.558594 266.742188 175.367188 266.992188 175.199219 C 267.242188 175.03125 267.507812 174.890625 267.789062 174.773438 C 268.066406 174.660156 268.355469 174.570312 268.648438 174.511719 C 268.945312 174.453125 269.246094 174.425781 269.546875 174.425781 C 269.847656 174.425781 270.148438 174.453125 270.445312 174.511719 C 270.738281 174.570312 271.027344 174.660156 271.304688 174.773438 C 271.585938 174.890625 271.847656 175.03125 272.101562 175.199219 C 272.351562 175.367188 272.582031 175.558594 272.796875 175.773438 C 273.011719 175.988281 273.203125 176.21875 273.367188 176.46875 C 273.535156 176.722656 273.679688 176.988281 273.792969 177.265625 C 273.910156 177.546875 273.996094 177.835938 274.054688 178.128906 C 274.113281 178.425781 274.144531 178.726562 274.144531 179.027344 Z M 274.144531 179.027344 " fill-opacity="1" fill-rule="nonzero"/><g clip-path="url(#235d80fd30)"><path fill="#000000" d="M 269.546875 184.976562 C 269.15625 184.976562 268.769531 184.9375 268.386719 184.863281 C 268.003906 184.785156 267.632812 184.675781 267.273438 184.523438 C 266.914062 184.375 266.570312 184.191406 266.246094 183.976562 C 265.921875 183.757812 265.625 183.511719 265.347656 183.234375 C 265.070312 182.960938 264.824219 182.660156 264.609375 182.335938 C 264.390625 182.007812 264.210938 181.667969 264.058594 181.304688 C 263.910156 180.945312 263.796875 180.574219 263.722656 180.191406 C 263.644531 179.808594 263.609375 179.421875 263.609375 179.03125 C 263.609375 178.640625 263.644531 178.253906 263.722656 177.867188 C 263.796875 177.484375 263.910156 177.113281 264.058594 176.753906 C 264.210938 176.390625 264.390625 176.050781 264.609375 175.726562 C 264.824219 175.398438 265.070312 175.097656 265.347656 174.824219 C 265.621094 174.546875 265.921875 174.300781 266.246094 174.082031 C 266.570312 173.867188 266.914062 173.683594 267.273438 173.535156 C 267.632812 173.382812 268.003906 173.269531 268.386719 173.195312 C 268.769531 173.117188 269.15625 173.082031 269.546875 173.082031 C 269.9375 173.082031 270.320312 173.117188 270.703125 173.195312 C 271.085938 173.269531 271.457031 173.382812 271.816406 173.535156 C 272.179688 173.683594 272.519531 173.867188 272.84375 174.082031 C 273.167969 174.300781 273.46875 174.546875 273.746094 174.824219 C 274.019531 175.097656 274.265625 175.398438 274.484375 175.722656 C 274.699219 176.050781 274.882812 176.390625 275.03125 176.753906 C 275.179688 177.113281 275.292969 177.484375 275.371094 177.867188 C 275.445312 178.25 275.484375 178.636719 275.484375 179.027344 C 275.484375 179.417969 275.445312 179.804688 275.367188 180.1875 C 275.292969 180.570312 275.179688 180.945312 275.03125 181.304688 C 274.878906 181.664062 274.699219 182.007812 274.480469 182.332031 C 274.265625 182.65625 274.019531 182.957031 273.742188 183.234375 C 273.46875 183.507812 273.167969 183.753906 272.84375 183.972656 C 272.519531 184.1875 272.175781 184.371094 271.816406 184.523438 C 271.457031 184.671875 271.085938 184.785156 270.703125 184.863281 C 270.324219 184.9375 269.9375 184.976562 269.546875 184.976562 Z M 269.546875 175.765625 C 269.113281 175.765625 268.699219 175.847656 268.300781 176.015625 C 267.902344 176.179688 267.546875 176.414062 267.242188 176.722656 C 266.9375 177.027344 266.703125 177.378906 266.535156 177.78125 C 266.371094 178.179688 266.289062 178.597656 266.289062 179.03125 C 266.289062 179.460938 266.371094 179.878906 266.535156 180.277344 C 266.703125 180.679688 266.9375 181.03125 267.242188 181.335938 C 267.546875 181.644531 267.898438 181.878906 268.300781 182.042969 C 268.699219 182.210938 269.113281 182.292969 269.546875 182.292969 C 269.976562 182.292969 270.394531 182.210938 270.792969 182.042969 C 271.191406 181.878906 271.542969 181.644531 271.851562 181.335938 C 272.15625 181.03125 272.390625 180.679688 272.554688 180.277344 C 272.722656 179.878906 272.804688 179.460938 272.804688 179.027344 C 272.804688 178.597656 272.71875 178.179688 272.554688 177.78125 C 272.390625 177.382812 272.152344 177.027344 271.847656 176.722656 C 271.542969 176.417969 271.191406 176.179688 270.792969 176.015625 C 270.394531 175.851562 269.976562 175.765625 269.546875 175.765625 Z M 269.546875 175.765625 " fill-opacity="1" fill-rule="nonzero"/></g><path fill="#e8e205" d="M 253.792969 255.554688 C 253.792969 255.859375 253.765625 256.15625 253.707031 256.453125 C 253.644531 256.75 253.558594 257.039062 253.445312 257.316406 C 253.328125 257.597656 253.1875 257.863281 253.019531 258.113281 C 252.851562 258.367188 252.660156 258.597656 252.445312 258.8125 C 252.234375 259.027344 252 259.21875 251.75 259.386719 C 251.5 259.554688 251.234375 259.695312 250.957031 259.808594 C 250.675781 259.925781 250.390625 260.011719 250.09375 260.074219 C 249.796875 260.132812 249.5 260.160156 249.195312 260.160156 C 248.894531 260.160156 248.597656 260.132812 248.300781 260.074219 C 248.003906 260.011719 247.714844 259.925781 247.4375 259.808594 C 247.160156 259.695312 246.894531 259.554688 246.644531 259.386719 C 246.390625 259.21875 246.160156 259.027344 245.945312 258.8125 C 245.734375 258.597656 245.542969 258.367188 245.375 258.113281 C 245.207031 257.863281 245.066406 257.597656 244.949219 257.316406 C 244.835938 257.039062 244.746094 256.75 244.6875 256.453125 C 244.628906 256.15625 244.601562 255.859375 244.601562 255.554688 C 244.601562 255.253906 244.628906 254.953125 244.6875 254.65625 C 244.746094 254.359375 244.835938 254.074219 244.949219 253.792969 C 245.066406 253.515625 245.207031 253.25 245.375 252.996094 C 245.542969 252.746094 245.734375 252.511719 245.945312 252.300781 C 246.160156 252.085938 246.390625 251.894531 246.644531 251.726562 C 246.894531 251.558594 247.160156 251.417969 247.4375 251.300781 C 247.714844 251.1875 248.003906 251.097656 248.300781 251.039062 C 248.597656 250.980469 248.894531 250.949219 249.195312 250.949219 C 249.5 250.949219 249.796875 250.980469 250.09375 251.039062 C 250.390625 251.097656 250.675781 251.1875 250.957031 251.300781 C 251.234375 251.417969 251.5 251.558594 251.75 251.726562 C 252 251.894531 252.234375 252.085938 252.445312 252.300781 C 252.660156 252.511719 252.851562 252.746094 253.019531 252.996094 C 253.1875 253.25 253.328125 253.515625 253.445312 253.792969 C 253.558594 254.074219 253.644531 254.359375 253.707031 254.65625 C 253.765625 254.953125 253.792969 255.253906 253.792969 255.554688 Z M 253.792969 255.554688 " fill-opacity="1" fill-rule="nonzero"/><g clip-path="url(#63b8f7ff33)"><path fill="#000000" d="M 249.195312 261.503906 C 248.808594 261.503906 248.421875 261.464844 248.039062 261.390625 C 247.65625 261.3125 247.285156 261.199219 246.925781 261.050781 C 246.5625 260.902344 246.222656 260.71875 245.898438 260.5 C 245.574219 260.285156 245.273438 260.039062 244.996094 259.761719 C 244.722656 259.484375 244.476562 259.183594 244.257812 258.859375 C 244.042969 258.535156 243.859375 258.191406 243.710938 257.832031 C 243.5625 257.46875 243.449219 257.097656 243.371094 256.714844 C 243.296875 256.332031 243.257812 255.945312 243.257812 255.554688 C 243.257812 255.164062 243.296875 254.777344 243.375 254.394531 C 243.449219 254.011719 243.5625 253.640625 243.710938 253.277344 C 243.859375 252.917969 244.042969 252.574219 244.261719 252.25 C 244.476562 251.925781 244.722656 251.625 245 251.347656 C 245.273438 251.074219 245.574219 250.828125 245.898438 250.609375 C 246.222656 250.390625 246.566406 250.210938 246.925781 250.058594 C 247.285156 249.910156 247.65625 249.796875 248.039062 249.722656 C 248.421875 249.644531 248.808594 249.605469 249.195312 249.605469 C 249.585938 249.605469 249.972656 249.644531 250.355469 249.722656 C 250.738281 249.796875 251.109375 249.910156 251.46875 250.058594 C 251.828125 250.210938 252.171875 250.394531 252.496094 250.609375 C 252.820312 250.828125 253.121094 251.074219 253.394531 251.351562 C 253.671875 251.625 253.917969 251.925781 254.132812 252.25 C 254.351562 252.574219 254.535156 252.917969 254.683594 253.28125 C 254.832031 253.640625 254.945312 254.011719 255.019531 254.394531 C 255.097656 254.777344 255.132812 255.164062 255.132812 255.554688 C 255.132812 255.945312 255.09375 256.332031 255.019531 256.714844 C 254.941406 257.097656 254.828125 257.46875 254.679688 257.832031 C 254.53125 258.191406 254.347656 258.535156 254.132812 258.859375 C 253.914062 259.183594 253.667969 259.484375 253.394531 259.757812 C 253.117188 260.035156 252.816406 260.28125 252.492188 260.5 C 252.167969 260.714844 251.828125 260.898438 251.46875 261.050781 C 251.109375 261.199219 250.738281 261.3125 250.355469 261.386719 C 249.972656 261.464844 249.585938 261.503906 249.195312 261.503906 Z M 249.195312 252.292969 C 248.765625 252.292969 248.347656 252.375 247.949219 252.539062 C 247.550781 252.707031 247.199219 252.941406 246.894531 253.25 C 246.585938 253.554688 246.351562 253.90625 246.1875 254.308594 C 246.023438 254.707031 245.9375 255.125 245.9375 255.554688 C 245.9375 255.988281 246.023438 256.40625 246.1875 256.804688 C 246.351562 257.203125 246.585938 257.558594 246.894531 257.863281 C 247.199219 258.167969 247.550781 258.40625 247.949219 258.570312 C 248.347656 258.738281 248.765625 258.820312 249.195312 258.820312 C 249.628906 258.820312 250.042969 258.738281 250.441406 258.570312 C 250.84375 258.40625 251.195312 258.167969 251.5 257.863281 C 251.804688 257.558594 252.042969 257.203125 252.207031 256.804688 C 252.371094 256.40625 252.453125 255.988281 252.453125 255.554688 C 252.453125 255.125 252.371094 254.707031 252.207031 254.308594 C 252.039062 253.90625 251.804688 253.554688 251.5 253.25 C 251.195312 252.945312 250.839844 252.707031 250.441406 252.542969 C 250.042969 252.375 249.628906 252.292969 249.195312 252.292969 Z M 249.195312 252.292969 " fill-opacity="1" fill-rule="nonzero"/></g></svg>