<svg xmlns="http://www.w3.org/2000/svg" xmlns:xlink="http://www.w3.org/1999/xlink" width="500" zoomAndPan="magnify" viewBox="0 0 375 374.999991" height="500" preserveAspectRatio="xMidYMid meet" version="1.2"><defs><clipPath id="e68f7f7994"><path d="M 105.054688 87.179688 L 291 87.179688 L 291 260.429688 L 105.054688 260.429688 Z M 105.054688 87.179688 "/></clipPath><clipPath id="2116c2109a"><path d="M 288.402344 117.976562 C 286.738281 117.015625 284.707031 117.078125 283.101562 118.132812 L 274.195312 123.988281 C 272.875 124.855469 272.03125 126.308594 271.9375 127.878906 L 266.527344 216.976562 L 260.738281 218.421875 L 259.976562 216.140625 C 259.609375 215.042969 258.660156 214.242188 257.515625 214.0625 L 241.476562 211.539062 L 242.683594 207.929688 L 245.542969 208.132812 C 245.664062 208.140625 245.785156 208.148438 245.90625 208.148438 C 248.527344 208.148438 250.746094 206.121094 250.933594 203.480469 L 256.792969 122.125 C 256.917969 120.375 256.140625 118.71875 254.714844 117.691406 C 253.285156 116.664062 251.460938 116.449219 249.835938 117.121094 L 241.015625 120.753906 C 239.238281 121.488281 238.050781 123.128906 237.910156 125.039062 L 232.359375 202.152344 C 232.175781 204.671875 233.902344 206.890625 236.3125 207.414062 L 235.257812 210.5625 L 198.539062 204.78125 C 198.21875 204.730469 197.890625 204.730469 197.570312 204.78125 L 160.851562 210.5625 L 159.796875 207.414062 C 162.207031 206.890625 163.933594 204.671875 163.75 202.152344 L 158.199219 125.039062 C 158.0625 123.128906 156.871094 121.488281 155.09375 120.753906 L 146.273438 117.121094 C 144.644531 116.449219 142.824219 116.664062 141.394531 117.691406 C 139.96875 118.71875 139.191406 120.375 139.316406 122.125 L 145.175781 203.480469 C 145.363281 206.121094 147.582031 208.148438 150.203125 208.148438 C 150.324219 208.148438 150.445312 208.140625 150.566406 208.132812 L 153.425781 207.929688 L 154.632812 211.539062 L 138.59375 214.0625 C 137.449219 214.242188 136.5 215.042969 136.132812 216.140625 L 135.371094 218.421875 L 129.578125 216.976562 L 124.171875 127.882812 C 124.078125 126.308594 123.234375 124.855469 121.914062 123.988281 L 113.007812 118.132812 C 111.402344 117.078125 109.371094 117.015625 107.707031 117.976562 C 106.042969 118.933594 105.078125 120.71875 105.195312 122.632812 L 111.03125 218.75 C 111.109375 220.089844 111.710938 221.320312 112.71875 222.210938 C 113.648438 223.03125 114.824219 223.472656 116.058594 223.472656 C 116.160156 223.472656 116.265625 223.46875 116.367188 223.464844 L 124.890625 222.949219 C 125.449219 222.917969 125.984375 222.789062 126.488281 222.585938 L 133.402344 224.308594 L 129.925781 234.703125 C 129.609375 235.644531 129.769531 236.683594 130.351562 237.492188 C 130.933594 238.296875 131.871094 238.773438 132.871094 238.773438 L 139.078125 238.773438 L 139.078125 241.867188 L 132.871094 241.867188 C 131.792969 241.867188 130.792969 242.425781 130.230469 243.335938 C 129.664062 244.25 129.613281 245.386719 130.09375 246.347656 L 134.804688 255.734375 C 136.257812 258.632812 139.175781 260.429688 142.425781 260.429688 L 253.683594 260.429688 C 256.933594 260.429688 259.851562 258.632812 261.304688 255.734375 L 266.015625 246.347656 C 266.496094 245.386719 266.445312 244.25 265.878906 243.335938 C 265.316406 242.425781 264.316406 241.867188 263.238281 241.867188 L 257.03125 241.867188 L 257.03125 238.773438 L 263.238281 238.773438 C 264.238281 238.773438 265.175781 238.296875 265.757812 237.492188 C 266.339844 236.683594 266.5 235.644531 266.183594 234.703125 L 262.707031 224.308594 L 269.621094 222.585938 C 270.125 222.789062 270.660156 222.917969 271.21875 222.949219 L 279.742188 223.464844 C 279.84375 223.46875 279.949219 223.472656 280.050781 223.472656 C 281.285156 223.472656 282.460938 223.03125 283.390625 222.210938 C 284.398438 221.320312 285 220.089844 285.078125 218.75 L 290.914062 122.632812 C 291.03125 120.71875 290.066406 118.933594 288.402344 117.976562 Z M 117.15625 217.21875 L 111.535156 124.574219 L 118.011719 128.832031 L 123.351562 216.84375 Z M 244.050781 126.199219 L 250.464844 123.554688 L 244.824219 201.878906 L 238.632812 201.4375 Z M 151.285156 201.878906 L 145.644531 123.554688 L 152.058594 126.199219 L 157.476562 201.4375 Z M 258.21875 248.054688 L 255.753906 252.96875 C 255.359375 253.753906 254.566406 254.242188 253.683594 254.242188 L 142.425781 254.242188 C 141.542969 254.242188 140.75 253.753906 140.355469 252.96875 L 137.890625 248.054688 Z M 145.285156 241.867188 L 145.285156 238.773438 L 250.824219 238.773438 L 250.824219 241.867188 Z M 137.175781 232.585938 L 141.425781 219.882812 L 198.054688 210.96875 L 254.683594 219.882812 L 258.933594 232.585938 Z M 278.953125 217.21875 L 272.757812 216.84375 L 278.097656 128.832031 L 284.578125 124.574219 Z M 204.261719 214.023438 L 191.847656 214.023438 C 190.132812 214.023438 188.742188 215.410156 188.742188 217.117188 L 188.742188 226.398438 C 188.742188 228.109375 190.132812 229.492188 191.847656 229.492188 L 204.261719 229.492188 C 205.976562 229.492188 207.367188 228.109375 207.367188 226.398438 L 207.367188 217.117188 C 207.367188 215.410156 205.976562 214.023438 204.261719 214.023438 Z M 201.160156 223.304688 L 194.949219 223.304688 L 194.949219 220.210938 L 201.160156 220.210938 Z M 219.78125 220.210938 L 219.78125 226.398438 C 219.78125 228.109375 218.394531 229.492188 216.679688 229.492188 C 214.964844 229.492188 213.574219 228.109375 213.574219 226.398438 L 213.574219 220.210938 C 213.574219 218.503906 214.964844 217.117188 216.679688 217.117188 C 218.394531 217.117188 219.78125 218.503906 219.78125 220.210938 Z M 229.09375 223.304688 L 229.09375 226.398438 C 229.09375 228.109375 227.707031 229.492188 225.992188 229.492188 C 224.277344 229.492188 222.886719 228.109375 222.886719 226.398438 L 222.886719 223.304688 C 222.886719 221.597656 224.277344 220.210938 225.992188 220.210938 C 227.707031 220.210938 229.09375 221.597656 229.09375 223.304688 Z M 182.535156 220.210938 L 182.535156 226.398438 C 182.535156 228.109375 181.144531 229.492188 179.429688 229.492188 C 177.714844 229.492188 176.328125 228.109375 176.328125 226.398438 L 176.328125 220.210938 C 176.328125 218.503906 177.714844 217.117188 179.429688 217.117188 C 181.144531 217.117188 182.535156 218.503906 182.535156 220.210938 Z M 173.222656 223.304688 L 173.222656 226.398438 C 173.222656 228.109375 171.832031 229.492188 170.117188 229.492188 C 168.402344 229.492188 167.015625 228.109375 167.015625 226.398438 L 167.015625 223.304688 C 167.015625 221.597656 168.402344 220.210938 170.117188 220.210938 C 171.832031 220.210938 173.222656 221.597656 173.222656 223.304688 Z M 208.082031 129.375 C 205.363281 126.105469 201.804688 124.304688 198.054688 124.304688 C 194.304688 124.304688 190.746094 126.105469 188.027344 129.375 C 186.933594 130.691406 184.976562 130.871094 183.660156 129.78125 C 182.339844 128.691406 182.15625 126.742188 183.25 125.425781 C 187.164062 120.714844 192.421875 118.117188 198.054688 118.117188 C 203.6875 118.117188 208.945312 120.714844 212.863281 125.425781 C 213.957031 126.742188 213.769531 128.691406 212.453125 129.78125 C 211.871094 130.261719 211.171875 130.492188 210.472656 130.492188 C 209.582031 130.492188 208.695312 130.113281 208.082031 129.375 Z M 198.054688 108.835938 C 189.617188 108.835938 181.644531 112.835938 175.613281 120.09375 C 174.519531 121.40625 172.5625 121.589844 171.242188 120.5 C 169.921875 119.410156 169.738281 117.460938 170.832031 116.144531 C 178.066406 107.441406 187.734375 102.648438 198.054688 102.648438 C 208.375 102.648438 218.042969 107.441406 225.277344 116.144531 C 226.371094 117.460938 226.1875 119.410156 224.867188 120.5 C 224.289062 120.980469 223.585938 121.210938 222.890625 121.210938 C 221.996094 121.210938 221.109375 120.832031 220.496094 120.09375 C 214.464844 112.835938 206.492188 108.835938 198.054688 108.835938 Z M 161.820312 108.03125 C 160.550781 106.878906 160.460938 104.921875 161.617188 103.660156 C 171.332031 93.035156 184.273438 87.179688 198.054688 87.179688 C 211.835938 87.179688 224.777344 93.035156 234.492188 103.660156 C 235.648438 104.921875 235.558594 106.878906 234.289062 108.03125 C 233.695312 108.570312 232.945312 108.835938 232.199219 108.835938 C 231.355469 108.835938 230.515625 108.496094 229.90625 107.828125 C 221.378906 98.503906 210.070312 93.367188 198.054688 93.367188 C 186.039062 93.367188 174.730469 98.503906 166.203125 107.828125 C 165.050781 109.089844 163.085938 109.179688 161.820312 108.03125 Z M 198.054688 130.492188 C 192.921875 130.492188 188.742188 134.65625 188.742188 139.773438 C 188.742188 144.894531 192.921875 149.054688 198.054688 149.054688 C 203.191406 149.054688 207.367188 144.894531 207.367188 139.773438 C 207.367188 134.65625 203.191406 130.492188 198.054688 130.492188 Z M 198.054688 142.867188 C 196.34375 142.867188 194.949219 141.480469 194.949219 139.773438 C 194.949219 138.070312 196.34375 136.679688 198.054688 136.679688 C 199.765625 136.679688 201.160156 138.070312 201.160156 139.773438 C 201.160156 141.480469 199.765625 142.867188 198.054688 142.867188 Z M 238.40625 226.398438 C 238.40625 228.109375 237.019531 229.492188 235.304688 229.492188 C 233.589844 229.492188 232.199219 228.109375 232.199219 226.398438 C 232.199219 224.691406 233.589844 223.304688 235.304688 223.304688 C 237.019531 223.304688 238.40625 224.691406 238.40625 226.398438 Z M 163.910156 226.398438 C 163.910156 228.109375 162.519531 229.492188 160.804688 229.492188 C 159.09375 229.492188 157.703125 228.109375 157.703125 226.398438 C 157.703125 224.691406 159.09375 223.304688 160.804688 223.304688 C 162.519531 223.304688 163.910156 224.691406 163.910156 226.398438 Z M 163.910156 226.398438 "/></clipPath><linearGradient x1="23.847035" gradientTransform="matrix(0.388007,0,0,0.386719,98.72513,74.806218)" y1="487.469988" x2="487.469519" gradientUnits="userSpaceOnUse" y2="23.847482" id="af944c3a84"><stop style="stop-color:#5ebce5;stop-opacity:1;" offset="0"/><stop style="stop-color:#5ebce5;stop-opacity:1;" offset="0.0625"/><stop style="stop-color:#5ebce5;stop-opacity:1;" offset="0.09375"/><stop style="stop-color:#5fbbe5;stop-opacity:1;" offset="0.0976562"/><stop style="stop-color:#60bbe5;stop-opacity:1;" offset="0.101563"/><stop style="stop-color:#60bae5;stop-opacity:1;" offset="0.105469"/><stop style="stop-color:#61b9e5;stop-opacity:1;" offset="0.109375"/><stop style="stop-color:#62b9e5;stop-opacity:1;" offset="0.113281"/><stop style="stop-color:#63b8e5;stop-opacity:1;" offset="0.117188"/><stop style="stop-color:#64b8e5;stop-opacity:1;" offset="0.121094"/><stop style="stop-color:#65b7e5;stop-opacity:1;" offset="0.125"/><stop style="stop-color:#65b6e5;stop-opacity:1;" offset="0.128906"/><stop style="stop-color:#66b6e5;stop-opacity:1;" offset="0.132812"/><stop style="stop-color:#67b5e5;stop-opacity:1;" offset="0.136719"/><stop style="stop-color:#68b4e5;stop-opacity:1;" offset="0.140625"/><stop style="stop-color:#69b4e5;stop-opacity:1;" offset="0.144531"/><stop style="stop-color:#69b3e5;stop-opacity:1;" offset="0.148438"/><stop style="stop-color:#6ab2e5;stop-opacity:1;" offset="0.152344"/><stop style="stop-color:#6bb2e5;stop-opacity:1;" offset="0.15625"/><stop style="stop-color:#6cb1e5;stop-opacity:1;" offset="0.160156"/><stop style="stop-color:#6db1e5;stop-opacity:1;" offset="0.164063"/><stop style="stop-color:#6eb0e5;stop-opacity:1;" offset="0.167969"/><stop style="stop-color:#6eafe5;stop-opacity:1;" offset="0.171875"/><stop style="stop-color:#6fafe5;stop-opacity:1;" offset="0.175781"/><stop style="stop-color:#70aee5;stop-opacity:1;" offset="0.179688"/><stop style="stop-color:#71ade5;stop-opacity:1;" offset="0.183594"/><stop style="stop-color:#72ade5;stop-opacity:1;" offset="0.1875"/><stop style="stop-color:#73ace5;stop-opacity:1;" offset="0.191406"/><stop style="stop-color:#73abe5;stop-opacity:1;" offset="0.195313"/><stop style="stop-color:#74abe5;stop-opacity:1;" offset="0.199219"/><stop style="stop-color:#75aae5;stop-opacity:1;" offset="0.203125"/><stop style="stop-color:#76aae5;stop-opacity:1;" offset="0.207031"/><stop style="stop-color:#77a9e5;stop-opacity:1;" offset="0.210938"/><stop style="stop-color:#78a8e5;stop-opacity:1;" offset="0.214844"/><stop style="stop-color:#78a8e5;stop-opacity:1;" offset="0.21875"/><stop style="stop-color:#79a7e5;stop-opacity:1;" offset="0.222656"/><stop style="stop-color:#7aa6e5;stop-opacity:1;" offset="0.226562"/><stop style="stop-color:#7ba6e5;stop-opacity:1;" offset="0.230469"/><stop style="stop-color:#7ca5e5;stop-opacity:1;" offset="0.234375"/><stop style="stop-color:#7ca4e5;stop-opacity:1;" offset="0.238281"/><stop style="stop-color:#7da4e5;stop-opacity:1;" offset="0.242188"/><stop style="stop-color:#7ea3e5;stop-opacity:1;" offset="0.246094"/><stop style="stop-color:#7fa3e5;stop-opacity:1;" offset="0.25"/><stop style="stop-color:#80a2e5;stop-opacity:1;" offset="0.253906"/><stop style="stop-color:#81a1e5;stop-opacity:1;" offset="0.257812"/><stop style="stop-color:#81a1e5;stop-opacity:1;" offset="0.261719"/><stop style="stop-color:#82a0e5;stop-opacity:1;" offset="0.265625"/><stop style="stop-color:#839fe5;stop-opacity:1;" offset="0.269531"/><stop style="stop-color:#849fe5;stop-opacity:1;" offset="0.273438"/><stop style="stop-color:#859ee5;stop-opacity:1;" offset="0.277344"/><stop style="stop-color:#869de5;stop-opacity:1;" offset="0.28125"/><stop style="stop-color:#869de5;stop-opacity:1;" offset="0.285156"/><stop style="stop-color:#879ce5;stop-opacity:1;" offset="0.289062"/><stop style="stop-color:#889ce5;stop-opacity:1;" offset="0.292969"/><stop style="stop-color:#899be5;stop-opacity:1;" offset="0.296875"/><stop style="stop-color:#8a9ae5;stop-opacity:1;" offset="0.300781"/><stop style="stop-color:#8b9ae6;stop-opacity:1;" offset="0.304688"/><stop style="stop-color:#8b99e6;stop-opacity:1;" offset="0.308594"/><stop style="stop-color:#8c98e6;stop-opacity:1;" offset="0.3125"/><stop style="stop-color:#8d98e6;stop-opacity:1;" offset="0.316406"/><stop style="stop-color:#8e97e6;stop-opacity:1;" offset="0.320312"/><stop style="stop-color:#8f96e6;stop-opacity:1;" offset="0.324219"/><stop style="stop-color:#8f96e6;stop-opacity:1;" offset="0.328125"/><stop style="stop-color:#9095e6;stop-opacity:1;" offset="0.332031"/><stop style="stop-color:#9195e6;stop-opacity:1;" offset="0.335938"/><stop style="stop-color:#9294e6;stop-opacity:1;" offset="0.339844"/><stop style="stop-color:#9393e6;stop-opacity:1;" offset="0.34375"/><stop style="stop-color:#9493e6;stop-opacity:1;" offset="0.347656"/><stop style="stop-color:#9492e6;stop-opacity:1;" offset="0.351562"/><stop style="stop-color:#9591e6;stop-opacity:1;" offset="0.355469"/><stop style="stop-color:#9691e6;stop-opacity:1;" offset="0.359375"/><stop style="stop-color:#9790e6;stop-opacity:1;" offset="0.363281"/><stop style="stop-color:#988fe6;stop-opacity:1;" offset="0.367188"/><stop style="stop-color:#998fe6;stop-opacity:1;" offset="0.371094"/><stop style="stop-color:#998ee6;stop-opacity:1;" offset="0.375"/><stop style="stop-color:#9a8de6;stop-opacity:1;" offset="0.378906"/><stop style="stop-color:#9b8de6;stop-opacity:1;" offset="0.382812"/><stop style="stop-color:#9c8ce6;stop-opacity:1;" offset="0.386719"/><stop style="stop-color:#9d8ce6;stop-opacity:1;" offset="0.390625"/><stop style="stop-color:#9d8be6;stop-opacity:1;" offset="0.394531"/><stop style="stop-color:#9e8ae6;stop-opacity:1;" offset="0.398438"/><stop style="stop-color:#9f8ae6;stop-opacity:1;" offset="0.402344"/><stop style="stop-color:#a089e6;stop-opacity:1;" offset="0.40625"/><stop style="stop-color:#a188e6;stop-opacity:1;" offset="0.410156"/><stop style="stop-color:#a288e6;stop-opacity:1;" offset="0.414063"/><stop style="stop-color:#a287e6;stop-opacity:1;" offset="0.417969"/><stop style="stop-color:#a386e6;stop-opacity:1;" offset="0.421875"/><stop style="stop-color:#a486e6;stop-opacity:1;" offset="0.425781"/><stop style="stop-color:#a585e6;stop-opacity:1;" offset="0.429688"/><stop style="stop-color:#a685e6;stop-opacity:1;" offset="0.433594"/><stop style="stop-color:#a784e6;stop-opacity:1;" offset="0.4375"/><stop style="stop-color:#a783e6;stop-opacity:1;" offset="0.441406"/><stop style="stop-color:#a883e6;stop-opacity:1;" offset="0.445312"/><stop style="stop-color:#a982e6;stop-opacity:1;" offset="0.449219"/><stop style="stop-color:#aa81e6;stop-opacity:1;" offset="0.453125"/><stop style="stop-color:#ab81e6;stop-opacity:1;" offset="0.457031"/><stop style="stop-color:#ac80e6;stop-opacity:1;" offset="0.460938"/><stop style="stop-color:#ac7fe6;stop-opacity:1;" offset="0.464844"/><stop style="stop-color:#ad7fe6;stop-opacity:1;" offset="0.46875"/><stop style="stop-color:#ae7ee6;stop-opacity:1;" offset="0.472656"/><stop style="stop-color:#af7ee6;stop-opacity:1;" offset="0.476562"/><stop style="stop-color:#b07de6;stop-opacity:1;" offset="0.480469"/><stop style="stop-color:#b07ce6;stop-opacity:1;" offset="0.484375"/><stop style="stop-color:#b17ce6;stop-opacity:1;" offset="0.488281"/><stop style="stop-color:#b27be6;stop-opacity:1;" offset="0.492188"/><stop style="stop-color:#b37ae6;stop-opacity:1;" offset="0.496094"/><stop style="stop-color:#b47ae6;stop-opacity:1;" offset="0.5"/><stop style="stop-color:#b579e6;stop-opacity:1;" offset="0.503906"/><stop style="stop-color:#b578e6;stop-opacity:1;" offset="0.507812"/><stop style="stop-color:#b678e5;stop-opacity:1;" offset="0.511719"/><stop style="stop-color:#b778e4;stop-opacity:1;" offset="0.515625"/><stop style="stop-color:#b777e3;stop-opacity:1;" offset="0.519531"/><stop style="stop-color:#b777e2;stop-opacity:1;" offset="0.523438"/><stop style="stop-color:#b877e0;stop-opacity:1;" offset="0.527344"/><stop style="stop-color:#b876df;stop-opacity:1;" offset="0.53125"/><stop style="stop-color:#b976de;stop-opacity:1;" offset="0.535156"/><stop style="stop-color:#b976dc;stop-opacity:1;" offset="0.539062"/><stop style="stop-color:#ba76db;stop-opacity:1;" offset="0.542969"/><stop style="stop-color:#ba75da;stop-opacity:1;" offset="0.546875"/><stop style="stop-color:#ba75d9;stop-opacity:1;" offset="0.550781"/><stop style="stop-color:#bb75d7;stop-opacity:1;" offset="0.554688"/><stop style="stop-color:#bb74d6;stop-opacity:1;" offset="0.558594"/><stop style="stop-color:#bc74d5;stop-opacity:1;" offset="0.5625"/><stop style="stop-color:#bc74d3;stop-opacity:1;" offset="0.566406"/><stop style="stop-color:#bd74d2;stop-opacity:1;" offset="0.570312"/><stop style="stop-color:#bd73d1;stop-opacity:1;" offset="0.574219"/><stop style="stop-color:#bd73cf;stop-opacity:1;" offset="0.578125"/><stop style="stop-color:#be73ce;stop-opacity:1;" offset="0.582031"/><stop style="stop-color:#be72cd;stop-opacity:1;" offset="0.585938"/><stop style="stop-color:#bf72cb;stop-opacity:1;" offset="0.589844"/><stop style="stop-color:#bf72ca;stop-opacity:1;" offset="0.59375"/><stop style="stop-color:#c072c9;stop-opacity:1;" offset="0.597656"/><stop style="stop-color:#c071c7;stop-opacity:1;" offset="0.601563"/><stop style="stop-color:#c171c6;stop-opacity:1;" offset="0.605469"/><stop style="stop-color:#c171c5;stop-opacity:1;" offset="0.609375"/><stop style="stop-color:#c170c4;stop-opacity:1;" offset="0.613281"/><stop style="stop-color:#c270c2;stop-opacity:1;" offset="0.617188"/><stop style="stop-color:#c270c1;stop-opacity:1;" offset="0.621094"/><stop style="stop-color:#c370c0;stop-opacity:1;" offset="0.625"/><stop style="stop-color:#c36fbe;stop-opacity:1;" offset="0.628906"/><stop style="stop-color:#c46fbd;stop-opacity:1;" offset="0.632813"/><stop style="stop-color:#c46fbc;stop-opacity:1;" offset="0.636719"/><stop style="stop-color:#c46eba;stop-opacity:1;" offset="0.640625"/><stop style="stop-color:#c56eb9;stop-opacity:1;" offset="0.644531"/><stop style="stop-color:#c56eb8;stop-opacity:1;" offset="0.648438"/><stop style="stop-color:#c66eb6;stop-opacity:1;" offset="0.652344"/><stop style="stop-color:#c66db5;stop-opacity:1;" offset="0.65625"/><stop style="stop-color:#c76db4;stop-opacity:1;" offset="0.660156"/><stop style="stop-color:#c76db3;stop-opacity:1;" offset="0.664062"/><stop style="stop-color:#c76db1;stop-opacity:1;" offset="0.667969"/><stop style="stop-color:#c86cb0;stop-opacity:1;" offset="0.671875"/><stop style="stop-color:#c86caf;stop-opacity:1;" offset="0.675781"/><stop style="stop-color:#c96cad;stop-opacity:1;" offset="0.679688"/><stop style="stop-color:#c96bac;stop-opacity:1;" offset="0.683594"/><stop style="stop-color:#ca6bab;stop-opacity:1;" offset="0.6875"/><stop style="stop-color:#ca6ba9;stop-opacity:1;" offset="0.691406"/><stop style="stop-color:#ca6ba8;stop-opacity:1;" offset="0.695312"/><stop style="stop-color:#cb6aa7;stop-opacity:1;" offset="0.699219"/><stop style="stop-color:#cb6aa5;stop-opacity:1;" offset="0.703125"/><stop style="stop-color:#cc6aa4;stop-opacity:1;" offset="0.707031"/><stop style="stop-color:#cc69a3;stop-opacity:1;" offset="0.710938"/><stop style="stop-color:#cd69a2;stop-opacity:1;" offset="0.714844"/><stop style="stop-color:#cd69a0;stop-opacity:1;" offset="0.71875"/><stop style="stop-color:#ce699f;stop-opacity:1;" offset="0.722656"/><stop style="stop-color:#ce689e;stop-opacity:1;" offset="0.726563"/><stop style="stop-color:#ce689c;stop-opacity:1;" offset="0.730469"/><stop style="stop-color:#cf689b;stop-opacity:1;" offset="0.734375"/><stop style="stop-color:#cf679a;stop-opacity:1;" offset="0.738281"/><stop style="stop-color:#d06798;stop-opacity:1;" offset="0.742188"/><stop style="stop-color:#d06797;stop-opacity:1;" offset="0.746094"/><stop style="stop-color:#d16796;stop-opacity:1;" offset="0.75"/><stop style="stop-color:#d16694;stop-opacity:1;" offset="0.753906"/><stop style="stop-color:#d16693;stop-opacity:1;" offset="0.757813"/><stop style="stop-color:#d26692;stop-opacity:1;" offset="0.761719"/><stop style="stop-color:#d26591;stop-opacity:1;" offset="0.765625"/><stop style="stop-color:#d3658f;stop-opacity:1;" offset="0.769531"/><stop style="stop-color:#d3658e;stop-opacity:1;" offset="0.773438"/><stop style="stop-color:#d4658d;stop-opacity:1;" offset="0.777344"/><stop style="stop-color:#d4648b;stop-opacity:1;" offset="0.78125"/><stop style="stop-color:#d4648a;stop-opacity:1;" offset="0.785156"/><stop style="stop-color:#d56489;stop-opacity:1;" offset="0.789062"/><stop style="stop-color:#d56387;stop-opacity:1;" offset="0.792969"/><stop style="stop-color:#d66386;stop-opacity:1;" offset="0.796875"/><stop style="stop-color:#d66385;stop-opacity:1;" offset="0.800781"/><stop style="stop-color:#d76383;stop-opacity:1;" offset="0.804688"/><stop style="stop-color:#d76282;stop-opacity:1;" offset="0.808594"/><stop style="stop-color:#d76281;stop-opacity:1;" offset="0.8125"/><stop style="stop-color:#d86280;stop-opacity:1;" offset="0.816406"/><stop style="stop-color:#d8617e;stop-opacity:1;" offset="0.820312"/><stop style="stop-color:#d9617d;stop-opacity:1;" offset="0.824219"/><stop style="stop-color:#d9617c;stop-opacity:1;" offset="0.828125"/><stop style="stop-color:#da617a;stop-opacity:1;" offset="0.832031"/><stop style="stop-color:#da6079;stop-opacity:1;" offset="0.835938"/><stop style="stop-color:#db6078;stop-opacity:1;" offset="0.839844"/><stop style="stop-color:#db6076;stop-opacity:1;" offset="0.84375"/><stop style="stop-color:#db5f75;stop-opacity:1;" offset="0.847656"/><stop style="stop-color:#dc5f74;stop-opacity:1;" offset="0.851562"/><stop style="stop-color:#dc5f72;stop-opacity:1;" offset="0.855469"/><stop style="stop-color:#dd5f71;stop-opacity:1;" offset="0.859375"/><stop style="stop-color:#dd5e70;stop-opacity:1;" offset="0.863281"/><stop style="stop-color:#de5e6f;stop-opacity:1;" offset="0.867187"/><stop style="stop-color:#de5e6d;stop-opacity:1;" offset="0.871094"/><stop style="stop-color:#de5d6c;stop-opacity:1;" offset="0.875"/><stop style="stop-color:#df5d6b;stop-opacity:1;" offset="0.878906"/><stop style="stop-color:#df5d69;stop-opacity:1;" offset="0.882812"/><stop style="stop-color:#e05d68;stop-opacity:1;" offset="0.886719"/><stop style="stop-color:#e05c67;stop-opacity:1;" offset="0.890625"/><stop style="stop-color:#e15c65;stop-opacity:1;" offset="0.894531"/><stop style="stop-color:#e15c64;stop-opacity:1;" offset="0.898438"/><stop style="stop-color:#e15b63;stop-opacity:1;" offset="0.902344"/><stop style="stop-color:#e25b61;stop-opacity:1;" offset="0.90625"/><stop style="stop-color:#e25b61;stop-opacity:1;" offset="0.9375"/><stop style="stop-color:#e25b61;stop-opacity:1;" offset="1"/></linearGradient></defs><g id="8e052452e5"><g clip-rule="nonzero" clip-path="url(#e68f7f7994)"><g clip-rule="nonzero" clip-path="url(#2116c2109a)"><path style=" stroke:none;fill-rule:nonzero;fill:url(#af944c3a84);" d="M 105.078125 87.179688 L 105.078125 260.429688 L 291.03125 260.429688 L 291.03125 87.179688 Z M 105.078125 87.179688 "/></g></g></g></svg>