<svg xmlns="http://www.w3.org/2000/svg" xmlns:xlink="http://www.w3.org/1999/xlink" width="1024" zoomAndPan="magnify" viewBox="0 0 768 576" height="768" preserveAspectRatio="xMidYMid meet" version="1.0"><path fill="#004aad" d="M 443.515625 244.039062 L 346.011719 244.039062 C 345.488281 244.039062 344.984375 244.140625 344.5 244.339844 C 344.019531 244.539062 343.59375 244.824219 343.222656 245.195312 C 342.851562 245.566406 342.566406 245.992188 342.367188 246.476562 C 342.167969 246.957031 342.066406 247.460938 342.066406 247.984375 L 342.066406 294.535156 C 342.066406 344.023438 393.753906 351.011719 394.273438 351.078125 C 394.601562 351.117188 394.925781 351.117188 395.253906 351.078125 C 395.773438 351.011719 447.460938 344.023438 447.460938 294.535156 L 447.460938 247.984375 C 447.460938 247.460938 447.363281 246.957031 447.160156 246.476562 C 446.960938 245.992188 446.675781 245.566406 446.308594 245.195312 C 445.9375 244.824219 445.511719 244.539062 445.027344 244.339844 C 444.542969 244.140625 444.039062 244.039062 443.515625 244.039062 Z M 439.570312 294.535156 C 439.570312 335.128906 399.902344 342.4375 394.765625 343.226562 C 389.597656 342.4375 349.957031 335.265625 349.957031 294.582031 L 349.957031 251.976562 L 439.570312 251.976562 Z M 439.570312 294.535156 " fill-opacity="1" fill-rule="nonzero"/><path fill="#004aad" d="M 376.726562 323.5 L 412.800781 323.5 C 413.578125 323.5 414.347656 323.425781 415.109375 323.273438 C 415.871094 323.121094 416.613281 322.898438 417.332031 322.601562 C 418.046875 322.300781 418.730469 321.9375 419.375 321.507812 C 420.023438 321.074219 420.621094 320.582031 421.167969 320.035156 C 421.71875 319.484375 422.210938 318.886719 422.640625 318.242188 C 423.074219 317.59375 423.4375 316.914062 423.734375 316.195312 C 424.03125 315.476562 424.257812 314.738281 424.410156 313.972656 C 424.558594 313.210938 424.636719 312.441406 424.636719 311.664062 L 424.636719 287.996094 C 424.636719 287.472656 424.535156 286.96875 424.335938 286.484375 C 424.136719 286.003906 423.851562 285.574219 423.480469 285.207031 C 423.109375 284.835938 422.683594 284.550781 422.199219 284.351562 C 421.71875 284.148438 421.214844 284.050781 420.691406 284.050781 L 412.589844 284.050781 L 412.589844 263.410156 C 412.589844 262.886719 412.488281 262.382812 412.289062 261.898438 C 412.085938 261.417969 411.800781 260.988281 411.433594 260.621094 C 411.0625 260.25 410.636719 259.964844 410.152344 259.765625 C 409.667969 259.566406 409.167969 259.464844 408.644531 259.464844 L 380.886719 259.464844 C 380.363281 259.464844 379.859375 259.566406 379.375 259.765625 C 378.894531 259.964844 378.464844 260.25 378.097656 260.621094 C 377.726562 260.988281 377.441406 261.417969 377.242188 261.898438 C 377.039062 262.382812 376.941406 262.886719 376.941406 263.410156 L 376.941406 284.050781 L 368.835938 284.050781 C 368.3125 284.050781 367.8125 284.148438 367.328125 284.351562 C 366.84375 284.550781 366.417969 284.835938 366.046875 285.207031 C 365.679688 285.574219 365.394531 286.003906 365.191406 286.484375 C 364.992188 286.96875 364.890625 287.472656 364.890625 287.996094 L 364.890625 311.664062 C 364.890625 312.441406 364.96875 313.210938 365.121094 313.972656 C 365.273438 314.738281 365.496094 315.476562 365.792969 316.195312 C 366.089844 316.914062 366.457031 317.59375 366.886719 318.242188 C 367.320312 318.886719 367.808594 319.484375 368.359375 320.035156 C 368.910156 320.582031 369.507812 321.074219 370.152344 321.507812 C 370.796875 321.9375 371.480469 322.300781 372.199219 322.601562 C 372.917969 322.898438 373.65625 323.121094 374.417969 323.273438 C 375.179688 323.425781 375.949219 323.5 376.726562 323.5 Z M 384.832031 267.394531 L 404.699219 267.394531 L 404.699219 284.050781 L 384.832031 284.050781 Z M 372.78125 291.941406 L 416.746094 291.941406 L 416.746094 311.664062 C 416.746094 312.1875 416.644531 312.691406 416.445312 313.175781 C 416.246094 313.660156 415.960938 314.085938 415.589844 314.457031 C 415.222656 314.824219 414.792969 315.109375 414.3125 315.308594 C 413.828125 315.511719 413.324219 315.609375 412.800781 315.609375 L 376.726562 315.609375 C 376.203125 315.609375 375.703125 315.511719 375.21875 315.308594 C 374.734375 315.109375 374.308594 314.824219 373.9375 314.457031 C 373.566406 314.085938 373.28125 313.660156 373.082031 313.175781 C 372.882812 312.691406 372.78125 312.1875 372.78125 311.664062 Z M 372.78125 291.941406 " fill-opacity="1" fill-rule="nonzero"/><path fill="#004aad" d="M 390.820312 306.230469 L 390.820312 309.691406 C 390.820312 310.214844 390.917969 310.71875 391.121094 311.203125 C 391.320312 311.6875 391.605469 312.113281 391.976562 312.484375 C 392.34375 312.851562 392.769531 313.136719 393.253906 313.335938 C 393.738281 313.539062 394.242188 313.636719 394.765625 313.636719 C 395.289062 313.636719 395.789062 313.539062 396.273438 313.335938 C 396.757812 313.136719 397.183594 312.851562 397.554688 312.484375 C 397.925781 312.113281 398.207031 311.6875 398.410156 311.203125 C 398.609375 310.71875 398.710938 310.214844 398.710938 309.691406 L 398.710938 306.230469 C 399.492188 305.636719 400.105469 304.902344 400.550781 304.023438 C 400.996094 303.148438 401.222656 302.21875 401.234375 301.234375 C 401.234375 300.808594 401.191406 300.390625 401.109375 299.972656 C 401.027344 299.554688 400.90625 299.152344 400.742188 298.757812 C 400.578125 298.367188 400.378906 297.992188 400.144531 297.640625 C 399.90625 297.289062 399.640625 296.960938 399.339844 296.660156 C 399.039062 296.359375 398.710938 296.089844 398.359375 295.855469 C 398.003906 295.621094 397.632812 295.421875 397.242188 295.257812 C 396.847656 295.09375 396.441406 294.972656 396.027344 294.890625 C 395.609375 294.804688 395.1875 294.765625 394.765625 294.765625 C 394.339844 294.765625 393.917969 294.804688 393.503906 294.890625 C 393.085938 294.972656 392.679688 295.09375 392.289062 295.257812 C 391.894531 295.421875 391.523438 295.621094 391.167969 295.855469 C 390.816406 296.089844 390.488281 296.359375 390.191406 296.660156 C 389.890625 296.960938 389.621094 297.289062 389.386719 297.640625 C 389.148438 297.992188 388.949219 298.367188 388.785156 298.757812 C 388.625 299.152344 388.5 299.554688 388.417969 299.972656 C 388.335938 300.390625 388.292969 300.808594 388.292969 301.234375 C 388.308594 302.21875 388.535156 303.148438 388.976562 304.023438 C 389.421875 304.902344 390.035156 305.636719 390.820312 306.230469 Z M 390.820312 306.230469 " fill-opacity="1" fill-rule="nonzero"/><path fill="#004aad" d="M 499.449219 336.742188 L 499.449219 298.703125 C 499.449219 298.179688 499.351562 297.675781 499.148438 297.191406 C 498.949219 296.710938 498.664062 296.28125 498.292969 295.914062 C 497.925781 295.542969 497.5 295.257812 497.015625 295.058594 C 496.53125 294.855469 496.027344 294.757812 495.503906 294.757812 L 483.1875 294.757812 C 483.355469 292.515625 483.527344 290.277344 483.527344 287.996094 C 483.519531 281.144531 482.726562 274.386719 481.140625 267.722656 C 479.558594 261.058594 477.230469 254.667969 474.15625 248.542969 L 497.621094 248.542969 C 498.144531 248.542969 498.644531 248.445312 499.128906 248.246094 C 499.613281 248.042969 500.039062 247.757812 500.410156 247.390625 C 500.777344 247.019531 501.0625 246.59375 501.265625 246.109375 C 501.464844 245.625 501.566406 245.121094 501.566406 244.601562 L 501.566406 221.71875 C 501.96875 221.566406 502.367188 221.390625 502.75 221.191406 C 503.136719 220.992188 503.507812 220.773438 503.867188 220.53125 C 504.226562 220.289062 504.574219 220.027344 504.902344 219.746094 C 505.230469 219.464844 505.542969 219.164062 505.835938 218.847656 C 506.132812 218.53125 506.40625 218.195312 506.664062 217.847656 C 506.917969 217.496094 507.152344 217.132812 507.367188 216.753906 C 507.582031 216.378906 507.773438 215.992188 507.941406 215.589844 C 508.109375 215.191406 508.253906 214.785156 508.375 214.367188 C 508.496094 213.953125 508.59375 213.53125 508.667969 213.101562 C 508.738281 212.675781 508.785156 212.246094 508.808594 211.8125 C 508.832031 211.378906 508.828125 210.949219 508.800781 210.515625 C 508.773438 210.082031 508.71875 209.652344 508.644531 209.226562 C 508.566406 208.800781 508.464844 208.378906 508.335938 207.964844 C 508.210938 207.550781 508.0625 207.144531 507.886719 206.75 C 507.714844 206.351562 507.519531 205.964844 507.300781 205.589844 C 507.082031 205.214844 506.84375 204.855469 506.582031 204.507812 C 506.324219 204.164062 506.042969 203.832031 505.746094 203.519531 C 505.445312 203.203125 505.132812 202.90625 504.796875 202.628906 C 504.464844 202.351562 504.117188 202.09375 503.753906 201.859375 C 503.394531 201.621094 503.015625 201.40625 502.628906 201.210938 C 502.242188 201.015625 501.84375 200.847656 501.4375 200.699219 C 501.03125 200.550781 500.617188 200.425781 500.195312 200.328125 C 499.773438 200.226562 499.347656 200.152344 498.914062 200.101562 C 498.484375 200.054688 498.054688 200.027344 497.621094 200.027344 C 497.1875 200.027344 496.753906 200.054688 496.324219 200.101562 C 495.894531 200.152344 495.46875 200.226562 495.046875 200.328125 C 494.625 200.425781 494.210938 200.550781 493.800781 200.699219 C 493.394531 200.847656 492.996094 201.015625 492.609375 201.210938 C 492.222656 201.40625 491.847656 201.621094 491.484375 201.859375 C 491.121094 202.09375 490.773438 202.351562 490.441406 202.628906 C 490.109375 202.90625 489.792969 203.203125 489.496094 203.519531 C 489.195312 203.832031 488.917969 204.164062 488.65625 204.507812 C 488.398438 204.855469 488.15625 205.214844 487.9375 205.589844 C 487.722656 205.964844 487.523438 206.351562 487.351562 206.75 C 487.179688 207.144531 487.027344 207.550781 486.902344 207.964844 C 486.777344 208.378906 486.675781 208.800781 486.597656 209.226562 C 486.519531 209.652344 486.464844 210.082031 486.4375 210.515625 C 486.410156 210.949219 486.410156 211.378906 486.429688 211.8125 C 486.453125 212.246094 486.5 212.675781 486.574219 213.101562 C 486.644531 213.53125 486.742188 213.953125 486.863281 214.367188 C 486.984375 214.785156 487.128906 215.191406 487.296875 215.589844 C 487.46875 215.992188 487.65625 216.378906 487.871094 216.753906 C 488.085938 217.132812 488.320312 217.496094 488.574219 217.847656 C 488.832031 218.195312 489.105469 218.53125 489.402344 218.847656 C 489.695312 219.164062 490.007812 219.464844 490.335938 219.746094 C 490.667969 220.027344 491.011719 220.289062 491.371094 220.53125 C 491.730469 220.773438 492.101562 220.992188 492.488281 221.191406 C 492.875 221.390625 493.269531 221.566406 493.675781 221.71875 L 493.675781 240.65625 L 469.71875 240.65625 C 467.816406 237.644531 465.742188 234.757812 463.492188 232 C 461.242188 229.238281 458.835938 226.621094 456.269531 224.152344 C 453.703125 221.683594 451 219.375 448.15625 217.230469 C 445.316406 215.085938 442.351562 213.117188 439.273438 211.332031 C 436.191406 209.542969 433.015625 207.945312 429.746094 206.542969 C 426.472656 205.136719 423.128906 203.933594 419.710938 202.929688 C 416.292969 201.929688 412.828125 201.136719 409.316406 200.550781 C 405.800781 199.96875 402.265625 199.59375 398.710938 199.4375 L 398.710938 184.792969 C 398.710938 184.269531 398.609375 183.765625 398.410156 183.285156 C 398.207031 182.800781 397.925781 182.375 397.554688 182.003906 C 397.183594 181.632812 396.757812 181.347656 396.273438 181.148438 C 395.789062 180.949219 395.289062 180.847656 394.765625 180.847656 L 357.375 180.847656 C 357.21875 180.441406 357.046875 180.046875 356.847656 179.664062 C 356.648438 179.277344 356.429688 178.90625 356.1875 178.546875 C 355.945312 178.1875 355.683594 177.84375 355.402344 177.515625 C 355.121094 177.183594 354.820312 176.875 354.503906 176.578125 C 354.1875 176.285156 353.851562 176.011719 353.503906 175.753906 C 353.152344 175.5 352.789062 175.265625 352.414062 175.050781 C 352.035156 174.835938 351.648438 174.648438 351.25 174.476562 C 350.851562 174.308594 350.441406 174.164062 350.027344 174.042969 C 349.613281 173.921875 349.191406 173.824219 348.761719 173.753906 C 348.335938 173.679688 347.90625 173.632812 347.472656 173.613281 C 347.042969 173.589844 346.609375 173.59375 346.175781 173.621094 C 345.746094 173.648438 345.316406 173.699219 344.890625 173.777344 C 344.464844 173.855469 344.042969 173.957031 343.628906 174.082031 C 343.214844 174.210938 342.808594 174.359375 342.414062 174.53125 C 342.015625 174.707031 341.632812 174.902344 341.257812 175.121094 C 340.882812 175.339844 340.523438 175.578125 340.175781 175.835938 C 339.832031 176.097656 339.5 176.375 339.1875 176.675781 C 338.871094 176.972656 338.578125 177.289062 338.296875 177.621094 C 338.019531 177.953125 337.765625 178.300781 337.527344 178.664062 C 337.289062 179.023438 337.074219 179.398438 336.882812 179.785156 C 336.6875 180.175781 336.515625 180.570312 336.371094 180.976562 C 336.222656 181.386719 336.097656 181.800781 336 182.222656 C 335.898438 182.640625 335.824219 183.066406 335.773438 183.5 C 335.722656 183.929688 335.699219 184.359375 335.699219 184.792969 C 335.699219 185.226562 335.722656 185.65625 335.773438 186.085938 C 335.824219 186.519531 335.898438 186.945312 336 187.363281 C 336.097656 187.785156 336.222656 188.199219 336.371094 188.609375 C 336.515625 189.015625 336.6875 189.410156 336.882812 189.800781 C 337.074219 190.1875 337.289062 190.5625 337.527344 190.921875 C 337.765625 191.285156 338.019531 191.632812 338.296875 191.964844 C 338.578125 192.296875 338.871094 192.613281 339.1875 192.910156 C 339.5 193.210938 339.832031 193.488281 340.175781 193.75 C 340.523438 194.007812 340.882812 194.246094 341.257812 194.464844 C 341.632812 194.683594 342.015625 194.878906 342.414062 195.054688 C 342.808594 195.226562 343.214844 195.375 343.628906 195.503906 C 344.042969 195.628906 344.464844 195.730469 344.890625 195.808594 C 345.316406 195.886719 345.746094 195.9375 346.175781 195.964844 C 346.609375 195.992188 347.042969 195.996094 347.472656 195.972656 C 347.90625 195.953125 348.335938 195.902344 348.761719 195.832031 C 349.191406 195.761719 349.613281 195.664062 350.027344 195.542969 C 350.441406 195.421875 350.851562 195.277344 351.25 195.109375 C 351.648438 194.9375 352.035156 194.75 352.414062 194.535156 C 352.789062 194.320312 353.152344 194.085938 353.503906 193.832031 C 353.851562 193.574219 354.1875 193.300781 354.503906 193.007812 C 354.820312 192.710938 355.121094 192.402344 355.402344 192.070312 C 355.683594 191.742188 355.945312 191.398438 356.1875 191.039062 C 356.429688 190.679688 356.648438 190.308594 356.847656 189.921875 C 357.046875 189.539062 357.21875 189.144531 357.375 188.738281 L 390.820312 188.738281 L 390.820312 199.429688 C 388.125 199.550781 385.441406 199.796875 382.769531 200.164062 C 380.097656 200.53125 377.449219 201.019531 374.820312 201.628906 C 372.195312 202.234375 369.601562 202.960938 367.039062 203.808594 C 364.476562 204.652344 361.960938 205.613281 359.488281 206.6875 C 357.011719 207.761719 354.59375 208.945312 352.226562 210.242188 C 349.863281 211.539062 347.5625 212.9375 345.324219 214.441406 C 343.085938 215.949219 340.921875 217.550781 338.828125 219.253906 C 336.738281 220.957031 334.726562 222.75 332.796875 224.636719 C 330.871094 226.519531 329.03125 228.488281 327.28125 230.542969 C 325.535156 232.597656 323.882812 234.726562 322.328125 236.929688 C 320.773438 239.132812 319.320312 241.402344 317.972656 243.738281 C 316.625 246.074219 315.386719 248.464844 314.257812 250.914062 C 313.128906 253.363281 312.113281 255.859375 311.210938 258.402344 C 310.308594 260.941406 309.523438 263.519531 308.855469 266.132812 C 308.1875 268.746094 307.640625 271.382812 307.214844 274.046875 C 306.789062 276.710938 306.484375 279.386719 306.300781 282.078125 L 296.136719 282.078125 L 296.136719 249.617188 C 296.542969 249.464844 296.9375 249.289062 297.324219 249.089844 C 297.707031 248.894531 298.082031 248.671875 298.441406 248.429688 C 298.800781 248.191406 299.144531 247.929688 299.472656 247.648438 C 299.800781 247.367188 300.113281 247.066406 300.40625 246.746094 C 300.703125 246.429688 300.976562 246.097656 301.230469 245.746094 C 301.488281 245.398438 301.722656 245.035156 301.933594 244.65625 C 302.148438 244.28125 302.339844 243.894531 302.507812 243.492188 C 302.675781 243.09375 302.820312 242.6875 302.941406 242.273438 C 303.0625 241.855469 303.160156 241.433594 303.230469 241.007812 C 303.304688 240.582031 303.351562 240.152344 303.375 239.71875 C 303.398438 239.285156 303.394531 238.855469 303.367188 238.421875 C 303.339844 237.988281 303.285156 237.5625 303.207031 237.136719 C 303.128906 236.710938 303.027344 236.289062 302.902344 235.875 C 302.777344 235.460938 302.625 235.054688 302.453125 234.660156 C 302.28125 234.261719 302.085938 233.875 301.867188 233.5 C 301.648438 233.128906 301.410156 232.765625 301.148438 232.421875 C 300.890625 232.074219 300.609375 231.746094 300.3125 231.429688 C 300.015625 231.117188 299.699219 230.820312 299.367188 230.542969 C 299.035156 230.265625 298.6875 230.007812 298.324219 229.773438 C 297.960938 229.535156 297.585938 229.320312 297.199219 229.125 C 296.8125 228.933594 296.414062 228.761719 296.007812 228.613281 C 295.601562 228.464844 295.1875 228.34375 294.765625 228.242188 C 294.34375 228.144531 293.917969 228.070312 293.488281 228.019531 C 293.058594 227.96875 292.625 227.945312 292.191406 227.945312 C 291.761719 227.945312 291.328125 227.96875 290.898438 228.019531 C 290.46875 228.070312 290.042969 228.144531 289.621094 228.242188 C 289.199219 228.34375 288.785156 228.464844 288.378906 228.613281 C 287.972656 228.761719 287.574219 228.933594 287.1875 229.125 C 286.800781 229.320312 286.425781 229.535156 286.0625 229.773438 C 285.699219 230.007812 285.351562 230.265625 285.019531 230.542969 C 284.6875 230.820312 284.371094 231.117188 284.074219 231.429688 C 283.777344 231.746094 283.496094 232.074219 283.238281 232.421875 C 282.976562 232.765625 282.738281 233.128906 282.519531 233.5 C 282.300781 233.875 282.105469 234.261719 281.933594 234.660156 C 281.761719 235.054688 281.609375 235.460938 281.484375 235.875 C 281.359375 236.289062 281.253906 236.710938 281.179688 237.136719 C 281.101562 237.5625 281.046875 237.988281 281.019531 238.421875 C 280.992188 238.855469 280.988281 239.285156 281.011719 239.71875 C 281.035156 240.152344 281.082031 240.582031 281.152344 241.007812 C 281.226562 241.433594 281.324219 241.855469 281.445312 242.273438 C 281.566406 242.6875 281.710938 243.09375 281.878906 243.492188 C 282.046875 243.894531 282.238281 244.28125 282.453125 244.65625 C 282.664062 245.035156 282.898438 245.398438 283.15625 245.746094 C 283.410156 246.097656 283.683594 246.429688 283.980469 246.746094 C 284.273438 247.066406 284.585938 247.367188 284.914062 247.648438 C 285.242188 247.929688 285.585938 248.191406 285.945312 248.429688 C 286.304688 248.671875 286.679688 248.894531 287.0625 249.089844 C 287.449219 249.289062 287.84375 249.464844 288.25 249.617188 L 288.25 286.023438 C 288.25 286.546875 288.347656 287.050781 288.546875 287.53125 C 288.75 288.015625 289.035156 288.441406 289.402344 288.8125 C 289.773438 289.183594 290.199219 289.46875 290.683594 289.667969 C 291.167969 289.867188 291.671875 289.96875 292.191406 289.96875 L 306.101562 289.96875 C 306.179688 293.339844 306.445312 296.695312 306.90625 300.035156 C 307.363281 303.378906 308.011719 306.679688 308.847656 309.949219 C 309.683594 313.214844 310.703125 316.421875 311.90625 319.574219 C 313.109375 322.722656 314.484375 325.796875 316.039062 328.789062 C 317.59375 331.78125 319.3125 334.675781 321.195312 337.472656 C 323.078125 340.269531 325.117188 342.949219 327.308594 345.515625 C 329.496094 348.078125 331.828125 350.511719 334.292969 352.808594 C 336.761719 355.105469 339.351562 357.257812 342.066406 359.257812 L 342.066406 375.039062 L 313.140625 375.039062 C 312.988281 374.632812 312.8125 374.238281 312.613281 373.851562 C 312.417969 373.46875 312.195312 373.09375 311.953125 372.734375 C 311.710938 372.375 311.453125 372.03125 311.167969 371.703125 C 310.886719 371.371094 310.589844 371.058594 310.269531 370.765625 C 309.953125 370.472656 309.617188 370.195312 309.269531 369.941406 C 308.917969 369.683594 308.554688 369.449219 308.179688 369.234375 C 307.800781 369.023438 307.414062 368.832031 307.015625 368.664062 C 306.613281 368.492188 306.207031 368.347656 305.792969 368.226562 C 305.375 368.105469 304.953125 368.007812 304.527344 367.9375 C 304.097656 367.863281 303.667969 367.816406 303.234375 367.796875 C 302.804688 367.773438 302.371094 367.773438 301.9375 367.804688 C 301.507812 367.832031 301.078125 367.882812 300.648438 367.960938 C 300.222656 368.039062 299.804688 368.140625 299.390625 368.265625 C 298.972656 368.394531 298.570312 368.542969 298.171875 368.714844 C 297.773438 368.890625 297.386719 369.085938 297.015625 369.304688 C 296.640625 369.523438 296.277344 369.761719 295.933594 370.019531 C 295.585938 370.28125 295.253906 370.558594 294.941406 370.859375 C 294.625 371.15625 294.332031 371.472656 294.054688 371.804688 C 293.773438 372.136719 293.519531 372.484375 293.28125 372.847656 C 293.042969 373.210938 292.828125 373.585938 292.632812 373.972656 C 292.441406 374.359375 292.269531 374.757812 292.121094 375.164062 C 291.972656 375.574219 291.851562 375.988281 291.75 376.410156 C 291.652344 376.832031 291.578125 377.257812 291.527344 377.6875 C 291.476562 378.117188 291.449219 378.550781 291.449219 378.984375 C 291.449219 379.417969 291.476562 379.847656 291.527344 380.28125 C 291.578125 380.710938 291.652344 381.136719 291.75 381.558594 C 291.851562 381.980469 291.972656 382.394531 292.121094 382.800781 C 292.269531 383.210938 292.441406 383.605469 292.632812 383.996094 C 292.828125 384.382812 293.042969 384.757812 293.28125 385.121094 C 293.519531 385.480469 293.773438 385.828125 294.054688 386.164062 C 294.332031 386.496094 294.625 386.8125 294.941406 387.109375 C 295.253906 387.40625 295.585938 387.6875 295.933594 387.945312 C 296.277344 388.207031 296.640625 388.445312 297.015625 388.664062 C 297.386719 388.882812 297.773438 389.078125 298.171875 389.25 C 298.570312 389.425781 298.972656 389.574219 299.390625 389.699219 C 299.804688 389.828125 300.222656 389.929688 300.648438 390.007812 C 301.078125 390.085938 301.507812 390.136719 301.9375 390.164062 C 302.371094 390.191406 302.804688 390.195312 303.234375 390.171875 C 303.667969 390.148438 304.097656 390.101562 304.527344 390.03125 C 304.953125 389.957031 305.375 389.859375 305.792969 389.738281 C 306.207031 389.617188 306.613281 389.472656 307.015625 389.304688 C 307.414062 389.136719 307.800781 388.945312 308.179688 388.730469 C 308.554688 388.519531 308.917969 388.285156 309.269531 388.027344 C 309.617188 387.773438 309.953125 387.496094 310.269531 387.203125 C 310.589844 386.90625 310.886719 386.59375 311.167969 386.265625 C 311.453125 385.9375 311.710938 385.59375 311.953125 385.234375 C 312.195312 384.871094 312.417969 384.5 312.613281 384.113281 C 312.8125 383.730469 312.988281 383.335938 313.140625 382.929688 L 346.011719 382.929688 C 346.535156 382.929688 347.039062 382.828125 347.519531 382.628906 C 348.003906 382.429688 348.429688 382.144531 348.800781 381.773438 C 349.171875 381.402344 349.457031 380.976562 349.65625 380.492188 C 349.855469 380.011719 349.957031 379.507812 349.957031 378.984375 L 349.957031 364.527344 C 352.859375 366.246094 355.851562 367.792969 358.933594 369.167969 C 362.011719 370.542969 365.164062 371.738281 368.378906 372.75 C 371.597656 373.761719 374.863281 374.585938 378.175781 375.222656 C 381.488281 375.855469 384.828125 376.300781 388.191406 376.554688 C 391.554688 376.804688 394.921875 376.863281 398.292969 376.726562 C 401.664062 376.59375 405.015625 376.265625 408.351562 375.742188 C 411.683594 375.222656 414.976562 374.511719 418.226562 373.609375 C 421.476562 372.710938 424.664062 371.628906 427.792969 370.359375 L 427.792969 391.199219 C 427.792969 391.722656 427.890625 392.222656 428.09375 392.707031 C 428.292969 393.191406 428.578125 393.617188 428.949219 393.988281 C 429.316406 394.355469 429.746094 394.640625 430.226562 394.84375 C 430.710938 395.042969 431.214844 395.144531 431.738281 395.144531 L 463.21875 395.144531 C 463.371094 395.546875 463.546875 395.941406 463.746094 396.328125 C 463.945312 396.710938 464.164062 397.085938 464.40625 397.445312 C 464.648438 397.804688 464.910156 398.148438 465.191406 398.476562 C 465.472656 398.804688 465.769531 399.117188 466.089844 399.410156 C 466.40625 399.707031 466.738281 399.980469 467.089844 400.234375 C 467.4375 400.492188 467.800781 400.726562 468.179688 400.941406 C 468.554688 401.152344 468.945312 401.34375 469.34375 401.511719 C 469.742188 401.679688 470.148438 401.824219 470.566406 401.945312 C 470.980469 402.066406 471.402344 402.164062 471.828125 402.238281 C 472.253906 402.308594 472.683594 402.355469 473.117188 402.378906 C 473.550781 402.402344 473.980469 402.398438 474.414062 402.371094 C 474.847656 402.34375 475.277344 402.289062 475.703125 402.210938 C 476.128906 402.136719 476.546875 402.035156 476.960938 401.90625 C 477.375 401.78125 477.78125 401.632812 478.179688 401.457031 C 478.574219 401.285156 478.960938 401.089844 479.335938 400.871094 C 479.707031 400.652344 480.070312 400.414062 480.414062 400.152344 C 480.761719 399.894531 481.09375 399.613281 481.40625 399.316406 C 481.71875 399.019531 482.015625 398.703125 482.292969 398.371094 C 482.570312 398.039062 482.828125 397.691406 483.066406 397.328125 C 483.300781 396.964844 483.515625 396.589844 483.710938 396.203125 C 483.90625 395.816406 484.074219 395.417969 484.222656 395.011719 C 484.371094 394.605469 484.492188 394.191406 484.59375 393.769531 C 484.691406 393.347656 484.769531 392.921875 484.816406 392.492188 C 484.867188 392.0625 484.894531 391.628906 484.894531 391.199219 C 484.894531 390.765625 484.867188 390.332031 484.816406 389.902344 C 484.769531 389.472656 484.691406 389.046875 484.59375 388.625 C 484.492188 388.203125 484.371094 387.789062 484.222656 387.382812 C 484.074219 386.976562 483.90625 386.578125 483.710938 386.191406 C 483.515625 385.804688 483.300781 385.429688 483.066406 385.066406 C 482.828125 384.703125 482.570312 384.355469 482.292969 384.023438 C 482.015625 383.691406 481.71875 383.375 481.40625 383.078125 C 481.09375 382.78125 480.761719 382.5 480.414062 382.242188 C 480.070312 381.980469 479.707031 381.742188 479.335938 381.523438 C 478.960938 381.308594 478.574219 381.109375 478.179688 380.9375 C 477.78125 380.765625 477.375 380.613281 476.960938 380.488281 C 476.546875 380.363281 476.128906 380.261719 475.703125 380.183594 C 475.277344 380.105469 474.847656 380.050781 474.414062 380.023438 C 473.980469 379.996094 473.550781 379.996094 473.117188 380.015625 C 472.683594 380.039062 472.253906 380.085938 471.828125 380.160156 C 471.402344 380.230469 470.980469 380.328125 470.566406 380.449219 C 470.148438 380.570312 469.742188 380.714844 469.34375 380.882812 C 468.945312 381.050781 468.554688 381.242188 468.179688 381.457031 C 467.800781 381.667969 467.4375 381.902344 467.089844 382.160156 C 466.738281 382.414062 466.40625 382.691406 466.089844 382.984375 C 465.769531 383.277344 465.472656 383.589844 465.191406 383.917969 C 464.910156 384.246094 464.648438 384.589844 464.40625 384.949219 C 464.164062 385.308594 463.945312 385.683594 463.746094 386.066406 C 463.546875 386.453125 463.371094 386.847656 463.21875 387.253906 L 435.683594 387.253906 L 435.683594 366.683594 C 438.71875 365.101562 441.652344 363.347656 444.484375 361.425781 C 447.316406 359.503906 450.027344 357.425781 452.621094 355.191406 C 455.210938 352.957031 457.667969 350.582031 459.984375 348.0625 C 462.300781 345.546875 464.46875 342.902344 466.480469 340.132812 C 468.492188 337.363281 470.339844 334.488281 472.019531 331.507812 C 473.699219 328.527344 475.203125 325.457031 476.527344 322.304688 C 477.855469 319.148438 478.996094 315.925781 479.949219 312.640625 C 480.902344 309.351562 481.664062 306.023438 482.234375 302.648438 L 491.582031 302.648438 L 491.582031 336.742188 C 491.179688 336.894531 490.78125 337.070312 490.398438 337.265625 C 490.011719 337.464844 489.640625 337.683594 489.28125 337.925781 C 488.921875 338.167969 488.574219 338.429688 488.246094 338.710938 C 487.917969 338.992188 487.605469 339.292969 487.3125 339.613281 C 487.015625 339.929688 486.742188 340.261719 486.484375 340.613281 C 486.230469 340.960938 485.996094 341.324219 485.78125 341.703125 C 485.566406 342.082031 485.375 342.46875 485.207031 342.867188 C 485.039062 343.265625 484.894531 343.675781 484.773438 344.089844 C 484.652344 344.507812 484.554688 344.929688 484.480469 345.355469 C 484.410156 345.78125 484.363281 346.210938 484.339844 346.644531 C 484.316406 347.078125 484.320312 347.511719 484.347656 347.941406 C 484.375 348.375 484.429688 348.804688 484.503906 349.230469 C 484.582031 349.65625 484.683594 350.078125 484.8125 350.492188 C 484.9375 350.90625 485.085938 351.3125 485.261719 351.710938 C 485.433594 352.109375 485.628906 352.492188 485.847656 352.867188 C 486.066406 353.242188 486.304688 353.601562 486.566406 353.949219 C 486.824219 354.296875 487.105469 354.625 487.402344 354.941406 C 487.703125 355.253906 488.015625 355.550781 488.351562 355.828125 C 488.683594 356.105469 489.03125 356.363281 489.394531 356.601562 C 489.753906 356.839844 490.128906 357.054688 490.519531 357.246094 C 490.90625 357.441406 491.304688 357.613281 491.710938 357.761719 C 492.117188 357.90625 492.53125 358.03125 492.953125 358.132812 C 493.375 358.230469 493.800781 358.304688 494.234375 358.355469 C 494.664062 358.40625 495.09375 358.429688 495.527344 358.429688 C 495.960938 358.429688 496.394531 358.40625 496.824219 358.355469 C 497.253906 358.304688 497.679688 358.230469 498.101562 358.132812 C 498.523438 358.03125 498.9375 357.90625 499.347656 357.761719 C 499.753906 357.613281 500.152344 357.441406 500.539062 357.246094 C 500.925781 357.054688 501.300781 356.839844 501.664062 356.601562 C 502.027344 356.363281 502.375 356.105469 502.707031 355.828125 C 503.039062 355.550781 503.355469 355.253906 503.652344 354.941406 C 503.953125 354.625 504.230469 354.296875 504.492188 353.949219 C 504.75 353.601562 504.992188 353.242188 505.207031 352.867188 C 505.425781 352.492188 505.621094 352.109375 505.796875 351.710938 C 505.96875 351.3125 506.121094 350.90625 506.246094 350.492188 C 506.371094 350.078125 506.472656 349.65625 506.550781 349.230469 C 506.628906 348.804688 506.683594 348.375 506.710938 347.941406 C 506.738281 347.511719 506.738281 347.078125 506.71875 346.644531 C 506.695312 346.210938 506.648438 345.78125 506.574219 345.355469 C 506.503906 344.929688 506.40625 344.507812 506.285156 344.089844 C 506.164062 343.675781 506.019531 343.265625 505.851562 342.867188 C 505.679688 342.46875 505.488281 342.082031 505.277344 341.703125 C 505.0625 341.328125 504.828125 340.960938 504.574219 340.613281 C 504.316406 340.261719 504.042969 339.929688 503.746094 339.613281 C 503.453125 339.292969 503.140625 338.992188 502.8125 338.710938 C 502.480469 338.429688 502.136719 338.167969 501.777344 337.925781 C 501.417969 337.683594 501.046875 337.464844 500.660156 337.265625 C 500.273438 337.070312 499.878906 336.894531 499.472656 336.742188 Z M 497.621094 207.917969 C 498.058594 207.917969 498.480469 208.003906 498.882812 208.171875 C 499.289062 208.339844 499.644531 208.582031 499.953125 208.890625 C 500.261719 209.199219 500.5 209.558594 500.667969 209.964844 C 500.835938 210.367188 500.917969 210.789062 500.917969 211.226562 C 500.917969 211.664062 500.832031 212.085938 500.664062 212.492188 C 500.496094 212.894531 500.257812 213.253906 499.949219 213.5625 C 499.640625 213.871094 499.28125 214.109375 498.878906 214.277344 C 498.472656 214.445312 498.050781 214.53125 497.613281 214.53125 C 497.175781 214.53125 496.753906 214.449219 496.351562 214.28125 C 495.945312 214.113281 495.589844 213.875 495.277344 213.566406 C 494.96875 213.257812 494.726562 212.898438 494.558594 212.496094 C 494.390625 212.089844 494.308594 211.671875 494.304688 211.234375 C 494.308594 210.792969 494.390625 210.371094 494.558594 209.964844 C 494.730469 209.558594 494.96875 209.203125 495.277344 208.890625 C 495.589844 208.582031 495.945312 208.339844 496.351562 208.171875 C 496.757812 208.003906 497.179688 207.917969 497.621094 207.917969 Z M 346.933594 188.097656 C 346.496094 188.101562 346.070312 188.015625 345.664062 187.847656 C 345.257812 187.679688 344.898438 187.441406 344.585938 187.132812 C 344.277344 186.820312 344.035156 186.464844 343.867188 186.058594 C 343.699219 185.652344 343.613281 185.226562 343.613281 184.789062 C 343.613281 184.347656 343.695312 183.925781 343.863281 183.519531 C 344.03125 183.113281 344.273438 182.753906 344.582031 182.441406 C 344.894531 182.128906 345.253906 181.890625 345.660156 181.722656 C 346.066406 181.554688 346.488281 181.472656 346.929688 181.472656 C 347.371094 181.472656 347.792969 181.554688 348.199219 181.726562 C 348.605469 181.894531 348.964844 182.132812 349.273438 182.445312 C 349.585938 182.757812 349.824219 183.117188 349.992188 183.523438 C 350.160156 183.929688 350.242188 184.351562 350.242188 184.792969 C 350.238281 185.230469 350.15625 185.652344 349.988281 186.058594 C 349.820312 186.460938 349.578125 186.820312 349.269531 187.128906 C 348.960938 187.4375 348.601562 187.675781 348.199219 187.84375 C 347.792969 188.011719 347.371094 188.097656 346.933594 188.097656 Z M 292.191406 235.867188 C 292.632812 235.867188 293.054688 235.949219 293.457031 236.117188 C 293.863281 236.285156 294.222656 236.523438 294.53125 236.832031 C 294.839844 237.144531 295.078125 237.5 295.246094 237.90625 C 295.414062 238.3125 295.5 238.734375 295.5 239.171875 C 295.5 239.609375 295.414062 240.03125 295.246094 240.4375 C 295.078125 240.839844 294.839844 241.199219 294.53125 241.507812 C 294.222656 241.820312 293.863281 242.058594 293.457031 242.226562 C 293.054688 242.394531 292.632812 242.476562 292.191406 242.476562 C 291.753906 242.476562 291.332031 242.394531 290.929688 242.226562 C 290.523438 242.058594 290.164062 241.820312 289.855469 241.507812 C 289.546875 241.199219 289.308594 240.839844 289.140625 240.4375 C 288.972656 240.03125 288.886719 239.609375 288.886719 239.171875 C 288.886719 238.734375 288.972656 238.3125 289.140625 237.90625 C 289.308594 237.5 289.546875 237.144531 289.855469 236.832031 C 290.164062 236.523438 290.523438 236.285156 290.929688 236.117188 C 291.332031 235.949219 291.753906 235.867188 292.191406 235.867188 Z M 302.695312 382.320312 C 302.253906 382.324219 301.832031 382.238281 301.425781 382.070312 C 301.019531 381.902344 300.660156 381.664062 300.347656 381.355469 C 300.035156 381.042969 299.796875 380.683594 299.628906 380.28125 C 299.457031 379.875 299.375 379.449219 299.375 379.011719 C 299.371094 378.570312 299.457031 378.148438 299.625 377.742188 C 299.792969 377.335938 300.03125 376.976562 300.34375 376.664062 C 300.65625 376.351562 301.011719 376.113281 301.421875 375.945312 C 301.828125 375.777344 302.25 375.691406 302.691406 375.695312 C 303.128906 375.695312 303.550781 375.777344 303.957031 375.949219 C 304.363281 376.117188 304.722656 376.355469 305.035156 376.667969 C 305.34375 376.980469 305.582031 377.339844 305.75 377.746094 C 305.917969 378.152344 306 378.574219 306 379.015625 C 306 379.453125 305.917969 379.875 305.75 380.28125 C 305.582031 380.683594 305.34375 381.042969 305.03125 381.351562 C 304.722656 381.664062 304.363281 381.902344 303.960938 382.070312 C 303.554688 382.238281 303.132812 382.320312 302.695312 382.320312 Z M 473.664062 387.890625 C 474.105469 387.890625 474.527344 387.972656 474.933594 388.140625 C 475.34375 388.308594 475.699219 388.546875 476.011719 388.859375 C 476.324219 389.167969 476.5625 389.527344 476.734375 389.933594 C 476.902344 390.339844 476.988281 390.761719 476.988281 391.203125 C 476.988281 391.644531 476.902344 392.066406 476.734375 392.472656 C 476.566406 392.878906 476.328125 393.238281 476.015625 393.550781 C 475.707031 393.859375 475.347656 394.097656 474.941406 394.269531 C 474.535156 394.4375 474.109375 394.519531 473.671875 394.519531 C 473.230469 394.519531 472.808594 394.433594 472.402344 394.265625 C 471.996094 394.097656 471.636719 393.855469 471.328125 393.546875 C 471.015625 393.234375 470.777344 392.875 470.609375 392.46875 C 470.441406 392.0625 470.359375 391.636719 470.359375 391.199219 C 470.359375 390.757812 470.445312 390.339844 470.613281 389.933594 C 470.78125 389.527344 471.019531 389.171875 471.328125 388.863281 C 471.640625 388.550781 471.996094 388.3125 472.402344 388.144531 C 472.804688 387.976562 473.226562 387.894531 473.664062 387.890625 Z M 394.765625 368.867188 C 393.441406 368.867188 392.117188 368.835938 390.796875 368.769531 C 389.472656 368.707031 388.15625 368.609375 386.835938 368.480469 C 385.519531 368.347656 384.207031 368.1875 382.898438 367.992188 C 381.589844 367.800781 380.285156 367.574219 378.988281 367.316406 C 377.6875 367.054688 376.398438 366.765625 375.113281 366.445312 C 373.828125 366.125 372.554688 365.769531 371.289062 365.386719 C 370.023438 365.003906 368.765625 364.585938 367.519531 364.140625 C 366.273438 363.695312 365.039062 363.21875 363.816406 362.710938 C 362.59375 362.207031 361.382812 361.667969 360.1875 361.105469 C 358.988281 360.539062 357.808594 359.941406 356.640625 359.320312 C 355.472656 358.695312 354.324219 358.042969 353.1875 357.363281 C 352.050781 356.683594 350.933594 355.972656 349.832031 355.238281 C 348.734375 354.503906 347.652344 353.742188 346.589844 352.953125 C 345.523438 352.164062 344.480469 351.351562 343.457031 350.511719 C 342.4375 349.671875 341.433594 348.808594 340.453125 347.917969 C 339.472656 347.03125 338.515625 346.117188 337.578125 345.179688 C 336.640625 344.246094 335.730469 343.289062 334.839844 342.304688 C 333.953125 341.324219 333.089844 340.324219 332.25 339.300781 C 331.410156 338.277344 330.59375 337.234375 329.804688 336.171875 C 329.019531 335.109375 328.257812 334.027344 327.519531 332.925781 C 326.785156 331.824219 326.078125 330.707031 325.398438 329.574219 C 324.714844 328.4375 324.0625 327.285156 323.441406 326.117188 C 322.816406 324.953125 322.222656 323.769531 321.65625 322.574219 C 321.089844 321.375 320.554688 320.167969 320.046875 318.945312 C 319.539062 317.722656 319.0625 316.488281 318.617188 315.242188 C 318.171875 313.996094 317.757812 312.738281 317.375 311.472656 C 316.988281 310.203125 316.636719 308.929688 316.316406 307.644531 C 315.992188 306.363281 315.703125 305.070312 315.445312 303.773438 C 315.1875 302.476562 314.960938 301.171875 314.765625 299.863281 C 314.570312 298.550781 314.410156 297.238281 314.28125 295.921875 C 314.152344 294.605469 314.054688 293.285156 313.988281 291.964844 C 313.921875 290.640625 313.890625 289.320312 313.890625 287.996094 C 313.890625 286.671875 313.921875 285.347656 313.988281 284.027344 C 314.054688 282.707031 314.152344 281.386719 314.28125 280.066406 C 314.410156 278.75 314.570312 277.4375 314.765625 276.128906 C 314.960938 274.820312 315.1875 273.515625 315.445312 272.21875 C 315.703125 270.917969 315.992188 269.628906 316.316406 268.34375 C 316.636719 267.0625 316.988281 265.785156 317.375 264.519531 C 317.757812 263.253906 318.171875 261.996094 318.617188 260.75 C 319.0625 259.503906 319.539062 258.269531 320.046875 257.046875 C 320.554688 255.824219 321.089844 254.613281 321.65625 253.417969 C 322.222656 252.222656 322.816406 251.039062 323.441406 249.871094 C 324.0625 248.703125 324.714844 247.554688 325.398438 246.417969 C 326.078125 245.28125 326.785156 244.164062 327.519531 243.0625 C 328.257812 241.964844 329.019531 240.882812 329.804688 239.820312 C 330.59375 238.757812 331.410156 237.710938 332.25 236.691406 C 333.089844 235.667969 333.953125 234.664062 334.839844 233.683594 C 335.730469 232.703125 336.640625 231.746094 337.578125 230.808594 C 338.515625 229.875 339.472656 228.960938 340.453125 228.070312 C 341.433594 227.183594 342.4375 226.320312 343.457031 225.480469 C 344.480469 224.640625 345.523438 223.824219 346.589844 223.039062 C 347.652344 222.25 348.734375 221.488281 349.832031 220.75 C 350.933594 220.015625 352.050781 219.308594 353.1875 218.628906 C 354.324219 217.949219 355.472656 217.296875 356.640625 216.671875 C 357.808594 216.046875 358.988281 215.453125 360.1875 214.886719 C 361.382812 214.320312 362.59375 213.785156 363.816406 213.277344 C 365.039062 212.773438 366.273438 212.296875 367.519531 211.847656 C 368.765625 211.402344 370.023438 210.988281 371.289062 210.605469 C 372.554688 210.21875 373.828125 209.867188 375.113281 209.546875 C 376.398438 209.222656 377.6875 208.933594 378.988281 208.675781 C 380.285156 208.417969 381.589844 208.191406 382.898438 207.996094 C 384.207031 207.804688 385.519531 207.640625 386.835938 207.511719 C 388.15625 207.382812 389.472656 207.285156 390.796875 207.21875 C 392.117188 207.15625 393.441406 207.121094 394.765625 207.121094 C 396.089844 207.121094 397.410156 207.15625 398.734375 207.21875 C 400.054688 207.285156 401.375 207.382812 402.691406 207.511719 C 404.007812 207.640625 405.320312 207.804688 406.632812 207.996094 C 407.941406 208.191406 409.242188 208.417969 410.542969 208.675781 C 411.839844 208.933594 413.132812 209.222656 414.414062 209.546875 C 415.699219 209.867188 416.972656 210.21875 418.242188 210.605469 C 419.507812 210.988281 420.761719 211.402344 422.011719 211.847656 C 423.257812 212.296875 424.492188 212.773438 425.714844 213.277344 C 426.9375 213.785156 428.144531 214.320312 429.34375 214.886719 C 430.539062 215.453125 431.71875 216.046875 432.886719 216.671875 C 434.054688 217.296875 435.207031 217.949219 436.339844 218.628906 C 437.476562 219.308594 438.59375 220.015625 439.695312 220.75 C 440.796875 221.488281 441.878906 222.25 442.941406 223.039062 C 444.003906 223.824219 445.046875 224.640625 446.070312 225.480469 C 447.09375 226.320312 448.09375 227.183594 449.074219 228.070312 C 450.054688 228.960938 451.015625 229.875 451.949219 230.808594 C 452.886719 231.746094 453.796875 232.703125 454.6875 233.683594 C 455.578125 234.664062 456.441406 235.667969 457.28125 236.691406 C 458.121094 237.710938 458.933594 238.757812 459.722656 239.820312 C 460.511719 240.882812 461.273438 241.964844 462.007812 243.0625 C 462.742188 244.164062 463.453125 245.28125 464.132812 246.417969 C 464.8125 247.554688 465.464844 248.703125 466.089844 249.871094 C 466.710938 251.039062 467.308594 252.222656 467.875 253.417969 C 468.4375 254.613281 468.976562 255.824219 469.480469 257.046875 C 469.988281 258.269531 470.464844 259.503906 470.910156 260.75 C 471.355469 261.996094 471.769531 263.253906 472.15625 264.519531 C 472.539062 265.785156 472.890625 267.0625 473.214844 268.34375 C 473.535156 269.628906 473.824219 270.917969 474.082031 272.21875 C 474.34375 273.515625 474.566406 274.820312 474.761719 276.128906 C 474.957031 277.4375 475.117188 278.75 475.25 280.066406 C 475.378906 281.386719 475.476562 282.707031 475.539062 284.027344 C 475.605469 285.347656 475.636719 286.671875 475.636719 287.996094 C 475.636719 289.320312 475.601562 290.640625 475.535156 291.960938 C 475.46875 293.285156 475.371094 294.601562 475.242188 295.917969 C 475.109375 297.234375 474.945312 298.550781 474.75 299.859375 C 474.554688 301.167969 474.328125 302.46875 474.070312 303.765625 C 473.808594 305.066406 473.519531 306.355469 473.195312 307.636719 C 472.875 308.921875 472.519531 310.195312 472.136719 311.460938 C 471.75 312.726562 471.335938 313.984375 470.890625 315.230469 C 470.441406 316.476562 469.964844 317.707031 469.457031 318.929688 C 468.953125 320.152344 468.414062 321.363281 467.847656 322.558594 C 467.28125 323.753906 466.6875 324.933594 466.0625 326.101562 C 465.4375 327.269531 464.785156 328.417969 464.105469 329.554688 C 463.425781 330.6875 462.71875 331.804688 461.980469 332.90625 C 461.246094 334.003906 460.484375 335.085938 459.695312 336.148438 C 458.90625 337.210938 458.09375 338.253906 457.253906 339.277344 C 456.414062 340.300781 455.550781 341.300781 454.660156 342.28125 C 453.773438 343.261719 452.859375 344.21875 451.925781 345.15625 C 450.988281 346.089844 450.03125 347.003906 449.050781 347.890625 C 448.070312 348.78125 447.070312 349.644531 446.046875 350.484375 C 445.023438 351.324219 443.980469 352.136719 442.917969 352.925781 C 441.855469 353.714844 440.773438 354.476562 439.675781 355.210938 C 438.574219 355.949219 437.457031 356.65625 436.324219 357.335938 C 435.1875 358.015625 434.039062 358.667969 432.871094 359.292969 C 431.703125 359.917969 430.523438 360.511719 429.328125 361.078125 C 428.132812 361.644531 426.921875 362.183594 425.699219 362.6875 C 424.476562 363.195312 423.242188 363.671875 422 364.121094 C 420.753906 364.566406 419.496094 364.980469 418.230469 365.367188 C 416.964844 365.75 415.691406 366.105469 414.40625 366.429688 C 413.125 366.75 411.832031 367.042969 410.535156 367.300781 C 409.238281 367.558594 407.933594 367.785156 406.625 367.980469 C 405.316406 368.175781 404.003906 368.339844 402.6875 368.472656 C 401.371094 368.601562 400.054688 368.699219 398.730469 368.765625 C 397.410156 368.832031 396.085938 368.867188 394.765625 368.867188 Z M 495.503906 350.5 C 495.066406 350.5 494.644531 350.414062 494.238281 350.246094 C 493.832031 350.078125 493.472656 349.839844 493.164062 349.527344 C 492.855469 349.21875 492.613281 348.859375 492.445312 348.453125 C 492.277344 348.046875 492.191406 347.625 492.191406 347.1875 C 492.195312 346.792969 492.265625 346.414062 492.40625 346.050781 C 492.546875 345.683594 492.746094 345.351562 493.003906 345.058594 C 493.261719 344.765625 493.5625 344.523438 493.910156 344.335938 C 494.253906 344.152344 494.621094 344.03125 495.007812 343.976562 C 495.339844 344.105469 495.671875 344.105469 496.003906 343.976562 C 496.390625 344.03125 496.757812 344.152344 497.101562 344.335938 C 497.445312 344.523438 497.746094 344.765625 498.007812 345.058594 C 498.265625 345.351562 498.464844 345.683594 498.605469 346.050781 C 498.742188 346.414062 498.816406 346.792969 498.820312 347.1875 C 498.816406 347.625 498.734375 348.046875 498.566406 348.453125 C 498.394531 348.859375 498.15625 349.21875 497.847656 349.527344 C 497.535156 349.839844 497.175781 350.078125 496.773438 350.246094 C 496.367188 350.414062 495.945312 350.5 495.503906 350.5 Z M 495.503906 350.5 " fill-opacity="1" fill-rule="nonzero"/></svg>