<svg xmlns="http://www.w3.org/2000/svg" xmlns:xlink="http://www.w3.org/1999/xlink" width="1024" zoomAndPan="magnify" viewBox="0 0 768 576" height="768" preserveAspectRatio="xMidYMid meet" version="1.0"><defs><clipPath id="2bfba2da73"><path d="M 279.53125 218 L 443 218 L 443 445 L 279.53125 445 Z M 279.53125 218 " clip-rule="nonzero"/></clipPath><clipPath id="57473581e3"><path d="M 410 244 L 464.78125 244 L 464.78125 354 L 410 354 Z M 410 244 " clip-rule="nonzero"/></clipPath><clipPath id="2ce707465d"><path d="M 279.53125 267 L 359 267 L 359 445 L 279.53125 445 Z M 279.53125 267 " clip-rule="nonzero"/></clipPath><clipPath id="144ca0be77"><path d="M 416 248 L 464.78125 248 L 464.78125 311 L 416 311 Z M 416 248 " clip-rule="nonzero"/></clipPath></defs><g clip-path="url(#2bfba2da73)"><path fill="#bac1ce" d="M 439.613281 368.089844 L 442.246094 369.59375 L 442.199219 381.34375 C 442.199219 387.738281 439.941406 392.25 436.273438 394.316406 C 436.085938 394.425781 440.976562 391.582031 352.289062 443.152344 C 348.574219 445.265625 343.496094 444.984375 337.902344 441.742188 C 326.757812 435.300781 317.726562 419.652344 317.773438 406.820312 L 318.058594 302.949219 C 318.058594 293.878906 312.460938 283.066406 304.984375 277.097656 L 282.179688 290.351562 L 279.5 288.847656 L 279.546875 280.71875 C 279.59375 274.324219 281.992188 270 285.800781 268.214844 C 285.515625 268.308594 285.28125 268.449219 285.046875 268.589844 L 369.078125 219.804688 C 372.511719 217.832031 377.257812 218.066406 382.480469 221.074219 L 385.910156 223.046875 C 396.304688 229.0625 404.722656 243.679688 404.722656 255.667969 L 404.390625 359.585938 C 404.34375 367.339844 408.199219 376.363281 413.890625 382.992188 Z M 439.613281 368.089844 " fill-opacity="1" fill-rule="nonzero"/></g><g clip-path="url(#57473581e3)"><path fill="#bac1ce" d="M 441.585938 306.332031 L 441.539062 311.785156 C 441.824219 311.878906 442.105469 312.019531 442.339844 312.160156 C 443.703125 312.960938 444.363281 313.992188 444.363281 315.027344 L 444.21875 349.433594 C 444.21875 350.417969 443.5625 351.453125 442.246094 352.207031 C 439.566406 353.757812 435.191406 353.757812 432.511719 352.207031 C 431.148438 351.453125 430.488281 350.417969 430.488281 349.386719 L 430.628906 314.980469 C 430.582031 313.992188 431.242188 312.960938 432.605469 312.160156 C 432.792969 312.066406 432.980469 311.925781 433.21875 311.878906 L 433.265625 309.859375 C 429.125 310.703125 425.457031 310.046875 422.636719 308.023438 L 417.089844 304.875 C 412.761719 302.382812 410.082031 297.027344 410.082031 289.367188 C 410.035156 274.089844 420.804688 255.382812 434.15625 247.675781 C 440.882812 243.824219 446.949219 243.445312 451.367188 245.984375 L 457.621094 249.652344 C 462.042969 252.140625 464.769531 257.546875 464.816406 265.207031 C 464.816406 280.199219 454.566406 298.390625 441.585938 306.332031 Z M 441.585938 306.332031 " fill-opacity="1" fill-rule="nonzero"/></g><path fill="#e4e8f4" d="M 370.957031 223 C 368.042969 224.742188 366.210938 228.3125 366.210938 233.433594 L 366.160156 241.566406 L 282.179688 290.351562 L 282.179688 282.222656 C 282.179688 277.097656 284.011719 273.527344 286.929688 271.835938 Z M 370.957031 223 " fill-opacity="1" fill-rule="nonzero"/><path fill="#e4e8f4" d="M 285.046875 268.609375 C 292 264.527344 300.351562 271.25 301.882812 271.847656 C 312.277344 277.878906 320.734375 292.476562 320.695312 304.464844 L 320.398438 408.351562 C 320.339844 426.1875 339.214844 446.308594 350.425781 439.925781 L 434.429688 391.109375 C 431.226562 392.972656 426.828125 392.710938 421.949219 389.882812 C 412.265625 384.296875 404.367188 370.667969 404.402344 359.574219 L 404.703125 255.652344 C 404.738281 243.699219 396.320312 229.066406 385.890625 223.070312 L 382.5 221.097656 C 377.246094 218.082031 372.515625 217.820312 369.085938 219.792969 Z M 285.046875 268.609375 " fill-opacity="1" fill-rule="nonzero"/><path fill="#e4e8f4" d="M 415.394531 394.035156 C 341.910156 436.554688 347.253906 434.03125 345.800781 434.03125 C 344.578125 434.03125 343.074219 433.515625 341.429688 432.574219 C 333.953125 428.296875 327.414062 416.972656 327.460938 408.371094 L 327.695312 324.050781 L 327.695312 313.757812 L 327.746094 310.703125 L 327.746094 304.5 C 327.746094 304.171875 327.746094 303.796875 327.695312 303.464844 C 327.695312 302.480469 327.648438 301.492188 327.507812 300.503906 C 327.273438 298.34375 326.851562 296.179688 326.191406 294.019531 C 326.003906 293.171875 325.722656 292.328125 325.394531 291.480469 C 324.734375 289.460938 323.933594 287.53125 322.996094 285.605469 C 322.617188 284.808594 322.195312 284.007812 321.773438 283.253906 C 320.738281 281.421875 319.609375 279.636719 318.386719 277.945312 C 317.871094 277.238281 317.351562 276.535156 316.789062 275.828125 C 310.582031 268.132812 305.1875 265.746094 304.703125 265.347656 L 372.652344 225.867188 C 372.980469 225.679688 373.449219 225.585938 374.0625 225.585938 C 375.378906 225.585938 377.164062 226.148438 379 227.230469 L 381.117188 228.453125 L 382.339844 229.160156 C 382.808594 229.394531 383.230469 229.675781 383.65625 230.003906 C 385.394531 231.179688 387.039062 232.636719 388.59375 234.375 C 389.15625 235.035156 389.769531 235.738281 390.332031 236.492188 C 391.554688 238.136719 392.730469 239.921875 393.671875 241.753906 C 394.09375 242.507812 394.515625 243.304688 394.847656 244.105469 C 395.785156 246.125 396.492188 248.144531 396.960938 250.167969 C 397.199219 251.109375 397.386719 252.046875 397.480469 252.941406 C 397.621094 253.878906 397.667969 254.773438 397.667969 255.621094 L 397.667969 260.039062 L 397.621094 263.09375 L 397.621094 273.386719 L 397.574219 280.71875 L 397.574219 283.726562 L 397.339844 359.539062 C 397.292969 371.945312 405.050781 386.375 415.394531 394.035156 Z M 415.394531 394.035156 " fill-opacity="1" fill-rule="nonzero"/><g clip-path="url(#2ce707465d)"><path fill="#bac1ce" d="M 298.488281 269.914062 C 288.070312 263.902344 279.574219 268.738281 279.542969 280.707031 L 279.519531 288.84375 L 282.160156 290.367188 L 282.179688 282.230469 C 282.210938 271.929688 289.535156 267.785156 298.480469 272.945312 L 301.855469 274.894531 C 310.824219 280.070312 318.078125 292.628906 318.050781 302.925781 L 317.753906 406.839844 C 317.71875 419.652344 326.773438 435.304688 337.90625 441.726562 C 349.058594 448.164062 358.152344 442.988281 358.1875 430.175781 L 358.222656 418.402344 L 355.582031 416.878906 L 355.546875 428.652344 C 355.515625 439.769531 347.617188 444.296875 337.914062 438.695312 C 328.234375 433.109375 320.363281 419.484375 320.394531 408.363281 L 320.6875 304.449219 C 320.722656 292.484375 312.28125 277.875 301.867188 271.863281 Z M 298.488281 269.914062 " fill-opacity="1" fill-rule="nonzero"/></g><path fill="#cad0dd" d="M 358.222656 418.402344 L 442.238281 369.597656 L 439.601562 368.074219 L 355.582031 416.878906 Z M 358.222656 418.402344 " fill-opacity="1" fill-rule="nonzero"/><path fill="#e4e8f4" d="M 352.285156 443.128906 L 436.292969 394.3125 C 439.941406 392.226562 442.179688 387.722656 442.214844 381.355469 L 442.253906 369.589844 L 358.210938 418.40625 L 358.171875 430.171875 C 358.171875 436.539062 355.898438 441.007812 352.285156 443.128906 Z M 352.285156 443.128906 " fill-opacity="1" fill-rule="nonzero"/><path fill="#fa5168" d="M 380.871094 293.5625 L 380.992188 337.589844 L 389.992188 332.394531 L 389.867188 288.371094 Z M 380.871094 293.5625 " fill-opacity="1" fill-rule="nonzero"/><path fill="#75ca75" d="M 365.53125 310.882812 L 365.632812 346.453125 L 374.628906 341.261719 L 374.527344 305.691406 Z M 365.53125 310.882812 " fill-opacity="1" fill-rule="nonzero"/><path fill="#576cfb" d="M 350.160156 311.285156 L 350.285156 355.308594 L 359.269531 350.125 L 359.144531 306.101562 Z M 350.160156 311.285156 " fill-opacity="1" fill-rule="nonzero"/><path fill="#f9bb4a" d="M 334.84375 335.445312 L 334.921875 364.175781 L 343.90625 358.992188 L 343.824219 330.261719 Z M 334.84375 335.445312 " fill-opacity="1" fill-rule="nonzero"/><path fill="#fa5168" d="M 444.375 315 L 444.238281 349.414062 C 444.234375 350.425781 443.570312 351.4375 442.242188 352.207031 C 439.566406 353.761719 435.203125 353.769531 432.511719 352.214844 C 431.15625 351.433594 430.480469 350.402344 430.484375 349.375 L 430.617188 314.960938 C 430.617188 315.988281 431.292969 317.019531 432.648438 317.800781 C 435.339844 319.355469 439.703125 319.347656 442.375 317.792969 C 443.707031 317.023438 444.371094 316.011719 444.375 315 Z M 444.375 315 " fill-opacity="1" fill-rule="nonzero"/><path fill="#f9607f" d="M 442.34375 312.167969 C 445.035156 313.722656 445.050781 316.242188 442.375 317.792969 C 439.703125 319.347656 435.339844 319.355469 432.648438 317.800781 C 429.953125 316.25 429.941406 313.714844 432.613281 312.160156 C 435.289062 310.609375 439.652344 310.613281 442.34375 312.167969 Z M 442.34375 312.167969 " fill-opacity="1" fill-rule="nonzero"/><path fill="#37617b" d="M 441.636719 303.652344 L 441.554688 314.421875 C 441.550781 315.035156 441.148438 315.648438 440.34375 316.113281 C 438.722656 317.054688 436.082031 317.058594 434.449219 316.121094 C 433.628906 315.644531 433.21875 315.023438 433.222656 314.398438 L 433.304688 303.628906 C 433.300781 304.25 433.710938 304.875 434.53125 305.347656 C 436.164062 306.289062 438.804688 306.285156 440.425781 305.34375 C 441.230469 304.875 441.632812 304.265625 441.636719 303.652344 Z M 441.636719 303.652344 " fill-opacity="1" fill-rule="nonzero"/><path fill="#cad0dd" d="M 440.800781 300.1875 C 442.644531 301.25 442.652344 302.980469 440.820312 304.042969 C 438.988281 305.109375 435.996094 305.113281 434.148438 304.046875 C 432.304688 302.984375 432.296875 301.246094 434.128906 300.179688 C 435.960938 299.117188 438.953125 299.121094 440.800781 300.1875 Z M 440.800781 300.1875 " fill-opacity="1" fill-rule="nonzero"/><path fill="#5b5e71" d="M 457.730469 249.699219 C 453.378906 247.152344 419.234375 305.992188 423.585938 308.542969 L 417.089844 304.886719 C 412.78125 302.378906 410.0625 297.027344 410.0625 289.378906 C 410.019531 274.074219 420.8125 255.386719 434.15625 247.695312 C 440.886719 243.808594 446.953125 243.429688 451.34375 245.980469 Z M 457.730469 249.699219 " fill-opacity="1" fill-rule="nonzero"/><g clip-path="url(#144ca0be77)"><path fill="#474b59" d="M 440.574219 251.390625 C 453.925781 243.683594 464.75 249.882812 464.796875 265.21875 C 464.839844 280.554688 454.085938 299.199219 440.730469 306.90625 C 427.378906 314.613281 416.5 308.445312 416.457031 293.109375 C 416.414062 277.773438 427.222656 259.097656 440.574219 251.390625 Z M 440.574219 251.390625 " fill-opacity="1" fill-rule="nonzero"/></g><path fill="#5b5e71" d="M 454.214844 252.710938 C 456.015625 254.925781 456.976562 258.355469 457.019531 262.660156 C 457.058594 276.414062 446.980469 293.847656 435.058594 300.746094 C 431.921875 302.546875 428.867188 303.507812 426.273438 303.507812 C 425.269531 303.507812 424.308594 303.339844 423.429688 303.046875 C 423.515625 303.171875 423.597656 303.257812 423.683594 303.382812 C 425.230469 305.09375 427.320312 306.058594 429.871094 306.058594 C 432.464844 306.058594 435.519531 305.09375 438.65625 303.296875 C 450.578125 296.398438 460.65625 278.964844 460.617188 265.210938 C 460.574219 258.523438 458.230469 254.046875 454.214844 252.710938 Z M 454.214844 252.710938 " fill-opacity="1" fill-rule="nonzero"/><path fill="#748bfd" d="M 457.023438 262.664062 C 457.058594 275.378906 448.425781 291.261719 437.699219 299.007812 C 436.816406 299.664062 435.933594 300.21875 435.050781 300.742188 C 433.96875 301.363281 432.925781 301.882812 431.878906 302.277344 C 430.898438 302.667969 429.980469 302.996094 429.066406 303.191406 C 428.085938 303.421875 427.167969 303.519531 426.285156 303.519531 C 425.273438 303.519531 424.324219 303.355469 423.441406 303.0625 C 422.753906 302.210938 422.164062 301.164062 421.742188 299.921875 C 421.019531 298.027344 420.660156 295.738281 420.628906 293.09375 C 420.597656 280.804688 428.738281 265.472656 439.039062 257.464844 C 444.972656 252.855469 449.746094 252.359375 449.796875 252.335938 C 451.492188 252.242188 452.179688 252.050781 454.210938 252.726562 C 456.363281 255.378906 456.988281 259.234375 457.023438 262.664062 Z M 457.023438 262.664062 " fill-opacity="1" fill-rule="nonzero"/><path fill="#97abf7" d="M 449.796875 252.335938 L 429.066406 303.191406 C 428.085938 303.421875 427.167969 303.519531 426.285156 303.519531 C 425.273438 303.519531 424.324219 303.355469 423.441406 303.0625 C 422.753906 302.210938 422.164062 301.164062 421.742188 299.921875 L 439.039062 257.464844 C 444.972656 252.855469 449.746094 252.359375 449.796875 252.335938 Z M 449.796875 252.335938 " fill-opacity="1" fill-rule="nonzero"/><path fill="#97abf7" d="M 455.617188 255.113281 L 437.699219 299.007812 C 436.816406 299.664062 435.933594 300.21875 435.050781 300.742188 C 433.96875 301.363281 432.925781 301.882812 431.878906 302.277344 L 452.25 252.269531 C 452.96875 252.367188 453.625 252.53125 454.210938 252.726562 C 454.769531 253.414062 455.257812 254.199219 455.617188 255.113281 Z M 455.617188 255.113281 " fill-opacity="1" fill-rule="nonzero"/><path fill="#4c7891" d="M 370.542969 390.480469 L 328.449219 414.761719 C 328.167969 413.871094 327.980469 412.976562 327.792969 412.082031 L 369.648438 387.941406 C 369.933594 388.785156 370.214844 389.632812 370.542969 390.480469 Z M 370.542969 390.480469 " fill-opacity="1" fill-rule="nonzero"/><path fill="#4c7891" d="M 389.417969 390.070312 L 332.210938 423.082031 C 331.789062 422.328125 331.316406 421.578125 330.941406 420.824219 L 388.101562 387.863281 C 388.527344 388.613281 388.949219 389.367188 389.417969 390.070312 Z M 389.417969 390.070312 " fill-opacity="1" fill-rule="nonzero"/><path fill="#4c7891" d="M 397.714844 364.191406 L 397.714844 364.238281 L 327.460938 404.75 L 327.460938 401.789062 L 397.433594 361.417969 C 397.433594 362.355469 397.527344 363.25 397.714844 364.191406 Z M 397.714844 364.191406 " fill-opacity="1" fill-rule="nonzero"/><path fill="#cad0dd" d="M 382.601562 359.425781 L 382.554688 362.433594 L 327.507812 394.222656 L 327.507812 391.214844 Z M 382.601562 359.425781 " fill-opacity="1" fill-rule="nonzero"/><path fill="#cad0dd" d="M 397.386719 339.75 L 397.339844 342.757812 L 327.507812 383.085938 L 327.507812 380.078125 Z M 397.386719 339.75 " fill-opacity="1" fill-rule="nonzero"/><path fill="#37617b" d="M 393.089844 329.394531 L 393.046875 332.015625 L 332.253906 367.121094 L 332.253906 364.503906 Z M 393.089844 329.394531 " fill-opacity="1" fill-rule="nonzero"/><path fill="#cad0dd" d="M 353.875 295.636719 L 353.875 298.644531 L 327.695312 313.757812 L 327.746094 310.703125 Z M 353.875 295.636719 " fill-opacity="1" fill-rule="nonzero"/><path fill="#cad0dd" d="M 362.671875 280.246094 L 362.625 283.300781 L 327.695312 303.464844 C 327.695312 302.480469 327.652344 301.492188 327.507812 300.503906 Z M 362.671875 280.246094 " fill-opacity="1" fill-rule="nonzero"/><path fill="#748bfd" d="M 371.230469 268.09375 L 326.191406 294.019531 C 326.003906 293.171875 325.722656 292.328125 325.394531 291.480469 L 370.714844 265.324219 C 370.949219 266.261719 371.136719 267.203125 371.230469 268.09375 Z M 371.230469 268.09375 " fill-opacity="1" fill-rule="nonzero"/><path fill="#efac41" d="M 377.347656 254.207031 L 322.996094 285.605469 C 322.617188 284.804688 322.195312 284.007812 321.773438 283.253906 L 376.171875 251.859375 C 376.59375 252.609375 377.019531 253.410156 377.347656 254.207031 Z M 377.347656 254.207031 " fill-opacity="1" fill-rule="nonzero"/><path fill="#4c7891" d="M 381.582031 241.542969 L 318.386719 277.945312 C 317.871094 277.238281 317.351562 276.535156 316.789062 275.828125 L 379.84375 239.425781 C 380.40625 240.085938 381.019531 240.789062 381.582031 241.542969 Z M 381.582031 241.542969 " fill-opacity="1" fill-rule="nonzero"/><path fill="#fa5168" d="M 383.65625 230.003906 L 312.414062 271.082031 C 311.757812 270.472656 311.097656 269.859375 310.394531 269.25 L 381.117188 228.453125 L 382.339844 229.160156 C 382.808594 229.394531 383.230469 229.675781 383.65625 230.003906 Z M 383.65625 230.003906 " fill-opacity="1" fill-rule="nonzero"/></svg>