<svg xmlns="http://www.w3.org/2000/svg" xmlns:xlink="http://www.w3.org/1999/xlink" width="1024" zoomAndPan="magnify" viewBox="0 0 768 576" height="768" preserveAspectRatio="xMidYMid meet" version="1.0"><defs><clipPath id="42115d77be"><path d="M 244 179 L 498 179 L 498 355.738281 L 244 355.738281 Z M 244 179 " clip-rule="nonzero"/></clipPath><clipPath id="2913f63b65"><path d="M 302 323 L 322 323 L 322 355.738281 L 302 355.738281 Z M 302 323 " clip-rule="nonzero"/></clipPath><clipPath id="f1b0289fe4"><path d="M 246 276 L 314 276 L 314 355.738281 L 246 355.738281 Z M 246 276 " clip-rule="nonzero"/></clipPath></defs><g clip-path="url(#42115d77be)"><path fill="#ebf9ff" d="M 464.179688 345.105469 C 425.453125 340.835938 399.816406 355.746094 321.890625 355.179688 C 318.550781 355.15625 315.09375 355.097656 311.523438 355.007812 C 309.242188 354.953125 306.917969 354.878906 304.542969 354.792969 C 302.984375 354.738281 301.40625 354.675781 299.800781 354.605469 C 266.703125 353.167969 252.066406 344.640625 246.894531 333.097656 C 236.863281 310.71875 262.378906 277.003906 257.894531 261.617188 C 251.09375 238.296875 242.128906 208.582031 265.226562 192.386719 C 289.308594 175.5 414.320312 174.246094 462.824219 195.453125 C 511.328125 216.660156 506.316406 349.75 464.179688 345.105469 Z M 464.179688 345.105469 " fill-opacity="1" fill-rule="nonzero"/></g><path fill="#e86e52" d="M 490.214844 227.328125 L 490.214844 234.296875 L 355.039062 234.296875 L 355.039062 227.328125 C 355.039062 227.011719 355.070312 226.703125 355.128906 226.394531 C 355.191406 226.085938 355.28125 225.785156 355.402344 225.496094 C 355.523438 225.207031 355.667969 224.929688 355.84375 224.667969 C 356.019531 224.410156 356.214844 224.167969 356.4375 223.945312 C 356.660156 223.722656 356.902344 223.523438 357.160156 223.351562 C 357.421875 223.175781 357.699219 223.027344 357.988281 222.90625 C 358.277344 222.789062 358.574219 222.695312 358.882812 222.636719 C 359.191406 222.574219 359.5 222.542969 359.816406 222.542969 L 485.441406 222.542969 C 485.753906 222.542969 486.066406 222.574219 486.375 222.636719 C 486.679688 222.699219 486.980469 222.789062 487.269531 222.910156 C 487.558594 223.027344 487.835938 223.175781 488.09375 223.351562 C 488.355469 223.523438 488.597656 223.722656 488.816406 223.945312 C 489.039062 224.167969 489.238281 224.410156 489.410156 224.667969 C 489.585938 224.929688 489.734375 225.207031 489.851562 225.496094 C 489.972656 225.785156 490.0625 226.085938 490.125 226.394531 C 490.1875 226.703125 490.214844 227.011719 490.214844 227.328125 Z M 490.214844 227.328125 " fill-opacity="1" fill-rule="nonzero"/><path fill="#333749" d="M 485.441406 317.289062 L 359.816406 317.289062 C 359.445312 317.289062 359.078125 317.253906 358.714844 317.179688 C 358.355469 317.109375 358 317 357.660156 316.859375 C 357.320312 316.71875 356.996094 316.542969 356.6875 316.339844 C 356.378906 316.132812 356.09375 315.898438 355.835938 315.636719 C 355.574219 315.375 355.339844 315.089844 355.132812 314.78125 C 354.929688 314.472656 354.753906 314.148438 354.613281 313.808594 C 354.472656 313.464844 354.363281 313.113281 354.292969 312.75 C 354.21875 312.386719 354.183594 312.019531 354.183594 311.648438 L 354.183594 227.328125 C 354.183594 226.957031 354.21875 226.589844 354.292969 226.226562 C 354.363281 225.863281 354.472656 225.511719 354.613281 225.167969 C 354.753906 224.828125 354.929688 224.503906 355.132812 224.195312 C 355.339844 223.886719 355.574219 223.601562 355.835938 223.339844 C 356.09375 223.078125 356.378906 222.84375 356.6875 222.636719 C 356.996094 222.433594 357.320312 222.257812 357.660156 222.117188 C 358 221.976562 358.355469 221.867188 358.714844 221.796875 C 359.078125 221.722656 359.445312 221.6875 359.816406 221.6875 L 485.441406 221.6875 C 485.8125 221.6875 486.179688 221.722656 486.539062 221.796875 C 486.902344 221.867188 487.253906 221.976562 487.597656 222.117188 C 487.9375 222.257812 488.261719 222.433594 488.570312 222.640625 C 488.875 222.84375 489.160156 223.078125 489.421875 223.339844 C 489.683594 223.601562 489.917969 223.886719 490.121094 224.195312 C 490.328125 224.503906 490.5 224.828125 490.644531 225.167969 C 490.785156 225.511719 490.890625 225.863281 490.964844 226.226562 C 491.035156 226.589844 491.074219 226.957031 491.074219 227.328125 L 491.074219 311.648438 C 491.074219 312.019531 491.035156 312.386719 490.964844 312.75 C 490.890625 313.113281 490.785156 313.464844 490.644531 313.808594 C 490.5 314.148438 490.328125 314.472656 490.121094 314.78125 C 489.917969 315.089844 489.683594 315.375 489.421875 315.636719 C 489.160156 315.898438 488.875 316.132812 488.570312 316.335938 C 488.261719 316.542969 487.9375 316.71875 487.597656 316.859375 C 487.253906 317 486.902344 317.109375 486.539062 317.179688 C 486.179688 317.253906 485.8125 317.289062 485.441406 317.289062 Z M 359.816406 223.402344 C 359.296875 223.402344 358.796875 223.503906 358.316406 223.703125 C 357.835938 223.902344 357.414062 224.183594 357.042969 224.550781 C 356.675781 224.921875 356.394531 225.34375 356.195312 225.824219 C 355.996094 226.304688 355.894531 226.808594 355.894531 227.328125 L 355.894531 311.648438 C 355.894531 312.171875 355.996094 312.671875 356.195312 313.152344 C 356.394531 313.632812 356.675781 314.054688 357.042969 314.425781 C 357.414062 314.792969 357.835938 315.074219 358.316406 315.273438 C 358.796875 315.472656 359.296875 315.574219 359.816406 315.574219 L 485.441406 315.574219 C 485.960938 315.574219 486.460938 315.472656 486.941406 315.273438 C 487.421875 315.074219 487.84375 314.792969 488.210938 314.421875 C 488.578125 314.054688 488.863281 313.632812 489.0625 313.152344 C 489.261719 312.671875 489.359375 312.167969 489.359375 311.648438 L 489.359375 227.328125 C 489.359375 226.808594 489.261719 226.304688 489.0625 225.824219 C 488.863281 225.34375 488.578125 224.921875 488.210938 224.554688 C 487.84375 224.183594 487.421875 223.902344 486.941406 223.703125 C 486.460938 223.503906 485.960938 223.402344 485.441406 223.402344 Z M 359.816406 223.402344 " fill-opacity="1" fill-rule="nonzero"/><path fill="#333749" d="M 342.398438 285.359375 C 342.398438 285.359375 338.820312 289.851562 344.386719 290.984375 C 349.953125 292.113281 349.808594 287.433594 349.808594 287.433594 Z M 342.398438 285.359375 " fill-opacity="1" fill-rule="nonzero"/><path fill="#e86e52" d="M 328.132812 305.140625 C 329.828125 303.492188 331.382812 301.71875 332.792969 299.816406 C 334.273438 297.785156 336.433594 295.742188 337.46875 295.402344 C 338.621094 295.027344 339.773438 296.738281 339.457031 298.371094 C 339.078125 300.320312 337.082031 302.289062 337.082031 302.289062 Z M 328.132812 305.140625 " fill-opacity="1" fill-rule="nonzero"/><path fill="#333749" d="M 344.3125 285.359375 C 344.3125 285.359375 326.421875 319.664062 333.070312 322.492188 C 339.722656 325.320312 346.90625 286.421875 346.90625 286.421875 Z M 344.3125 285.359375 " fill-opacity="1" fill-rule="nonzero"/><path fill="#333749" d="M 268.011719 261.886719 C 268.011719 261.886719 297.898438 258.257812 312.570312 277.707031 C 300.605469 291.953125 298.035156 295.808594 296.003906 293.546875 C 293.972656 291.285156 268.011719 261.886719 268.011719 261.886719 Z M 268.011719 261.886719 " fill-opacity="1" fill-rule="nonzero"/><path fill="#368cc1" d="M 330.234375 218.164062 L 310.347656 227.058594 L 272.058594 228.867188 C 272.058594 228.867188 273.476562 223.5 275.304688 217.519531 C 277.101562 211.644531 279.296875 205.179688 280.933594 202.636719 C 287.34375 192.707031 304.449219 197.972656 306.199219 197.8125 C 307.53125 197.691406 307.367188 194.496094 312.40625 195.738281 C 316.003906 196.628906 320.386719 202.085938 323.902344 207.394531 C 326.195312 210.878906 328.304688 214.46875 330.234375 218.164062 Z M 330.234375 218.164062 " fill-opacity="1" fill-rule="nonzero"/><path fill="#333749" d="M 330.234375 218.164062 L 310.347656 227.058594 L 272.058594 228.867188 C 272.058594 228.867188 273.476562 223.5 275.304688 217.519531 C 283.960938 214.167969 302.066406 208.257812 323.902344 207.394531 C 326.195312 210.878906 328.304688 214.46875 330.234375 218.164062 Z M 330.234375 218.164062 " fill-opacity="1" fill-rule="nonzero"/><path fill="#368cc1" d="M 347.40625 230.828125 C 347.40625 230.828125 295.921875 252.6875 261.015625 245.753906 C 284.675781 227.210938 320.257812 224.796875 320.257812 224.796875 C 320.257812 224.796875 326.414062 224.195312 328.917969 224.796875 C 331.425781 225.402344 347.40625 230.828125 347.40625 230.828125 Z M 347.40625 230.828125 " fill-opacity="1" fill-rule="nonzero"/><g clip-path="url(#2913f63b65)"><path fill="#333749" d="M 321.890625 355.179688 C 316.421875 355.140625 310.636719 355.011719 304.542969 354.792969 C 303.277344 351.398438 302.605469 345.621094 302.667969 345.394531 C 302.839844 344.800781 311.023438 323.308594 311.023438 323.308594 L 319.578125 323.640625 Z M 321.890625 355.179688 " fill-opacity="1" fill-rule="nonzero"/></g><path fill="#333749" d="M 305.722656 287.46875 C 278.222656 290.496094 293.582031 332.039062 293.582031 332.039062 L 322.113281 324.84375 C 322.113281 324.84375 318.464844 286.066406 305.722656 287.46875 Z M 305.722656 287.46875 " fill-opacity="1" fill-rule="nonzero"/><g clip-path="url(#f1b0289fe4)"><path fill="#368cc1" d="M 313.589844 354.144531 C 312.898438 354.449219 312.210938 354.738281 311.523438 355.007812 C 309.242188 354.953125 306.917969 354.878906 304.542969 354.792969 C 302.984375 354.738281 301.40625 354.675781 299.800781 354.605469 C 266.703125 353.167969 252.066406 344.640625 246.894531 333.097656 C 248.109375 324.527344 250.917969 308.367188 256.171875 295.6875 C 259.777344 286.980469 264.535156 279.914062 270.71875 278.074219 C 273.703125 277.183594 276.824219 276.855469 279.96875 276.933594 C 287.9375 277.125 296.039062 279.929688 302.378906 282.839844 C 309.5 286.113281 310.066406 290.617188 310.066406 290.617188 C 310.066406 290.617188 315.167969 321.851562 313.589844 354.144531 Z M 313.589844 354.144531 " fill-opacity="1" fill-rule="nonzero"/></g><path fill="#ffa38a" d="M 281.617188 277.269531 C 288.574219 286.4375 298.207031 286.402344 298.046875 283.992188 C 297.910156 281.894531 297.996094 278.320312 298.019531 277.417969 C 298.023438 277.28125 298.023438 277.207031 298.023438 277.207031 L 299.804688 270.566406 L 287.433594 263.375 C 287.433594 263.375 284.125 272.546875 282.34375 276.066406 C 282.054688 276.636719 281.804688 277.058594 281.617188 277.269531 Z M 281.617188 277.269531 " fill-opacity="1" fill-rule="nonzero"/><path fill="#e86e52" d="M 282.34375 276.066406 C 286.851562 278.222656 293.617188 277.929688 298.019531 277.417969 C 298.023438 277.28125 298.023438 277.207031 298.023438 277.207031 L 299.804688 270.566406 L 287.433594 263.375 C 287.433594 263.375 284.125 272.546875 282.34375 276.066406 Z M 282.34375 276.066406 " fill-opacity="1" fill-rule="nonzero"/><path fill="#333749" d="M 327.585938 248.679688 C 327.585938 248.679688 335.078125 244.109375 331.199219 235.742188 C 336.890625 227.332031 329.449219 213.039062 311.046875 212.605469 C 286.039062 212.015625 272.644531 221.046875 274.992188 236.628906 C 278.414062 259.34375 287.28125 267.292969 287.28125 267.292969 Z M 327.585938 248.679688 " fill-opacity="1" fill-rule="nonzero"/><path fill="#ffa38a" d="M 278.097656 240.09375 C 271.828125 247.78125 277.867188 251.863281 283.378906 254.289062 C 279.601562 262.667969 290.738281 281.402344 312.570312 277.707031 C 331.226562 274.550781 330.734375 247.796875 329.199219 233.230469 C 320.203125 244.902344 304.367188 231.582031 304.367188 231.582031 C 304.367188 231.582031 303.75 237.488281 294.597656 235.671875 C 296.109375 240.390625 287.71875 243.265625 287.71875 243.265625 C 287.71875 243.265625 284.703125 231.992188 278.097656 240.09375 Z M 278.097656 240.09375 " fill-opacity="1" fill-rule="nonzero"/><path fill="#e86e52" d="M 310.800781 258.101562 C 310.5 258.101562 310.199219 258.074219 309.902344 258.019531 C 309.691406 257.984375 309.523438 257.875 309.402344 257.699219 C 309.28125 257.523438 309.238281 257.328125 309.273438 257.117188 C 309.3125 256.90625 309.417969 256.738281 309.59375 256.613281 C 309.769531 256.492188 309.964844 256.449219 310.175781 256.484375 C 311.636719 256.746094 313.023438 256.03125 313.355469 255.230469 C 313.617188 254.589844 313.082031 254.046875 312.582031 253.699219 C 309.949219 251.863281 310.042969 248.878906 310.457031 247.554688 C 310.523438 247.351562 310.652344 247.199219 310.839844 247.097656 C 311.03125 247 311.230469 246.980469 311.433594 247.046875 C 311.640625 247.109375 311.792969 247.238281 311.890625 247.429688 C 311.992188 247.621094 312.007812 247.816406 311.945312 248.023438 C 311.90625 248.144531 311.140625 250.792969 313.472656 252.417969 C 314.796875 253.34375 315.292969 254.617188 314.792969 255.824219 C 314.230469 257.195312 312.574219 258.101562 310.800781 258.101562 Z M 310.800781 258.101562 " fill-opacity="1" fill-rule="nonzero"/><path fill="#e86e52" d="M 322.265625 258.140625 C 322.757812 258.242188 323.21875 258.414062 323.644531 258.644531 C 324.070312 258.878906 324.433594 259.160156 324.726562 259.484375 C 325.023438 259.8125 325.230469 260.160156 325.347656 260.527344 C 325.46875 260.898438 325.492188 261.261719 325.414062 261.621094 C 325.339844 261.976562 325.171875 262.300781 324.914062 262.589844 C 324.65625 262.878906 324.324219 263.113281 323.921875 263.292969 C 323.523438 263.46875 323.078125 263.578125 322.59375 263.621094 C 322.109375 263.660156 321.621094 263.628906 321.128906 263.523438 C 320.636719 263.417969 320.175781 263.25 319.75 263.015625 C 319.324219 262.78125 318.960938 262.503906 318.667969 262.175781 C 318.371094 261.851562 318.164062 261.503906 318.046875 261.132812 C 317.925781 260.761719 317.90625 260.398438 317.980469 260.042969 C 318.054688 259.683594 318.222656 259.363281 318.480469 259.070312 C 318.738281 258.78125 319.070312 258.546875 319.472656 258.371094 C 319.871094 258.191406 320.316406 258.082031 320.800781 258.042969 C 321.285156 258.003906 321.773438 258.035156 322.265625 258.140625 Z M 322.265625 258.140625 " fill-opacity="1" fill-rule="nonzero"/><path fill="#e86e52" d="M 302.640625 257.898438 C 302.675781 258.261719 302.613281 258.617188 302.453125 258.972656 C 302.292969 259.328125 302.050781 259.648438 301.71875 259.941406 C 301.390625 260.230469 301 260.46875 300.546875 260.652344 C 300.097656 260.835938 299.621094 260.953125 299.121094 261 C 298.621094 261.046875 298.128906 261.027344 297.652344 260.929688 C 297.175781 260.835938 296.75 260.679688 296.371094 260.457031 C 295.992188 260.234375 295.6875 259.964844 295.464844 259.644531 C 295.238281 259.328125 295.109375 258.988281 295.074219 258.625 C 295.039062 258.261719 295.101562 257.90625 295.261719 257.550781 C 295.421875 257.195312 295.667969 256.875 295.996094 256.582031 C 296.328125 256.292969 296.71875 256.054688 297.167969 255.871094 C 297.617188 255.6875 298.09375 255.570312 298.59375 255.523438 C 299.097656 255.472656 299.585938 255.496094 300.0625 255.589844 C 300.539062 255.6875 300.96875 255.84375 301.347656 256.066406 C 301.726562 256.289062 302.027344 256.558594 302.253906 256.875 C 302.476562 257.195312 302.605469 257.535156 302.640625 257.898438 Z M 302.640625 257.898438 " fill-opacity="1" fill-rule="nonzero"/><path fill="#e86e52" d="M 285.382812 244.746094 C 285.382812 244.746094 284.371094 240.550781 281.992188 240.660156 C 279.609375 240.773438 275.964844 249.039062 282.519531 251.253906 C 280.480469 247.328125 284.253906 248.382812 284.253906 248.382812 C 284.253906 248.382812 285.898438 247.398438 285.382812 244.746094 Z M 285.382812 244.746094 " fill-opacity="1" fill-rule="nonzero"/><path fill="#e86e52" d="M 312.234375 267.863281 C 307.25 267.863281 303.507812 265.058594 303.308594 264.90625 C 303.136719 264.777344 303.039062 264.605469 303.007812 264.390625 C 302.980469 264.175781 303.03125 263.984375 303.160156 263.8125 C 303.292969 263.640625 303.464844 263.542969 303.675781 263.511719 C 303.890625 263.484375 304.082031 263.535156 304.253906 263.664062 C 304.335938 263.726562 309.894531 267.851562 316.089844 265.632812 C 316.289062 265.5625 316.488281 265.570312 316.683594 265.664062 C 316.878906 265.753906 317.011719 265.902344 317.082031 266.105469 C 317.15625 266.308594 317.144531 266.507812 317.054688 266.703125 C 316.960938 266.894531 316.816406 267.03125 316.613281 267.101562 C 315.199219 267.609375 313.738281 267.863281 312.234375 267.863281 Z M 312.234375 267.863281 " fill-opacity="1" fill-rule="nonzero"/><path fill="#ffa38a" d="M 328.132812 305.140625 C 328.132812 305.140625 317.542969 309.941406 307.484375 307.988281 C 297.425781 306.03125 275.300781 308.90625 277.832031 321.699219 C 280.367188 334.488281 313.339844 328.433594 328.46875 317.464844 C 331.558594 312.8125 328.132812 305.140625 328.132812 305.140625 Z M 328.132812 305.140625 " fill-opacity="1" fill-rule="nonzero"/><path fill="#e86e52" d="M 347.917969 298.78125 C 347.917969 298.78125 351.152344 310.570312 348.300781 313.8125 C 346.847656 315.71875 342.648438 315.671875 342.648438 315.671875 C 342.648438 315.671875 335.148438 310.488281 335.324219 310.015625 C 335.503906 309.542969 342.457031 299.332031 342.457031 299.332031 Z M 347.917969 298.78125 " fill-opacity="1" fill-rule="nonzero"/><path fill="#ffa38a" d="M 328.132812 305.140625 C 328.132812 305.140625 332.324219 301.636719 341.410156 297.441406 C 344.53125 306.273438 342.648438 315.671875 342.648438 315.671875 C 342.648438 315.671875 333.230469 317.378906 328.46875 317.464844 C 326.332031 308.289062 328.132812 305.140625 328.132812 305.140625 Z M 328.132812 305.140625 " fill-opacity="1" fill-rule="nonzero"/><path fill="#333749" d="M 330.992188 325.507812 C 302.550781 332.140625 288.09375 332.816406 278.992188 328.859375 C 278.992188 328.859375 243.375 302.601562 264.695312 284.941406 C 274.574219 276.753906 298.886719 307.144531 298.886719 307.144531 L 326.027344 303.671875 C 326.027344 303.671875 330.839844 317.667969 330.992188 325.507812 Z M 330.992188 325.507812 " fill-opacity="1" fill-rule="nonzero"/><path fill="#ffa38a" d="M 341.410156 297.441406 C 341.410156 297.441406 345.785156 295.234375 347.964844 294.753906 C 350.722656 294.148438 349.789062 298.207031 348.96875 299.085938 C 348.152344 299.964844 340.699219 303.675781 340.699219 303.675781 Z M 341.410156 297.441406 " fill-opacity="1" fill-rule="nonzero"/><path fill="#333749" d="M 306.8125 250.542969 C 306.8125 250.886719 306.746094 251.21875 306.613281 251.539062 C 306.480469 251.859375 306.292969 252.140625 306.050781 252.382812 C 305.804688 252.628906 305.523438 252.816406 305.207031 252.949219 C 304.886719 253.082031 304.554688 253.148438 304.210938 253.148438 C 303.867188 253.148438 303.535156 253.082031 303.214844 252.949219 C 302.898438 252.816406 302.617188 252.628906 302.371094 252.382812 C 302.128906 252.140625 301.941406 251.859375 301.808594 251.539062 C 301.675781 251.21875 301.609375 250.886719 301.609375 250.542969 C 301.609375 250.195312 301.675781 249.863281 301.808594 249.542969 C 301.941406 249.226562 302.128906 248.945312 302.371094 248.699219 C 302.617188 248.457031 302.898438 248.265625 303.214844 248.136719 C 303.535156 248.003906 303.867188 247.9375 304.210938 247.9375 C 304.554688 247.9375 304.886719 248.003906 305.207031 248.136719 C 305.523438 248.265625 305.804688 248.457031 306.050781 248.699219 C 306.292969 248.945312 306.480469 249.226562 306.613281 249.542969 C 306.746094 249.863281 306.8125 250.195312 306.8125 250.542969 Z M 306.8125 250.542969 " fill-opacity="1" fill-rule="nonzero"/><path fill="#333749" d="M 323.222656 251.226562 C 323.328125 251.554688 323.367188 251.890625 323.335938 252.234375 C 323.308594 252.582031 323.214844 252.90625 323.054688 253.210938 C 322.898438 253.519531 322.6875 253.785156 322.425781 254.007812 C 322.160156 254.230469 321.863281 254.394531 321.535156 254.5 C 321.207031 254.605469 320.871094 254.640625 320.527344 254.613281 C 320.183594 254.585938 319.859375 254.492188 319.554688 254.332031 C 319.246094 254.171875 318.980469 253.960938 318.757812 253.699219 C 318.535156 253.433594 318.375 253.136719 318.269531 252.808594 C 318.164062 252.480469 318.125 252.144531 318.15625 251.796875 C 318.183594 251.453125 318.277344 251.128906 318.4375 250.820312 C 318.59375 250.515625 318.804688 250.25 319.066406 250.027344 C 319.332031 249.804688 319.628906 249.640625 319.957031 249.535156 C 320.285156 249.429688 320.621094 249.390625 320.964844 249.421875 C 321.308594 249.449219 321.632812 249.542969 321.9375 249.703125 C 322.246094 249.863281 322.511719 250.074219 322.734375 250.335938 C 322.957031 250.601562 323.117188 250.898438 323.222656 251.226562 Z M 323.222656 251.226562 " fill-opacity="1" fill-rule="nonzero"/><path fill="#333749" d="M 308.375 245.351562 C 311.96875 243.660156 304.367188 238.8125 303.28125 240.109375 C 302.199219 241.402344 305.371094 246.761719 308.375 245.351562 Z M 308.375 245.351562 " fill-opacity="1" fill-rule="nonzero"/><path fill="#333749" d="M 317.019531 246.316406 C 314.320312 243.402344 323.179688 241.761719 323.699219 243.367188 C 324.222656 244.976562 319.273438 248.753906 317.019531 246.316406 Z M 317.019531 246.316406 " fill-opacity="1" fill-rule="nonzero"/><path fill="#e86e52" d="M 421.8125 300.921875 L 399.878906 300.921875 C 396.261719 300.921875 393.917969 297.101562 395.550781 293.871094 L 406.902344 271.417969 L 417.488281 250.472656 C 419.28125 246.921875 424.34375 246.921875 426.140625 250.472656 L 436.726562 271.417969 L 448.074219 293.871094 C 449.707031 297.101562 447.363281 300.921875 443.746094 300.921875 Z M 421.8125 300.921875 " fill-opacity="1" fill-rule="nonzero"/><path fill="#ebf9ff" d="M 421.832031 294.363281 C 420.515625 294.363281 419.433594 293.957031 418.589844 293.136719 C 418.183594 292.761719 417.867188 292.316406 417.648438 291.804688 C 417.429688 291.296875 417.320312 290.761719 417.324219 290.207031 C 417.3125 289.652344 417.417969 289.121094 417.640625 288.613281 C 417.859375 288.101562 418.175781 287.664062 418.589844 287.296875 C 419.433594 286.515625 420.515625 286.128906 421.832031 286.125 C 423.152344 286.125 424.226562 286.515625 425.054688 287.296875 C 425.460938 287.667969 425.777344 288.109375 425.992188 288.617188 C 426.210938 289.125 426.3125 289.652344 426.300781 290.207031 C 426.304688 290.761719 426.199219 291.292969 425.984375 291.800781 C 425.769531 292.3125 425.457031 292.757812 425.054688 293.136719 C 424.226562 293.957031 423.152344 294.367188 421.832031 294.363281 Z M 418.828125 283.910156 L 417.363281 266.28125 L 426.300781 266.28125 L 424.796875 283.910156 Z M 418.828125 283.910156 " fill-opacity="1" fill-rule="nonzero"/><path fill="#e86e52" d="M 470.515625 282.863281 L 460.371094 282.863281 C 460.179688 282.863281 459.988281 282.839844 459.804688 282.789062 C 459.617188 282.742188 459.441406 282.671875 459.277344 282.578125 C 459.109375 282.484375 458.957031 282.371094 458.816406 282.238281 C 458.679688 282.105469 458.558594 281.957031 458.460938 281.792969 C 458.359375 281.628906 458.28125 281.453125 458.226562 281.269531 C 458.167969 281.085938 458.136719 280.898438 458.128906 280.707031 C 458.121094 280.515625 458.136719 280.328125 458.179688 280.140625 C 458.21875 279.953125 458.28125 279.773438 458.371094 279.601562 L 463.617188 269.21875 L 468.511719 259.53125 C 468.703125 259.152344 468.980469 258.855469 469.339844 258.632812 C 469.699219 258.410156 470.089844 258.300781 470.515625 258.300781 C 470.9375 258.300781 471.328125 258.410156 471.6875 258.632812 C 472.046875 258.855469 472.324219 259.152344 472.515625 259.53125 L 477.410156 269.21875 L 482.660156 279.601562 C 482.746094 279.773438 482.808594 279.953125 482.851562 280.140625 C 482.890625 280.328125 482.90625 280.515625 482.898438 280.707031 C 482.890625 280.898438 482.859375 281.085938 482.804688 281.269531 C 482.746094 281.453125 482.667969 281.628906 482.570312 281.792969 C 482.46875 281.957031 482.347656 282.105469 482.210938 282.238281 C 482.074219 282.371094 481.921875 282.484375 481.753906 282.578125 C 481.585938 282.671875 481.410156 282.742188 481.222656 282.789062 C 481.039062 282.839844 480.851562 282.863281 480.660156 282.863281 Z M 470.515625 282.863281 " fill-opacity="1" fill-rule="nonzero"/><path fill="#ebf9ff" d="M 470.523438 279.828125 C 469.945312 279.851562 469.445312 279.660156 469.023438 279.261719 C 468.628906 278.894531 468.433594 278.445312 468.4375 277.90625 C 468.425781 277.367188 468.621094 276.917969 469.023438 276.558594 C 469.449219 276.175781 469.949219 275.996094 470.523438 276.019531 C 471.09375 275.996094 471.589844 276.175781 472.011719 276.558594 C 472.410156 276.921875 472.601562 277.371094 472.589844 277.90625 C 472.59375 278.441406 472.402344 278.894531 472.011719 279.261719 C 471.597656 279.664062 471.101562 279.851562 470.523438 279.828125 Z M 469.132812 274.992188 L 468.457031 266.84375 L 472.589844 266.84375 L 471.894531 274.992188 Z M 469.132812 274.992188 " fill-opacity="1" fill-rule="nonzero"/><path fill="#e86e52" d="M 383.726562 265.703125 L 374.789062 265.703125 C 374.621094 265.703125 374.453125 265.683594 374.292969 265.640625 C 374.128906 265.597656 373.972656 265.535156 373.824219 265.453125 C 373.679688 265.371094 373.542969 265.269531 373.421875 265.152344 C 373.300781 265.035156 373.195312 264.90625 373.105469 264.761719 C 373.019531 264.617188 372.949219 264.464844 372.898438 264.304688 C 372.851562 264.140625 372.824219 263.976562 372.816406 263.808594 C 372.808594 263.636719 372.824219 263.46875 372.859375 263.304688 C 372.894531 263.140625 372.949219 262.980469 373.027344 262.832031 L 377.652344 253.683594 L 381.964844 245.148438 C 382.132812 244.8125 382.375 244.550781 382.695312 244.355469 C 383.011719 244.160156 383.355469 244.0625 383.726562 244.0625 C 384.101562 244.0625 384.445312 244.160156 384.761719 244.355469 C 385.078125 244.550781 385.324219 244.8125 385.492188 245.148438 L 389.804688 253.683594 L 394.429688 262.832031 C 394.503906 262.980469 394.5625 263.140625 394.597656 263.304688 C 394.632812 263.46875 394.648438 263.636719 394.640625 263.808594 C 394.632812 263.976562 394.605469 264.140625 394.554688 264.304688 C 394.507812 264.464844 394.4375 264.617188 394.351562 264.761719 C 394.261719 264.90625 394.15625 265.035156 394.035156 265.152344 C 393.914062 265.269531 393.777344 265.371094 393.628906 265.453125 C 393.484375 265.535156 393.328125 265.597656 393.164062 265.640625 C 393 265.683594 392.835938 265.703125 392.667969 265.703125 Z M 383.726562 265.703125 " fill-opacity="1" fill-rule="nonzero"/><path fill="#ebf9ff" d="M 383.734375 263.03125 C 383.226562 263.050781 382.785156 262.882812 382.414062 262.53125 C 382.066406 262.210938 381.894531 261.8125 381.898438 261.335938 C 381.890625 260.863281 382.0625 260.46875 382.414062 260.152344 C 382.792969 259.8125 383.230469 259.65625 383.734375 259.675781 C 384.238281 259.65625 384.675781 259.8125 385.050781 260.152344 C 385.398438 260.46875 385.566406 260.863281 385.554688 261.335938 C 385.5625 261.808594 385.390625 262.207031 385.050781 262.53125 C 384.683594 262.886719 384.246094 263.050781 383.734375 263.03125 Z M 382.511719 258.769531 L 381.914062 251.589844 L 385.554688 251.589844 L 384.945312 258.769531 Z M 382.511719 258.769531 " fill-opacity="1" fill-rule="nonzero"/><path fill="#368cc1" d="M 271.777344 228.867188 C 265.011719 234.121094 262.65625 239.894531 261.015625 245.753906 C 261.015625 245.753906 302.4375 226.304688 347.40625 230.828125 C 338.324219 221.332031 329.953125 218.164062 329.953125 218.164062 C 329.953125 218.164062 302.824219 219.824219 271.777344 228.867188 Z M 271.777344 228.867188 " fill-opacity="1" fill-rule="nonzero"/><path fill="#368cc1" d="M 274.726562 277.210938 L 268.011719 261.886719 C 268.011719 261.886719 278.960938 264.597656 285.957031 272.175781 C 292.957031 279.75 297.582031 288.421875 297.582031 288.421875 C 297.582031 288.421875 307.832031 277.707031 312.570312 277.707031 C 312.121094 281.550781 307.175781 287.433594 307.175781 287.433594 L 297.886719 294.148438 Z M 274.726562 277.210938 " fill-opacity="1" fill-rule="nonzero"/><path fill="#333749" d="M 360.113281 232.433594 L 365.945312 233.921875 C 377.941406 236.984375 384.515625 251.851562 380.628906 267.121094 C 376.742188 282.394531 363.867188 292.292969 351.871094 289.230469 L 346.039062 287.738281 C 334.042969 284.675781 327.46875 269.8125 331.355469 254.539062 C 335.238281 239.265625 348.117188 229.367188 360.113281 232.433594 Z M 360.113281 232.433594 " fill-opacity="1" fill-rule="nonzero"/><path fill="#368cc1" d="M 360.113281 232.433594 C 360.824219 232.613281 361.523438 232.839844 362.207031 233.109375 C 362.894531 233.378906 363.5625 233.691406 364.214844 234.046875 C 364.867188 234.402344 365.503906 234.796875 366.117188 235.234375 C 366.730469 235.671875 367.320312 236.144531 367.890625 236.660156 C 368.460938 237.175781 369.003906 237.726562 369.523438 238.3125 C 370.039062 238.898438 370.53125 239.519531 370.996094 240.175781 C 371.460938 240.828125 371.894531 241.511719 372.296875 242.230469 C 372.699219 242.945312 373.070312 243.6875 373.414062 244.453125 C 373.753906 245.222656 374.058594 246.015625 374.332031 246.832031 C 374.605469 247.644531 374.84375 248.480469 375.046875 249.335938 C 375.25 250.1875 375.417969 251.058594 375.550781 251.941406 C 375.683594 252.828125 375.777344 253.722656 375.835938 254.628906 C 375.898438 255.535156 375.917969 256.449219 375.90625 257.367188 C 375.890625 258.285156 375.839844 259.207031 375.753906 260.132812 C 375.667969 261.054688 375.542969 261.976562 375.382812 262.898438 C 375.222656 263.816406 375.027344 264.726562 374.796875 265.632812 C 374.566406 266.539062 374.304688 267.433594 374.003906 268.316406 C 373.703125 269.199219 373.371094 270.070312 373.007812 270.921875 C 372.644531 271.773438 372.246094 272.609375 371.820312 273.421875 C 371.394531 274.238281 370.9375 275.027344 370.453125 275.792969 C 369.964844 276.5625 369.453125 277.300781 368.914062 278.015625 C 368.378906 278.726562 367.816406 279.410156 367.226562 280.0625 C 366.640625 280.714844 366.03125 281.332031 365.402344 281.917969 C 364.773438 282.503906 364.125 283.050781 363.460938 283.5625 C 362.792969 284.074219 362.113281 284.546875 361.417969 284.980469 C 360.71875 285.417969 360.011719 285.808594 359.292969 286.160156 C 358.574219 286.515625 357.84375 286.824219 357.109375 287.089844 C 356.375 287.355469 355.632812 287.578125 354.886719 287.757812 C 354.140625 287.9375 353.394531 288.070312 352.648438 288.160156 C 351.898438 288.25 351.152344 288.292969 350.410156 288.289062 C 349.667969 288.289062 348.933594 288.242188 348.203125 288.152344 C 347.472656 288.058594 346.75 287.921875 346.039062 287.738281 C 345.328125 287.558594 344.628906 287.332031 343.941406 287.0625 C 343.257812 286.792969 342.589844 286.480469 341.9375 286.125 C 341.28125 285.773438 340.648438 285.375 340.035156 284.9375 C 339.421875 284.503906 338.832031 284.027344 338.261719 283.511719 C 337.691406 282.996094 337.148438 282.445312 336.628906 281.859375 C 336.109375 281.273438 335.621094 280.652344 335.15625 279.996094 C 334.691406 279.34375 334.257812 278.660156 333.855469 277.945312 C 333.453125 277.226562 333.078125 276.488281 332.738281 275.71875 C 332.398438 274.949219 332.09375 274.15625 331.820312 273.339844 C 331.546875 272.527344 331.308594 271.691406 331.105469 270.835938 C 330.902344 269.984375 330.734375 269.113281 330.601562 268.230469 C 330.46875 267.34375 330.375 266.449219 330.3125 265.542969 C 330.253906 264.636719 330.230469 263.722656 330.246094 262.804688 C 330.261719 261.886719 330.3125 260.964844 330.398438 260.039062 C 330.484375 259.117188 330.609375 258.195312 330.769531 257.277344 C 330.929688 256.355469 331.121094 255.445312 331.351562 254.539062 C 331.582031 253.632812 331.847656 252.738281 332.148438 251.855469 C 332.445312 250.972656 332.777344 250.101562 333.144531 249.25 C 333.507812 248.398438 333.90625 247.5625 334.332031 246.75 C 334.757812 245.9375 335.214844 245.144531 335.699219 244.378906 C 336.183594 243.609375 336.695312 242.871094 337.234375 242.15625 C 337.773438 241.445312 338.335938 240.761719 338.925781 240.109375 C 339.511719 239.457031 340.121094 238.839844 340.75 238.253906 C 341.378906 237.667969 342.027344 237.121094 342.691406 236.609375 C 343.359375 236.097656 344.039062 235.625 344.734375 235.191406 C 345.429688 234.753906 346.140625 234.363281 346.859375 234.011719 C 347.578125 233.660156 348.304688 233.347656 349.042969 233.082031 C 349.777344 232.816406 350.519531 232.59375 351.265625 232.414062 C 352.011719 232.234375 352.757812 232.101562 353.503906 232.011719 C 354.253906 231.921875 354.996094 231.878906 355.738281 231.882812 C 356.484375 231.882812 357.21875 231.929688 357.949219 232.023438 C 358.679688 232.113281 359.402344 232.25 360.113281 232.433594 Z M 360.113281 232.433594 " fill-opacity="1" fill-rule="nonzero"/><path fill="#333749" d="M 333.394531 255.058594 C 330.238281 267.460938 335.578125 279.535156 345.320312 282.023438 C 345.953125 282.183594 346.597656 282.304688 347.246094 282.378906 C 356.40625 283.433594 365.726562 275.65625 368.675781 264.070312 C 371.625 252.484375 367.15625 241.183594 358.613281 237.71875 C 358.003906 237.472656 357.382812 237.269531 356.75 237.109375 C 347.007812 234.621094 336.550781 242.65625 333.394531 255.058594 Z M 333.394531 255.058594 " fill-opacity="1" fill-rule="nonzero"/><path fill="#ebf9ff" d="M 337.183594 256.027344 C 334.234375 267.613281 338.703125 278.914062 347.246094 282.378906 C 356.40625 283.433594 365.726562 275.65625 368.675781 264.070312 C 371.625 252.484375 367.15625 241.183594 358.613281 237.71875 C 349.453125 236.664062 340.132812 244.441406 337.183594 256.027344 Z M 337.183594 256.027344 " fill-opacity="1" fill-rule="nonzero"/><path fill="#e86e52" d="M 364.683594 263.308594 L 360.363281 260.597656 L 365.257812 259.167969 L 367.371094 254.558594 C 367.480469 254.320312 367.488281 254.074219 367.398438 253.828125 C 367.308594 253.578125 367.140625 253.402344 366.902344 253.289062 C 366.660156 253.179688 366.417969 253.171875 366.171875 253.261719 C 365.925781 253.355469 365.746094 253.519531 365.636719 253.761719 L 363.886719 257.574219 L 359.914062 258.738281 C 359.824219 258.265625 359.6875 257.808594 359.507812 257.363281 L 364.230469 255.730469 L 364.984375 250.273438 C 365.019531 250.011719 364.960938 249.777344 364.800781 249.566406 C 364.640625 249.355469 364.433594 249.230469 364.171875 249.195312 C 363.910156 249.160156 363.675781 249.222656 363.464844 249.378906 C 363.253906 249.539062 363.132812 249.75 363.09375 250.011719 L 362.5 254.304688 L 358.539062 255.675781 C 358.316406 255.390625 358.074219 255.121094 357.8125 254.871094 C 357.964844 254.554688 358.074219 254.230469 358.148438 253.890625 C 358.222656 253.550781 358.257812 253.207031 358.25 252.859375 C 358.242188 252.511719 358.195312 252.167969 358.105469 251.832031 C 358.019531 251.496094 357.890625 251.175781 357.726562 250.867188 C 357.566406 250.5625 357.367188 250.277344 357.136719 250.019531 C 356.90625 249.757812 356.648438 249.53125 356.363281 249.332031 C 356.078125 249.132812 355.773438 248.96875 355.449219 248.84375 C 355.128906 248.714844 354.792969 248.628906 354.449219 248.582031 C 354.105469 248.53125 353.761719 248.527344 353.417969 248.558594 C 353.070312 248.59375 352.734375 248.667969 352.40625 248.78125 C 352.078125 248.894531 351.765625 249.046875 351.476562 249.230469 C 351.183594 249.417969 350.914062 249.636719 350.675781 249.886719 C 350.433594 250.136719 350.226562 250.414062 350.046875 250.714844 C 349.871094 251.011719 349.734375 251.328125 349.632812 251.660156 C 349.53125 251.996094 349.46875 252.335938 349.449219 252.679688 C 349.425781 253.027344 349.445312 253.375 349.507812 253.714844 C 349.1875 253.886719 348.878906 254.078125 348.589844 254.296875 L 345.148438 251.894531 L 345.742188 247.601562 C 345.78125 247.339844 345.71875 247.101562 345.558594 246.890625 C 345.402344 246.679688 345.191406 246.558594 344.929688 246.519531 C 344.667969 246.484375 344.433594 246.546875 344.222656 246.707031 C 344.011719 246.867188 343.890625 247.078125 343.851562 247.339844 L 343.097656 252.792969 L 347.199219 255.652344 C 346.902344 256.03125 346.648438 256.4375 346.433594 256.867188 L 342.925781 254.664062 L 342.277344 250.515625 C 342.238281 250.257812 342.113281 250.046875 341.898438 249.890625 C 341.6875 249.734375 341.449219 249.679688 341.1875 249.71875 C 340.929688 249.761719 340.722656 249.886719 340.566406 250.101562 C 340.410156 250.3125 340.351562 250.550781 340.394531 250.8125 L 341.175781 255.820312 L 345.496094 258.53125 L 340.601562 259.964844 L 338.488281 264.570312 C 338.378906 264.8125 338.371094 265.054688 338.460938 265.300781 C 338.554688 265.550781 338.71875 265.730469 338.957031 265.839844 C 339.199219 265.949219 339.441406 265.957031 339.6875 265.867188 C 339.933594 265.773438 340.113281 265.609375 340.222656 265.367188 L 341.972656 261.554688 L 345.691406 260.464844 C 345.71875 260.957031 345.796875 261.441406 345.921875 261.914062 L 341.628906 263.402344 L 340.875 268.855469 C 340.839844 269.117188 340.902344 269.351562 341.058594 269.5625 C 341.21875 269.773438 341.429688 269.894531 341.6875 269.933594 C 341.949219 269.96875 342.183594 269.90625 342.394531 269.75 C 342.605469 269.589844 342.726562 269.378906 342.765625 269.117188 L 343.359375 264.824219 L 346.65625 263.683594 C 346.929688 264.15625 347.25 264.589844 347.625 264.988281 C 347.996094 265.386719 348.40625 265.738281 348.859375 266.039062 C 349.3125 266.34375 349.792969 266.59375 350.300781 266.789062 C 350.808594 266.984375 351.335938 267.117188 351.875 267.191406 C 352.414062 267.269531 352.953125 267.28125 353.496094 267.234375 C 354.039062 267.183594 354.570312 267.074219 355.085938 266.90625 C 355.605469 266.738281 356.097656 266.511719 356.5625 266.230469 C 357.03125 265.949219 357.457031 265.617188 357.851562 265.238281 L 360.710938 267.234375 L 360.117188 271.527344 C 360.082031 271.789062 360.140625 272.027344 360.300781 272.238281 C 360.460938 272.449219 360.667969 272.570312 360.929688 272.605469 C 361.191406 272.644531 361.425781 272.582031 361.636719 272.421875 C 361.847656 272.261719 361.96875 272.054688 362.007812 271.792969 L 362.761719 266.335938 L 359.035156 263.738281 C 359.285156 263.3125 359.488281 262.871094 359.648438 262.40625 L 362.933594 264.464844 L 363.582031 268.613281 C 363.621094 268.875 363.746094 269.082031 363.960938 269.238281 C 364.171875 269.394531 364.410156 269.453125 364.671875 269.410156 C 364.929688 269.371094 365.136719 269.242188 365.292969 269.03125 C 365.449219 268.816406 365.507812 268.578125 365.464844 268.316406 Z M 364.683594 263.308594 " fill-opacity="1" fill-rule="nonzero"/><path fill="#ebf9ff" d="M 365.871094 225.636719 C 366.277344 225.734375 366.652344 225.902344 366.992188 226.148438 C 367.332031 226.394531 367.609375 226.695312 367.832031 227.050781 C 368.050781 227.410156 368.195312 227.792969 368.261719 228.207031 C 368.328125 228.621094 368.3125 229.03125 368.21875 229.441406 C 368.121094 229.847656 367.949219 230.222656 367.707031 230.5625 C 367.460938 230.902344 367.160156 231.183594 366.804688 231.402344 C 366.449219 231.625 366.066406 231.769531 365.652344 231.835938 C 365.238281 231.902344 364.828125 231.886719 364.421875 231.792969 C 364.015625 231.695312 363.640625 231.523438 363.300781 231.277344 C 362.960938 231.035156 362.679688 230.734375 362.460938 230.375 C 362.242188 230.019531 362.097656 229.632812 362.03125 229.21875 C 361.964844 228.804688 361.976562 228.394531 362.074219 227.988281 C 362.171875 227.578125 362.339844 227.207031 362.585938 226.867188 C 362.832031 226.523438 363.132812 226.246094 363.488281 226.023438 C 363.84375 225.804688 364.226562 225.660156 364.640625 225.59375 C 365.054688 225.527344 365.464844 225.539062 365.871094 225.636719 Z M 365.871094 225.636719 " fill-opacity="1" fill-rule="nonzero"/><path fill="#ebf9ff" d="M 375.953125 225.636719 C 376.363281 225.734375 376.734375 225.902344 377.074219 226.148438 C 377.414062 226.394531 377.695312 226.695312 377.914062 227.050781 C 378.132812 227.410156 378.277344 227.792969 378.34375 228.207031 C 378.410156 228.621094 378.398438 229.03125 378.300781 229.441406 C 378.203125 229.847656 378.035156 230.222656 377.789062 230.5625 C 377.542969 230.902344 377.246094 231.183594 376.886719 231.402344 C 376.53125 231.625 376.148438 231.769531 375.734375 231.835938 C 375.320312 231.902344 374.910156 231.886719 374.503906 231.792969 C 374.097656 231.695312 373.722656 231.523438 373.382812 231.277344 C 373.042969 231.035156 372.765625 230.734375 372.542969 230.375 C 372.324219 230.019531 372.179688 229.632812 372.113281 229.21875 C 372.046875 228.804688 372.0625 228.394531 372.15625 227.988281 C 372.253906 227.578125 372.425781 227.207031 372.667969 226.867188 C 372.914062 226.523438 373.214844 226.246094 373.570312 226.023438 C 373.925781 225.804688 374.308594 225.660156 374.722656 225.59375 C 375.136719 225.527344 375.546875 225.539062 375.953125 225.636719 Z M 375.953125 225.636719 " fill-opacity="1" fill-rule="nonzero"/><path fill="#ebf9ff" d="M 386.039062 225.636719 C 386.445312 225.734375 386.816406 225.902344 387.15625 226.148438 C 387.496094 226.394531 387.777344 226.695312 387.996094 227.050781 C 388.21875 227.410156 388.359375 227.792969 388.425781 228.207031 C 388.496094 228.621094 388.480469 229.03125 388.382812 229.441406 C 388.289062 229.847656 388.117188 230.222656 387.871094 230.5625 C 387.628906 230.902344 387.328125 231.183594 386.972656 231.402344 C 386.617188 231.625 386.230469 231.769531 385.816406 231.835938 C 385.40625 231.902344 384.996094 231.886719 384.585938 231.792969 C 384.179688 231.695312 383.804688 231.523438 383.46875 231.277344 C 383.128906 231.035156 382.847656 230.734375 382.628906 230.375 C 382.40625 230.019531 382.265625 229.632812 382.195312 229.21875 C 382.128906 228.804688 382.144531 228.394531 382.242188 227.988281 C 382.335938 227.578125 382.507812 227.207031 382.75 226.867188 C 382.996094 226.523438 383.296875 226.246094 383.652344 226.023438 C 384.007812 225.804688 384.394531 225.660156 384.808594 225.59375 C 385.21875 225.527344 385.628906 225.539062 386.039062 225.636719 Z M 386.039062 225.636719 " fill-opacity="1" fill-rule="nonzero"/><path fill="#368cc1" d="M 353.835938 196.457031 L 392.21875 196.457031 C 392.59375 196.457031 392.949219 196.527344 393.292969 196.667969 C 393.636719 196.8125 393.9375 197.015625 394.203125 197.277344 C 394.464844 197.539062 394.667969 197.84375 394.808594 198.1875 C 394.953125 198.53125 395.023438 198.890625 395.023438 199.261719 L 395.023438 204.585938 C 395.023438 204.957031 394.953125 205.316406 394.808594 205.660156 C 394.667969 206.003906 394.464844 206.308594 394.203125 206.570312 C 393.9375 206.835938 393.636719 207.039062 393.292969 207.179688 C 392.949219 207.324219 392.59375 207.394531 392.21875 207.394531 L 353.835938 207.394531 C 353.464844 207.394531 353.109375 207.324219 352.765625 207.179688 C 352.421875 207.039062 352.117188 206.835938 351.855469 206.570312 C 351.59375 206.308594 351.390625 206.003906 351.25 205.660156 C 351.105469 205.316406 351.035156 204.957031 351.035156 204.585938 L 351.035156 199.261719 C 351.035156 198.890625 351.105469 198.53125 351.25 198.1875 C 351.390625 197.84375 351.59375 197.539062 351.855469 197.277344 C 352.117188 197.015625 352.421875 196.8125 352.765625 196.667969 C 353.109375 196.527344 353.464844 196.457031 353.835938 196.457031 Z M 353.835938 196.457031 " fill-opacity="1" fill-rule="nonzero"/><path fill="#f3fbff" d="M 352.117188 197.523438 L 353.515625 197.523438 L 353.515625 201.808594 L 352.117188 201.808594 Z M 352.117188 197.523438 " fill-opacity="1" fill-rule="nonzero"/><path fill="#f3fbff" d="M 348.535156 201.152344 L 348.96875 199.816406 L 353.03125 201.140625 L 352.601562 202.476562 Z M 348.535156 201.152344 " fill-opacity="1" fill-rule="nonzero"/><path fill="#f3fbff" d="M 349.738281 204.859375 L 352.25 201.394531 L 353.382812 202.21875 L 350.871094 205.683594 Z M 349.738281 204.859375 " fill-opacity="1" fill-rule="nonzero"/><path fill="#f3fbff" d="M 352.25 202.21875 L 353.382812 201.394531 L 355.894531 204.859375 L 354.761719 205.683594 Z M 352.25 202.21875 " fill-opacity="1" fill-rule="nonzero"/><path fill="#f3fbff" d="M 352.601562 201.140625 L 356.664062 199.816406 L 357.097656 201.152344 L 353.03125 202.476562 Z M 352.601562 201.140625 " fill-opacity="1" fill-rule="nonzero"/><path fill="#f3fbff" d="M 364.078125 197.523438 L 365.480469 197.523438 L 365.480469 201.808594 L 364.078125 201.808594 Z M 364.078125 197.523438 " fill-opacity="1" fill-rule="nonzero"/><path fill="#f3fbff" d="M 360.5 201.152344 L 360.933594 199.816406 L 364.996094 201.140625 L 364.5625 202.476562 Z M 360.5 201.152344 " fill-opacity="1" fill-rule="nonzero"/><path fill="#f3fbff" d="M 361.703125 204.859375 L 364.214844 201.394531 L 365.347656 202.21875 L 362.835938 205.683594 Z M 361.703125 204.859375 " fill-opacity="1" fill-rule="nonzero"/><path fill="#f3fbff" d="M 364.214844 202.21875 L 365.347656 201.394531 L 367.859375 204.859375 L 366.726562 205.683594 Z M 364.214844 202.21875 " fill-opacity="1" fill-rule="nonzero"/><path fill="#f3fbff" d="M 364.5625 201.140625 L 368.628906 199.816406 L 369.0625 201.152344 L 364.996094 202.476562 Z M 364.5625 201.140625 " fill-opacity="1" fill-rule="nonzero"/><path fill="#f3fbff" d="M 376.042969 197.523438 L 377.445312 197.523438 L 377.445312 201.808594 L 376.042969 201.808594 Z M 376.042969 197.523438 " fill-opacity="1" fill-rule="nonzero"/><path fill="#f3fbff" d="M 372.464844 201.152344 L 372.894531 199.816406 L 376.960938 201.140625 L 376.527344 202.476562 Z M 372.464844 201.152344 " fill-opacity="1" fill-rule="nonzero"/><path fill="#f3fbff" d="M 373.664062 204.859375 L 376.179688 201.394531 L 377.3125 202.21875 L 374.800781 205.683594 Z M 373.664062 204.859375 " fill-opacity="1" fill-rule="nonzero"/><path fill="#f3fbff" d="M 376.179688 202.21875 L 377.3125 201.394531 L 379.824219 204.859375 L 378.691406 205.683594 Z M 376.179688 202.21875 " fill-opacity="1" fill-rule="nonzero"/><path fill="#f3fbff" d="M 376.527344 201.140625 L 380.59375 199.816406 L 381.027344 201.152344 L 376.960938 202.476562 Z M 376.527344 201.140625 " fill-opacity="1" fill-rule="nonzero"/><path fill="#f3fbff" d="M 388.007812 197.523438 L 389.410156 197.523438 L 389.410156 201.808594 L 388.007812 201.808594 Z M 388.007812 197.523438 " fill-opacity="1" fill-rule="nonzero"/><path fill="#f3fbff" d="M 384.425781 201.152344 L 384.859375 199.816406 L 388.925781 201.140625 L 388.492188 202.476562 Z M 384.425781 201.152344 " fill-opacity="1" fill-rule="nonzero"/><path fill="#f3fbff" d="M 385.628906 204.859375 L 388.140625 201.394531 L 389.277344 202.21875 L 386.761719 205.683594 Z M 385.628906 204.859375 " fill-opacity="1" fill-rule="nonzero"/><path fill="#f3fbff" d="M 388.140625 202.21875 L 389.277344 201.394531 L 391.789062 204.859375 L 390.65625 205.683594 Z M 388.140625 202.21875 " fill-opacity="1" fill-rule="nonzero"/><path fill="#f3fbff" d="M 388.492188 201.140625 L 392.558594 199.816406 L 392.992188 201.152344 L 388.925781 202.476562 Z M 388.492188 201.140625 " fill-opacity="1" fill-rule="nonzero"/></svg>