<svg xmlns="http://www.w3.org/2000/svg" xmlns:xlink="http://www.w3.org/1999/xlink" width="500" zoomAndPan="magnify" viewBox="0 0 375 374.999991" height="500" preserveAspectRatio="xMidYMid meet" version="1.2"><defs><clipPath id="ec5803997f"><path d="M 117.023438 110 L 258 110 L 258 269.804688 L 117.023438 269.804688 Z M 117.023438 110 "/></clipPath></defs><g id="b755fb0a77"><g clip-rule="nonzero" clip-path="url(#ec5803997f)"><path style=" stroke:none;fill-rule:evenodd;fill:#00f078;fill-opacity:1;" d="M 229.917969 195.269531 C 206.988281 168.699219 168.007812 168.699219 145.074219 195.269531 C 168.011719 221.835938 206.984375 221.835938 229.917969 195.269531 Z M 187.496094 220.03125 C 169.300781 220.03125 152.007812 211.558594 140.058594 196.785156 C 139.34375 195.902344 139.34375 194.636719 140.058594 193.753906 C 152.007812 178.980469 169.300781 170.507812 187.496094 170.507812 C 205.695312 170.507812 222.984375 178.980469 234.933594 193.753906 C 235.648438 194.636719 235.648438 195.902344 234.933594 196.785156 C 222.984375 211.558594 205.695312 220.03125 187.496094 220.03125 Z M 151.648438 220.585938 C 152.984375 220.585938 154.058594 221.664062 154.058594 222.996094 C 154.058594 224.328125 152.984375 225.410156 151.648438 225.410156 L 139.953125 225.410156 C 138.625 225.410156 137.542969 224.328125 137.542969 222.996094 L 137.542969 211.304688 C 137.542969 209.96875 138.625 208.894531 139.953125 208.894531 C 141.289062 208.894531 142.367188 209.96875 142.367188 211.304688 L 142.367188 220.585938 Z M 199.453125 195.265625 C 199.453125 201.859375 194.089844 207.226562 187.496094 207.226562 C 180.902344 207.226562 175.539062 201.859375 175.539062 195.265625 C 175.539062 188.675781 180.902344 183.3125 187.496094 183.3125 C 194.089844 183.3125 199.453125 188.675781 199.453125 195.265625 Z M 204.273438 195.265625 C 204.273438 204.519531 196.746094 212.046875 187.496094 212.046875 C 178.246094 212.046875 170.71875 204.519531 170.71875 195.265625 C 170.71875 186.019531 178.246094 178.492188 187.496094 178.492188 C 196.746094 178.492188 204.273438 186.019531 204.273438 195.265625 Z M 253 163.65625 L 253 230.683594 L 121.992188 230.683594 L 121.992188 163.65625 C 121.992188 161.558594 123.695312 159.851562 125.792969 159.851562 L 249.199219 159.851562 C 251.296875 159.851562 253 161.558594 253 163.65625 Z M 253 235.507812 L 121.992188 235.507812 L 121.992188 237.199219 C 121.992188 239.296875 123.695312 241 125.792969 241 L 249.199219 241 C 251.296875 241 253 239.296875 253 237.199219 Z M 191.59375 245.820312 L 183.398438 245.820312 C 181.074219 253.316406 177.664062 259.523438 173.0625 264.621094 L 201.929688 264.621094 C 197.332031 259.519531 193.917969 253.316406 191.59375 245.820312 Z M 257.824219 163.65625 L 257.824219 237.199219 C 257.824219 241.953125 253.953125 245.820312 249.199219 245.820312 L 196.667969 245.820312 C 199.3125 253.636719 203.300781 259.8125 208.789062 264.621094 L 227.304688 264.621094 C 228.640625 264.621094 229.714844 265.699219 229.714844 267.035156 C 229.714844 268.363281 228.640625 269.445312 227.304688 269.445312 L 147.6875 269.445312 C 146.355469 269.445312 145.277344 268.363281 145.277344 267.035156 C 145.277344 265.699219 146.355469 264.621094 147.6875 264.621094 L 166.203125 264.621094 C 171.691406 259.8125 175.679688 253.636719 178.328125 245.820312 L 125.792969 245.820312 C 121.039062 245.820312 117.167969 241.953125 117.167969 237.199219 L 117.167969 163.65625 C 117.167969 158.898438 121.039062 155.03125 125.792969 155.03125 L 249.199219 155.03125 C 253.953125 155.03125 257.824219 158.898438 257.824219 163.65625 Z M 235.039062 165.128906 C 236.367188 165.128906 237.449219 166.207031 237.449219 167.539062 L 237.449219 179.234375 C 237.449219 180.5625 236.367188 181.644531 235.039062 181.644531 C 233.707031 181.644531 232.628906 180.5625 232.628906 179.234375 L 232.628906 169.949219 L 223.34375 169.949219 C 222.011719 169.949219 220.933594 168.871094 220.933594 167.539062 C 220.933594 166.207031 222.011719 165.128906 223.34375 165.128906 Z M 235.039062 208.894531 C 236.367188 208.894531 237.449219 209.96875 237.449219 211.304688 L 237.449219 222.996094 C 237.449219 224.328125 236.367188 225.410156 235.039062 225.410156 L 223.34375 225.410156 C 222.011719 225.410156 220.933594 224.328125 220.933594 222.996094 C 220.933594 221.664062 222.011719 220.585938 223.34375 220.585938 L 232.628906 220.585938 L 232.628906 211.304688 C 232.628906 209.96875 233.707031 208.894531 235.039062 208.894531 Z M 174.390625 145.851562 C 173.449219 146.792969 173.449219 148.320312 174.390625 149.261719 C 175.332031 150.203125 176.859375 150.203125 177.800781 149.261719 C 183.160156 143.90625 191.820312 143.902344 197.191406 149.261719 C 198.132812 150.203125 199.660156 150.203125 200.601562 149.261719 C 201.542969 148.320312 201.542969 146.792969 200.601562 145.851562 C 193.363281 138.613281 181.628906 138.613281 174.390625 145.851562 Z M 209.539062 139.324219 C 208.921875 139.324219 208.304688 139.089844 207.835938 138.621094 C 196.59375 127.375 178.402344 127.382812 167.160156 138.621094 C 166.214844 139.5625 164.691406 139.558594 163.75 138.621094 C 162.808594 137.679688 162.808594 136.152344 163.75 135.210938 C 176.871094 122.082031 198.117188 122.09375 211.242188 135.210938 C 212.761719 136.730469 211.667969 139.324219 209.539062 139.324219 Z M 139.953125 181.644531 C 138.625 181.644531 137.542969 180.5625 137.542969 179.234375 L 137.542969 167.539062 C 137.542969 166.207031 138.625 165.128906 139.953125 165.128906 L 151.648438 165.128906 C 152.984375 165.128906 154.058594 166.207031 154.058594 167.539062 C 154.058594 168.871094 152.984375 169.949219 151.648438 169.949219 L 142.367188 169.949219 L 142.367188 179.234375 C 142.367188 180.5625 141.289062 181.644531 139.953125 181.644531 Z M 153.109375 127.980469 C 154.050781 128.921875 155.578125 128.921875 156.519531 127.980469 C 173.617188 110.867188 201.375 110.863281 218.472656 127.980469 C 218.945312 128.449219 219.5625 128.6875 220.179688 128.6875 C 222.300781 128.6875 223.410156 126.097656 221.886719 124.570312 C 202.878906 105.574219 172.109375 105.558594 153.109375 124.570312 C 152.167969 125.511719 152.167969 127.035156 153.109375 127.980469 Z M 153.109375 127.980469 "/></g></g></svg>