<svg xmlns="http://www.w3.org/2000/svg" xmlns:xlink="http://www.w3.org/1999/xlink" width="500" zoomAndPan="magnify" viewBox="0 0 375 374.999991" height="500" preserveAspectRatio="xMidYMid meet" version="1.2"><defs><clipPath id="ef52b41fef"><path d="M 88 74.214844 L 286.742188 74.214844 L 286.742188 271.464844 L 88 271.464844 Z M 88 74.214844 "/></clipPath></defs><g id="d9d9060f67"><path style=" stroke:none;fill-rule:evenodd;fill:#a79ba7;fill-opacity:1;" d="M 173.011719 219.675781 L 225.871094 219.675781 L 225.871094 251.035156 L 173.011719 251.035156 Z M 173.011719 219.675781 "/><path style=" stroke:none;fill-rule:evenodd;fill:#837683;fill-opacity:1;" d="M 221.3125 219.675781 L 225.871094 219.675781 L 225.871094 251.035156 L 221.3125 251.035156 Z M 221.3125 219.675781 "/><path style=" stroke:none;fill-rule:evenodd;fill:#eceff1;fill-opacity:1;" d="M 144.058594 263.3125 L 254.824219 263.3125 C 255.792969 263.3125 256.578125 262.523438 256.578125 261.554688 L 256.578125 254.480469 C 256.578125 249.625 251.617188 245.648438 245.550781 245.648438 L 153.332031 245.648438 C 147.265625 245.648438 142.304688 249.625 142.304688 254.480469 L 142.304688 261.554688 C 142.304688 262.523438 143.089844 263.3125 144.058594 263.3125 Z M 144.058594 263.3125 "/><path style=" stroke:none;fill-rule:evenodd;fill:#d1d1d6;fill-opacity:1;" d="M 144.058594 263.3125 L 254.824219 263.3125 C 255.792969 263.3125 256.578125 262.523438 256.578125 261.554688 L 256.578125 254.480469 C 256.578125 251.59375 254.824219 249.019531 252.128906 247.40625 C 252.734375 248.496094 253.074219 249.703125 253.074219 250.96875 L 253.074219 258.042969 C 253.074219 259.011719 252.289062 259.800781 251.320312 259.800781 L 142.304688 259.800781 L 142.304688 261.554688 C 142.304688 262.523438 143.089844 263.3125 144.058594 263.3125 Z M 144.058594 263.3125 "/><path style=" stroke:none;fill-rule:evenodd;fill:#eceff1;fill-opacity:1;" d="M 128.277344 109.96875 L 270.605469 109.96875 C 277.714844 109.96875 283.535156 115.800781 283.535156 122.929688 L 283.535156 212.097656 C 283.535156 219.226562 277.71875 225.058594 270.605469 225.058594 L 128.277344 225.058594 C 121.164062 225.058594 115.347656 219.226562 115.347656 212.097656 L 115.347656 122.929688 C 115.347656 115.800781 121.164062 109.96875 128.277344 109.96875 Z M 128.277344 109.96875 "/><path style=" stroke:none;fill-rule:evenodd;fill:#d1d1d6;fill-opacity:1;" d="M 277.816406 112.1875 C 281.261719 114.523438 283.535156 118.472656 283.535156 122.929688 L 283.535156 212.097656 C 283.535156 219.226562 277.71875 225.058594 270.605469 225.058594 L 128.277344 225.058594 C 123.832031 225.058594 119.890625 222.777344 117.5625 219.328125 C 119.625 220.726562 122.109375 221.546875 124.773438 221.546875 L 267.101562 221.546875 C 274.210938 221.546875 280.03125 215.714844 280.03125 208.585938 L 280.03125 119.417969 C 280.03125 116.746094 279.214844 114.257812 277.816406 112.1875 Z M 277.816406 112.1875 "/><path style=" stroke:none;fill-rule:evenodd;fill:#d8ecfe;fill-opacity:1;" d="M 127.953125 120.808594 L 270.929688 120.808594 C 271.917969 120.808594 272.722656 121.617188 272.722656 122.605469 L 272.722656 203.226562 L 126.160156 203.226562 L 126.160156 122.605469 C 126.160156 121.617188 126.964844 120.808594 127.953125 120.808594 Z M 127.953125 120.808594 "/><path style=" stroke:none;fill-rule:evenodd;fill:#c4e2ff;fill-opacity:1;" d="M 265.402344 120.808594 L 270.929688 120.808594 C 271.917969 120.808594 272.722656 121.617188 272.722656 122.605469 L 272.722656 203.226562 L 265.402344 203.226562 Z M 265.402344 120.808594 "/><path style=" stroke:none;fill-rule:evenodd;fill:#eceff1;fill-opacity:1;" d="M 147.332031 77.457031 L 251.550781 77.457031 C 254.28125 77.457031 256.519531 79.695312 256.519531 82.433594 L 256.519531 159.183594 C 256.519531 161.921875 254.28125 164.160156 251.550781 164.160156 L 147.332031 164.160156 C 144.601562 164.160156 142.367188 161.921875 142.367188 159.183594 L 142.367188 82.433594 C 142.363281 79.695312 144.601562 77.457031 147.332031 77.457031 Z M 147.332031 77.457031 "/><path style=" stroke:none;fill-rule:evenodd;fill:#d1d1d6;fill-opacity:1;" d="M 246.8125 77.457031 L 251.550781 77.457031 C 254.28125 77.457031 256.515625 79.695312 256.515625 82.433594 L 256.515625 159.183594 C 256.515625 161.921875 254.28125 164.160156 251.550781 164.160156 L 246.8125 164.160156 C 249.542969 164.160156 251.777344 161.921875 251.777344 159.183594 L 251.777344 82.433594 C 251.777344 79.695312 249.542969 77.457031 246.8125 77.457031 Z M 246.8125 77.457031 "/><path style=" stroke:none;fill-rule:evenodd;fill:#a79ba7;fill-opacity:1;" d="M 147.332031 77.457031 L 251.550781 77.457031 C 254.28125 77.457031 256.515625 79.695312 256.515625 82.433594 L 256.515625 95.234375 L 142.363281 95.234375 L 142.363281 82.433594 C 142.363281 79.695312 144.601562 77.457031 147.332031 77.457031 Z M 147.332031 77.457031 "/><path style=" stroke:none;fill-rule:evenodd;fill:#837683;fill-opacity:1;" d="M 246.8125 77.457031 L 251.550781 77.457031 C 254.28125 77.457031 256.515625 79.695312 256.515625 82.433594 L 256.515625 95.234375 L 251.777344 95.234375 L 251.777344 82.433594 C 251.777344 79.695312 249.542969 77.457031 246.8125 77.457031 Z M 246.8125 77.457031 "/><path style=" stroke:none;fill-rule:evenodd;fill:#a79ba7;fill-opacity:1;" d="M 136.980469 215.996094 C 138.996094 218.878906 141.371094 221.496094 144.035156 223.785156 L 124.847656 242.640625 L 117.539062 235.09375 Z M 136.980469 215.996094 "/><path style=" stroke:none;fill-rule:evenodd;fill:#837683;fill-opacity:1;" d="M 136.847656 215.863281 C 137.226562 217.105469 137.929688 218.050781 138.9375 218.671875 L 119.875 237.65625 L 117.539062 235.09375 Z M 136.847656 215.863281 "/><path style=" stroke:none;fill-rule:evenodd;fill:#f1ba84;fill-opacity:1;" d="M 100.546875 267.117188 L 92.300781 258.597656 C 90.851562 257.101562 90.886719 254.691406 92.378906 253.242188 L 115.21875 231.027344 C 116.710938 229.574219 119.117188 229.609375 120.5625 231.105469 L 128.808594 239.625 C 130.257812 241.121094 130.21875 243.53125 128.726562 244.984375 L 105.890625 267.199219 C 104.398438 268.648438 101.992188 268.613281 100.546875 267.117188 Z M 100.546875 267.117188 "/><path style=" stroke:none;fill-rule:evenodd;fill:#e3a76f;fill-opacity:1;" d="M 118.597656 231.027344 L 95.757812 253.242188 C 94.265625 254.691406 94.230469 257.101562 95.679688 258.597656 L 103.921875 267.117188 C 104.226562 267.429688 104.574219 267.683594 104.949219 267.867188 C 103.511719 268.582031 101.714844 268.328125 100.546875 267.117188 L 92.300781 258.597656 C 90.851562 257.101562 90.886719 254.691406 92.378906 253.238281 L 115.21875 231.027344 C 116.394531 229.878906 118.144531 229.660156 119.539062 230.355469 C 119.199219 230.523438 118.882812 230.75 118.597656 231.027344 Z M 118.597656 231.027344 "/><path style=" stroke:none;fill-rule:nonzero;fill:#8ac9fe;fill-opacity:1;" d="M 209.726562 195.007812 C 209.726562 196.375 209.660156 197.734375 209.527344 199.09375 C 209.394531 200.453125 209.195312 201.800781 208.929688 203.140625 C 208.664062 204.480469 208.332031 205.804688 207.9375 207.109375 C 207.542969 208.417969 207.085938 209.699219 206.5625 210.960938 C 206.042969 212.222656 205.460938 213.457031 204.816406 214.660156 C 204.175781 215.863281 203.476562 217.035156 202.71875 218.167969 C 201.964844 219.304688 201.152344 220.398438 200.289062 221.453125 C 199.425781 222.511719 198.511719 223.519531 197.546875 224.484375 C 196.585938 225.453125 195.578125 226.367188 194.523438 227.234375 C 193.472656 228.101562 192.378906 228.910156 191.246094 229.671875 C 190.113281 230.429688 188.945312 231.128906 187.746094 231.773438 C 186.542969 232.417969 185.316406 233 184.058594 233.523438 C 182.796875 234.046875 181.515625 234.503906 180.214844 234.902344 C 178.910156 235.296875 177.589844 235.628906 176.253906 235.894531 C 174.917969 236.160156 173.574219 236.363281 172.21875 236.496094 C 170.863281 236.628906 169.503906 236.695312 168.140625 236.695312 C 166.78125 236.695312 165.421875 236.628906 164.066406 236.496094 C 162.710938 236.363281 161.363281 236.160156 160.03125 235.894531 C 158.695312 235.628906 157.375 235.296875 156.070312 234.902344 C 154.765625 234.503906 153.488281 234.046875 152.226562 233.523438 C 150.96875 233 149.738281 232.417969 148.539062 231.773438 C 147.335938 231.128906 146.171875 230.429688 145.039062 229.671875 C 143.90625 228.910156 142.8125 228.101562 141.761719 227.234375 C 140.707031 226.367188 139.699219 225.453125 138.738281 224.484375 C 137.773438 223.519531 136.859375 222.511719 135.996094 221.453125 C 135.132812 220.398438 134.320312 219.304688 133.566406 218.167969 C 132.808594 217.035156 132.109375 215.863281 131.464844 214.660156 C 130.824219 213.457031 130.242188 212.222656 129.722656 210.960938 C 129.199219 209.699219 128.742188 208.417969 128.347656 207.109375 C 127.953125 205.804688 127.621094 204.480469 127.355469 203.140625 C 127.089844 201.800781 126.890625 200.453125 126.757812 199.09375 C 126.625 197.734375 126.554688 196.375 126.554688 195.007812 C 126.554688 193.644531 126.625 192.28125 126.757812 190.921875 C 126.890625 189.5625 127.089844 188.214844 127.355469 186.875 C 127.621094 185.539062 127.953125 184.214844 128.347656 182.90625 C 128.742188 181.601562 129.199219 180.316406 129.722656 179.054688 C 130.242188 177.792969 130.824219 176.5625 131.464844 175.359375 C 132.109375 174.152344 132.808594 172.984375 133.566406 171.847656 C 134.320312 170.714844 135.132812 169.617188 135.996094 168.5625 C 136.859375 167.507812 137.773438 166.496094 138.738281 165.53125 C 139.699219 164.566406 140.707031 163.652344 141.761719 162.785156 C 142.8125 161.917969 143.90625 161.105469 145.039062 160.347656 C 146.171875 159.589844 147.335938 158.886719 148.539062 158.246094 C 149.738281 157.601562 150.96875 157.019531 152.226562 156.496094 C 153.488281 155.972656 154.765625 155.511719 156.070312 155.117188 C 157.375 154.71875 158.695312 154.390625 160.03125 154.121094 C 161.363281 153.855469 162.710938 153.65625 164.066406 153.523438 C 165.421875 153.390625 166.78125 153.320312 168.140625 153.320312 C 169.503906 153.320312 170.863281 153.390625 172.21875 153.523438 C 173.574219 153.65625 174.917969 153.855469 176.253906 154.121094 C 177.589844 154.390625 178.910156 154.71875 180.214844 155.117188 C 181.515625 155.511719 182.796875 155.972656 184.058594 156.496094 C 185.316406 157.019531 186.542969 157.601562 187.746094 158.246094 C 188.945312 158.886719 190.113281 159.589844 191.246094 160.347656 C 192.378906 161.105469 193.472656 161.917969 194.523438 162.785156 C 195.578125 163.652344 196.585938 164.566406 197.546875 165.53125 C 198.511719 166.496094 199.425781 167.507812 200.289062 168.5625 C 201.152344 169.617188 201.964844 170.714844 202.71875 171.847656 C 203.476562 172.984375 204.175781 174.152344 204.816406 175.359375 C 205.460938 176.5625 206.042969 177.792969 206.5625 179.054688 C 207.085938 180.316406 207.542969 181.601562 207.9375 182.90625 C 208.332031 184.214844 208.664062 185.539062 208.929688 186.875 C 209.195312 188.214844 209.394531 189.5625 209.527344 190.921875 C 209.660156 192.28125 209.726562 193.644531 209.726562 195.007812 Z M 209.726562 195.007812 "/><path style=" stroke:none;fill-rule:evenodd;fill:#60b7ff;fill-opacity:1;" d="M 168.140625 153.320312 C 145.175781 153.320312 126.554688 171.984375 126.554688 195.007812 C 126.554688 218.03125 145.175781 236.695312 168.140625 236.695312 C 168.820312 236.695312 169.492188 236.679688 170.160156 236.644531 C 148.132812 235.589844 130.59375 217.351562 130.59375 195.007812 C 130.59375 172.664062 148.132812 154.425781 170.160156 153.371094 C 169.492188 153.339844 168.820312 153.320312 168.140625 153.320312 Z M 168.140625 153.320312 "/><path style=" stroke:none;fill-rule:nonzero;fill:#eceff1;fill-opacity:1;" d="M 198.003906 195.007812 C 198.003906 195.988281 197.957031 196.96875 197.859375 197.941406 C 197.765625 198.917969 197.621094 199.886719 197.429688 200.847656 C 197.238281 201.808594 197 202.761719 196.71875 203.699219 C 196.433594 204.636719 196.105469 205.558594 195.730469 206.464844 C 195.355469 207.371094 194.9375 208.253906 194.476562 209.121094 C 194.015625 209.984375 193.515625 210.824219 192.972656 211.640625 C 192.429688 212.453125 191.847656 213.242188 191.226562 214 C 190.605469 214.757812 189.949219 215.480469 189.257812 216.175781 C 188.566406 216.867188 187.84375 217.527344 187.085938 218.148438 C 186.332031 218.769531 185.546875 219.351562 184.734375 219.898438 C 183.917969 220.441406 183.082031 220.945312 182.21875 221.410156 C 181.355469 221.871094 180.472656 222.289062 179.570312 222.664062 C 178.667969 223.039062 177.746094 223.371094 176.8125 223.652344 C 175.875 223.9375 174.925781 224.175781 173.96875 224.367188 C 173.007812 224.558594 172.042969 224.703125 171.070312 224.796875 C 170.097656 224.894531 169.121094 224.941406 168.140625 224.941406 C 167.164062 224.941406 166.1875 224.894531 165.214844 224.796875 C 164.242188 224.703125 163.277344 224.558594 162.316406 224.367188 C 161.359375 224.175781 160.410156 223.9375 159.472656 223.652344 C 158.539062 223.371094 157.617188 223.039062 156.714844 222.664062 C 155.8125 222.289062 154.929688 221.871094 154.066406 221.410156 C 153.203125 220.945312 152.367188 220.441406 151.550781 219.898438 C 150.738281 219.351562 149.953125 218.769531 149.199219 218.148438 C 148.441406 217.527344 147.71875 216.867188 147.027344 216.175781 C 146.335938 215.480469 145.679688 214.757812 145.058594 214 C 144.4375 213.242188 143.855469 212.453125 143.3125 211.640625 C 142.769531 210.824219 142.269531 209.984375 141.808594 209.121094 C 141.347656 208.253906 140.929688 207.371094 140.554688 206.464844 C 140.179688 205.558594 139.851562 204.636719 139.566406 203.699219 C 139.28125 202.761719 139.046875 201.808594 138.855469 200.847656 C 138.664062 199.886719 138.519531 198.917969 138.425781 197.941406 C 138.328125 196.96875 138.28125 195.988281 138.28125 195.007812 C 138.28125 194.027344 138.328125 193.050781 138.425781 192.074219 C 138.519531 191.097656 138.664062 190.128906 138.855469 189.167969 C 139.046875 188.207031 139.28125 187.257812 139.566406 186.320312 C 139.851562 185.382812 140.179688 184.460938 140.554688 183.554688 C 140.929688 182.648438 141.347656 181.761719 141.808594 180.898438 C 142.269531 180.035156 142.769531 179.195312 143.3125 178.378906 C 143.855469 177.5625 144.4375 176.777344 145.058594 176.019531 C 145.679688 175.261719 146.335938 174.535156 147.027344 173.84375 C 147.71875 173.148438 148.441406 172.492188 149.199219 171.871094 C 149.953125 171.246094 150.738281 170.664062 151.550781 170.121094 C 152.367188 169.574219 153.203125 169.070312 154.066406 168.609375 C 154.929688 168.148438 155.8125 167.730469 156.714844 167.355469 C 157.617188 166.976562 158.539062 166.648438 159.472656 166.363281 C 160.410156 166.078125 161.359375 165.839844 162.316406 165.648438 C 163.277344 165.460938 164.242188 165.316406 165.214844 165.21875 C 166.1875 165.125 167.164062 165.074219 168.140625 165.074219 C 169.121094 165.074219 170.097656 165.125 171.070312 165.21875 C 172.042969 165.316406 173.007812 165.460938 173.96875 165.648438 C 174.925781 165.839844 175.875 166.078125 176.8125 166.363281 C 177.746094 166.648438 178.667969 166.976562 179.570312 167.355469 C 180.472656 167.730469 181.355469 168.148438 182.21875 168.609375 C 183.082031 169.070312 183.917969 169.574219 184.734375 170.121094 C 185.546875 170.664062 186.332031 171.246094 187.085938 171.871094 C 187.84375 172.492188 188.566406 173.148438 189.257812 173.84375 C 189.949219 174.535156 190.605469 175.261719 191.226562 176.019531 C 191.847656 176.777344 192.429688 177.5625 192.972656 178.378906 C 193.515625 179.195312 194.015625 180.035156 194.476562 180.898438 C 194.9375 181.761719 195.355469 182.648438 195.730469 183.554688 C 196.105469 184.460938 196.433594 185.382812 196.71875 186.320312 C 197 187.257812 197.238281 188.207031 197.429688 189.167969 C 197.621094 190.128906 197.765625 191.097656 197.859375 192.074219 C 197.957031 193.050781 198.003906 194.027344 198.003906 195.007812 Z M 198.003906 195.007812 "/><path style=" stroke:none;fill-rule:evenodd;fill:#d1d1d6;fill-opacity:1;" d="M 168.140625 165.074219 C 167.464844 165.074219 166.789062 165.101562 166.125 165.144531 C 181.675781 166.183594 193.964844 179.15625 193.964844 195.007812 C 193.964844 210.859375 181.675781 223.832031 166.125 224.871094 C 166.792969 224.917969 167.464844 224.941406 168.140625 224.941406 C 184.632812 224.941406 198.003906 211.542969 198.003906 195.007812 C 198.003906 178.476562 184.632812 165.074219 168.140625 165.074219 Z M 168.140625 165.074219 "/><path style=" stroke:none;fill-rule:evenodd;fill:#d1d1d6;fill-opacity:1;" d="M 264.765625 222.890625 L 255.5625 221.917969 L 255.5625 202.207031 C 255.5625 196.214844 250.640625 191.28125 244.664062 191.28125 C 238.683594 191.28125 233.761719 196.214844 233.761719 202.207031 L 233.761719 222.890625 L 224.558594 220.441406 L 224.558594 202.207031 C 224.558594 191.121094 233.601562 182.054688 244.664062 182.054688 C 255.722656 182.054688 264.765625 191.121094 264.765625 202.207031 Z M 264.765625 222.890625 "/><path style=" stroke:none;fill-rule:evenodd;fill:#ffd064;fill-opacity:1;" d="M 220.050781 212.464844 L 269.277344 212.464844 C 271.300781 212.464844 272.949219 213.949219 272.949219 215.769531 L 272.949219 250.945312 C 272.949219 252.765625 271.300781 254.25 269.277344 254.25 L 220.050781 254.25 C 218.027344 254.25 216.375 252.765625 216.375 250.945312 L 216.375 215.769531 C 216.375 213.949219 218.027344 212.464844 220.050781 212.464844 Z M 220.050781 212.464844 "/><path style=" stroke:none;fill-rule:evenodd;fill:#ffc338;fill-opacity:1;" d="M 265.195312 212.464844 L 269.277344 212.464844 C 271.300781 212.464844 272.949219 213.949219 272.949219 215.769531 L 272.949219 250.945312 C 272.949219 252.765625 271.300781 254.25 269.277344 254.25 L 265.195312 254.25 C 267.21875 254.25 268.867188 252.765625 268.867188 250.945312 L 268.867188 215.769531 C 268.867188 213.949219 267.21875 212.464844 265.195312 212.464844 Z M 265.195312 212.464844 "/><path style=" stroke:none;fill-rule:evenodd;fill:#f5b829;fill-opacity:1;" d="M 244.664062 216.964844 C 248.613281 216.964844 251.820312 220.175781 251.820312 224.136719 C 251.820312 226.71875 250.457031 228.980469 248.417969 230.246094 L 248.417969 241.1875 C 248.417969 243.257812 246.726562 244.953125 244.664062 244.953125 C 242.597656 244.953125 240.910156 243.257812 240.910156 241.1875 L 240.910156 230.246094 C 238.867188 228.980469 237.507812 226.71875 237.507812 224.136719 C 237.507812 220.175781 240.710938 216.964844 244.664062 216.964844 Z M 244.664062 216.964844 "/><g clip-rule="nonzero" clip-path="url(#ef52b41fef)"><path style=" stroke:none;fill-rule:evenodd;fill:#242222;fill-opacity:1;" d="M 168.144531 221.726562 C 153.441406 221.726562 141.484375 209.738281 141.484375 195.003906 C 141.484375 180.269531 153.441406 168.285156 168.144531 168.285156 C 182.832031 168.285156 194.789062 180.269531 194.789062 195.003906 C 194.789062 209.738281 182.832031 221.726562 168.144531 221.726562 Z M 168.144531 161.859375 C 149.914062 161.859375 135.074219 176.726562 135.074219 195.003906 C 135.074219 213.28125 149.914062 228.152344 168.144531 228.152344 C 186.378906 228.152344 201.199219 213.28125 201.199219 195.003906 C 201.199219 176.730469 186.378906 161.859375 168.144531 161.859375 Z M 225.914062 141.785156 C 225.914062 139.8125 227.519531 138.210938 229.480469 138.210938 C 231.441406 138.210938 233.042969 139.8125 233.042969 141.785156 L 233.042969 146.351562 C 233.042969 148.320312 231.441406 149.921875 229.480469 149.921875 C 227.519531 149.921875 225.914062 148.320312 225.914062 146.351562 Z M 229.480469 156.347656 C 234.964844 156.347656 239.453125 151.863281 239.453125 146.351562 L 239.453125 141.785156 C 239.453125 136.269531 234.964844 131.785156 229.480469 131.785156 C 223.972656 131.785156 219.503906 136.273438 219.503906 141.785156 L 219.503906 146.351562 C 219.503906 151.863281 223.972656 156.347656 229.480469 156.347656 Z M 210.019531 153.308594 L 210.019531 134.828125 C 210.019531 133.054688 211.453125 131.617188 213.226562 131.617188 C 215 131.617188 216.429688 133.054688 216.429688 134.828125 L 216.429688 153.308594 C 216.429688 155.082031 215 156.519531 213.226562 156.519531 C 211.453125 156.519531 210.019531 155.082031 210.019531 153.308594 Z M 206.570312 134.828125 L 206.570312 153.308594 C 206.570312 155.082031 205.136719 156.519531 203.367188 156.519531 C 201.59375 156.519531 200.160156 155.082031 200.160156 153.308594 L 200.160156 134.828125 C 200.160156 133.054688 201.59375 131.617188 203.367188 131.617188 C 205.136719 131.617188 206.570312 133.054688 206.570312 134.828125 Z M 226.933594 111.695312 C 226.933594 109.726562 228.515625 108.125 230.496094 108.125 C 232.457031 108.125 234.058594 109.726562 234.058594 111.695312 L 234.058594 116.265625 C 234.058594 118.230469 232.457031 119.832031 230.476562 119.832031 C 228.515625 119.832031 226.933594 118.230469 226.933594 116.265625 Z M 230.496094 126.257812 C 235.984375 126.257812 240.472656 121.773438 240.472656 116.265625 L 240.472656 111.695312 C 240.472656 106.183594 235.984375 101.699219 230.496094 101.699219 L 230.476562 101.699219 C 224.992188 101.699219 220.523438 106.183594 220.523438 111.695312 L 220.523438 116.265625 C 220.523438 121.773438 224.992188 126.257812 230.496094 126.257812 Z M 195.652344 116.265625 L 195.652344 111.695312 C 195.652344 109.726562 197.257812 108.125 199.21875 108.125 C 201.179688 108.125 202.78125 109.726562 202.78125 111.695312 L 202.78125 116.265625 C 202.78125 118.230469 201.179688 119.835938 199.21875 119.835938 C 197.257812 119.835938 195.652344 118.230469 195.652344 116.265625 Z M 209.191406 116.265625 L 209.191406 111.695312 C 209.191406 106.183594 204.722656 101.699219 199.21875 101.699219 C 193.730469 101.699219 189.242188 106.183594 189.242188 111.695312 L 189.242188 116.265625 C 189.242188 121.773438 193.730469 126.257812 199.21875 126.257812 C 204.722656 126.257812 209.191406 121.773438 209.191406 116.265625 Z M 211.472656 123.21875 L 211.472656 104.738281 C 211.472656 102.964844 212.925781 101.523438 214.679688 101.523438 C 216.449219 101.523438 217.882812 102.964844 217.882812 104.738281 L 217.882812 123.21875 C 217.882812 124.992188 216.449219 126.433594 214.679688 126.433594 C 212.925781 126.433594 211.472656 124.992188 211.472656 123.21875 Z M 171.953125 116.265625 C 171.953125 118.230469 170.351562 119.835938 168.390625 119.835938 C 166.429688 119.835938 164.828125 118.230469 164.828125 116.265625 L 164.828125 111.695312 C 164.828125 109.726562 166.429688 108.125 168.390625 108.125 C 170.351562 108.125 171.953125 109.726562 171.953125 111.695312 Z M 168.390625 101.699219 C 162.886719 101.699219 158.417969 106.183594 158.417969 111.695312 L 158.417969 116.265625 C 158.417969 121.773438 162.886719 126.257812 168.390625 126.257812 C 173.878906 126.257812 178.363281 121.773438 178.363281 116.265625 L 178.363281 111.695312 C 178.363281 106.183594 173.878906 101.699219 168.390625 101.699219 Z M 187.058594 104.738281 L 187.058594 123.21875 C 187.058594 124.992188 185.625 126.433594 183.851562 126.433594 C 182.078125 126.433594 180.644531 124.992188 180.644531 123.21875 L 180.644531 104.738281 C 180.644531 102.964844 182.078125 101.523438 183.851562 101.523438 C 185.625 101.523438 187.058594 102.964844 187.058594 104.738281 Z M 175.953125 86.460938 C 175.953125 84.933594 177.195312 83.695312 178.722656 83.695312 C 180.25 83.695312 181.476562 84.933594 181.476562 86.460938 C 181.476562 87.988281 180.25 89.226562 178.722656 89.226562 C 177.195312 89.226562 175.953125 87.988281 175.953125 86.460938 Z M 165.355469 86.460938 C 165.355469 84.933594 166.601562 83.695312 168.128906 83.695312 C 169.636719 83.695312 170.878906 84.933594 170.878906 86.460938 C 170.878906 87.988281 169.636719 89.226562 168.128906 89.226562 C 166.601562 89.226562 165.355469 87.988281 165.355469 86.460938 Z M 154.757812 86.460938 C 154.757812 84.933594 156.003906 83.695312 157.511719 83.695312 C 159.039062 83.695312 160.285156 84.933594 160.285156 86.460938 C 160.285156 87.988281 159.039062 89.226562 157.511719 89.226562 C 156.003906 89.226562 154.757812 87.988281 154.757812 86.460938 Z M 247.03125 231.871094 C 246.089844 232.457031 245.523438 233.492188 245.523438 234.605469 L 245.523438 241.765625 C 245.523438 242.234375 245.128906 242.628906 244.65625 242.628906 C 244.203125 242.628906 243.808594 242.234375 243.808594 241.765625 L 243.808594 234.605469 C 243.808594 233.492188 243.222656 232.457031 242.28125 231.875 C 240.921875 231.035156 240.113281 229.585938 240.113281 227.996094 C 240.113281 225.484375 242.148438 223.441406 244.65625 223.441406 C 247.164062 223.441406 249.199219 225.484375 249.199219 227.996094 C 249.199219 229.585938 248.390625 231.035156 247.03125 231.871094 Z M 244.65625 217.015625 C 238.621094 217.015625 233.703125 221.945312 233.703125 227.996094 C 233.703125 231.1875 235.058594 234.144531 237.398438 236.214844 L 237.398438 241.765625 C 237.398438 245.789062 240.660156 249.054688 244.65625 249.054688 C 248.671875 249.054688 251.933594 245.789062 251.933594 241.765625 L 251.933594 236.207031 C 254.273438 234.144531 255.609375 231.1875 255.609375 227.996094 C 255.609375 221.945312 250.691406 217.015625 244.65625 217.015625 Z M 280.328125 212.09375 C 280.328125 216.414062 277.519531 220.082031 273.636719 221.359375 L 273.636719 215.175781 C 273.636719 211.558594 270.695312 208.609375 267.074219 208.609375 L 266.167969 208.609375 L 266.167969 206.433594 L 272.730469 206.433594 C 274.484375 206.433594 275.933594 204.996094 275.933594 203.222656 L 275.933594 122.605469 C 275.933594 119.84375 273.691406 117.59375 270.9375 117.59375 L 259.71875 117.59375 L 259.71875 113.179688 L 270.597656 113.179688 C 275.972656 113.179688 280.328125 117.554688 280.328125 122.929688 Z M 267.226562 250.890625 L 267.226562 215.175781 C 267.226562 215.105469 267.148438 215.035156 267.074219 215.035156 L 222.238281 215.035156 C 222.183594 215.035156 222.105469 215.105469 222.105469 215.175781 L 222.105469 250.890625 C 222.105469 250.964844 222.183594 251.03125 222.238281 251.03125 L 267.074219 251.03125 C 267.148438 251.03125 267.226562 250.964844 267.226562 250.890625 Z M 253.367188 260.097656 L 145.503906 260.097656 L 145.503906 254.476562 C 145.503906 251.433594 149.085938 248.859375 153.328125 248.859375 L 215.695312 248.859375 L 215.695312 250.890625 C 215.695312 254.515625 218.636719 257.457031 222.238281 257.457031 L 253.367188 257.457031 Z M 176.214844 239.171875 C 184.585938 237.644531 192.148438 233.769531 198.199219 228.269531 L 215.695312 228.269531 L 215.695312 242.433594 L 176.214844 242.433594 Z M 129.757812 195.003906 C 129.757812 216.222656 146.972656 233.484375 168.144531 233.484375 C 189.300781 233.484375 206.515625 216.222656 206.515625 195.003906 C 206.515625 173.792969 189.300781 156.53125 168.144531 156.53125 C 146.972656 156.53125 129.757812 173.792969 129.757812 195.003906 Z M 126.496094 242.675781 L 103.664062 264.890625 C 103.4375 265.105469 103.0625 265.101562 102.835938 264.878906 L 94.597656 256.359375 C 94.464844 256.222656 94.445312 256.058594 94.445312 255.953125 C 94.445312 255.839844 94.464844 255.679688 94.613281 255.546875 L 117.449219 233.328125 C 117.578125 233.199219 117.769531 233.171875 117.863281 233.171875 C 117.976562 233.171875 118.125 233.203125 118.257812 233.339844 L 126.496094 241.859375 C 126.648438 242 126.667969 242.160156 126.667969 242.269531 C 126.667969 242.382812 126.628906 242.542969 126.496094 242.675781 Z M 125.574219 231.660156 L 133.738281 223.714844 C 134.605469 224.761719 135.527344 225.777344 136.488281 226.738281 L 128.402344 234.59375 Z M 118.539062 212.09375 L 118.539062 122.929688 C 118.539062 117.554688 122.914062 113.179688 128.269531 113.179688 L 139.148438 113.179688 L 139.148438 117.59375 L 127.949219 117.59375 C 125.195312 117.59375 122.953125 119.84375 122.953125 122.605469 L 122.953125 203.222656 L 124.101562 203.222656 C 125.121094 208.707031 127.136719 213.84375 129.949219 218.4375 L 126.609375 221.695312 C 122.066406 220.882812 118.539062 216.824219 118.539062 212.09375 Z M 147.085938 80.664062 C 146.257812 80.664062 145.558594 81.363281 145.558594 82.1875 L 145.558594 92.257812 L 253.308594 92.257812 L 253.308594 82.1875 C 253.308594 81.363281 252.613281 80.664062 251.785156 80.664062 Z M 139.261719 160.707031 C 135.320312 164.050781 131.964844 168.054688 129.363281 172.554688 L 129.363281 124.019531 L 139.148438 124.019531 L 139.148438 159.421875 C 139.148438 159.855469 139.203125 160.285156 139.261719 160.707031 Z M 197.746094 146.351562 C 197.746094 150.976562 194.597656 154.878906 190.335938 156.015625 C 192.808594 157.433594 195.144531 159.089844 197.292969 160.945312 L 251.785156 160.945312 C 252.613281 160.945312 253.308594 160.246094 253.308594 159.421875 L 253.308594 98.683594 L 145.558594 98.683594 L 145.558594 156.238281 C 149.800781 153.753906 154.476562 151.945312 159.4375 150.960938 L 159.4375 134.828125 C 159.4375 133.054688 160.867188 131.617188 162.640625 131.617188 C 164.414062 131.617188 165.847656 133.054688 165.847656 134.828125 L 165.847656 150.164062 C 166.601562 150.125 167.375 150.105469 168.148438 150.105469 C 168.449219 150.105469 168.730469 150.109375 169.03125 150.117188 L 169.03125 134.828125 C 169.03125 133.054688 170.464844 131.617188 172.238281 131.617188 C 174.011719 131.617188 175.445312 133.054688 175.445312 134.828125 L 175.445312 150.703125 C 176.726562 150.917969 177.988281 151.183594 179.234375 151.5 C 178.328125 149.992188 177.800781 148.234375 177.800781 146.351562 L 177.800781 141.785156 C 177.800781 136.269531 182.269531 131.785156 187.773438 131.785156 C 193.28125 131.785156 197.75 136.269531 197.75 141.785156 L 197.75 146.351562 Z M 184.210938 146.351562 L 184.210938 141.785156 C 184.210938 139.8125 185.8125 138.210938 187.773438 138.210938 C 189.734375 138.210938 191.335938 139.8125 191.335938 141.785156 L 191.335938 146.351562 C 191.335938 148.320312 189.734375 149.921875 187.773438 149.921875 C 185.8125 149.921875 184.210938 148.320312 184.210938 146.351562 Z M 215.695312 215.175781 L 215.695312 221.84375 L 204.027344 221.84375 C 207.417969 217.292969 209.984375 212.082031 211.453125 206.433594 L 223.144531 206.433594 L 223.144531 208.609375 L 222.238281 208.609375 C 218.636719 208.609375 215.695312 211.558594 215.695312 215.175781 Z M 237.964844 200.007812 C 238.171875 196.535156 241.148438 193.667969 244.65625 193.667969 C 248.164062 193.667969 251.140625 196.535156 251.367188 200.007812 Z M 237.945312 206.433594 L 251.386719 206.433594 L 251.386719 208.609375 L 237.945312 208.609375 Z M 257.796875 208.609375 L 259.757812 208.609375 L 259.757812 200.40625 C 259.757812 192.058594 252.992188 185.265625 244.65625 185.265625 C 236.34375 185.265625 229.554688 192.058594 229.554688 200.40625 L 229.554688 208.609375 L 231.535156 208.609375 L 231.535156 200.40625 C 231.535156 193.144531 237.417969 187.242188 244.65625 187.242188 C 251.894531 187.242188 257.796875 193.144531 257.796875 200.40625 Z M 266.167969 200.007812 L 269.523438 200.007812 L 269.523438 124.019531 L 259.722656 124.019531 L 259.722656 159.421875 C 259.722656 163.804688 256.15625 167.371094 251.785156 167.371094 L 203.421875 167.371094 C 209.378906 174.996094 212.925781 184.59375 212.925781 195.003906 C 212.925781 196.695312 212.832031 198.367188 212.660156 200.007812 L 223.164062 200.007812 C 223.371094 188.300781 232.929688 178.839844 244.65625 178.839844 C 256.382812 178.839844 265.941406 188.300781 266.167969 200.007812 Z M 270.601562 106.753906 L 259.722656 106.753906 L 259.722656 82.1875 C 259.722656 77.804688 256.15625 74.242188 251.785156 74.242188 L 147.085938 74.242188 C 142.710938 74.242188 139.148438 77.804688 139.148438 82.1875 L 139.148438 106.753906 L 128.269531 106.753906 C 119.371094 106.753906 112.128906 114.011719 112.128906 122.929688 L 112.128906 212.09375 C 112.128906 218.578125 115.902344 224.164062 121.40625 226.742188 L 120.765625 227.382812 C 119.878906 226.984375 118.9375 226.761719 117.957031 226.746094 C 116.089844 226.714844 114.316406 227.417969 112.980469 228.71875 L 90.148438 250.933594 C 88.808594 252.230469 88.054688 253.980469 88.035156 255.855469 C 87.996094 257.726562 88.695312 259.496094 89.996094 260.835938 L 98.234375 269.351562 C 99.613281 270.765625 101.441406 271.476562 103.25 271.476562 C 105.003906 271.476562 106.777344 270.820312 108.113281 269.5 L 130.964844 247.289062 C 132.285156 245.988281 133.039062 244.242188 133.078125 242.367188 C 133.097656 241.378906 132.886719 240.421875 132.53125 239.539062 L 141.335938 230.964844 C 148.820312 236.578125 158.097656 239.90625 168.144531 239.90625 C 168.691406 239.90625 169.257812 239.890625 169.804688 239.871094 L 169.804688 242.433594 L 153.328125 242.433594 C 145.484375 242.433594 139.089844 247.839844 139.089844 254.476562 L 139.089844 263.308594 C 139.089844 265.082031 140.523438 266.523438 142.296875 266.523438 L 256.574219 266.523438 C 258.34375 266.523438 259.777344 265.082031 259.777344 263.308594 L 259.777344 257.457031 L 267.074219 257.457031 C 270.695312 257.457031 273.636719 254.511719 273.636719 250.890625 L 273.636719 227.980469 C 281.082031 226.558594 286.738281 219.976562 286.738281 212.09375 L 286.738281 122.929688 C 286.738281 114.011719 279.5 106.753906 270.601562 106.753906 Z M 270.601562 106.753906 "/></g></g></svg>